STARTFONT 2.3
FONT -FontForge-Bungee Shade-Book-R-Normal--32-320-72-72-P-274-ISO10646-1
SIZE 32 72 72  4
FONTBOUNDINGBOX 83 83 -20 -30
COMMENT "Generated by fontforge, http://fontforge.sourceforge.net"
COMMENT "Copyright 2008 The Bungee Project Authors (david@djr.com)"
STARTPROPERTIES 40
FOUNDRY "FontForge"
FAMILY_NAME "Bungee Shade"
WEIGHT_NAME "Book"
SLANT "R"
SETWIDTH_NAME "Normal"
ADD_STYLE_NAME ""
PIXEL_SIZE 32
POINT_SIZE 320
RESOLUTION_X 72
RESOLUTION_Y 72
SPACING "P"
AVERAGE_WIDTH 274
CHARSET_REGISTRY "ISO10646"
CHARSET_ENCODING "1"
FONTNAME_REGISTRY ""
CHARSET_COLLECTIONS "ISO8859-2 ISO8859-9 ISO8859-4 ISO10646-1"
BITS_PER_PIXEL 4
FONT_NAME "BungeeShade-Regular"
FACE_NAME "Bungee Shade"
COPYRIGHT "Copyright 2008 The Bungee Project Authors (david@djr.com)"
FONT_VERSION "1.000;PS 1.0;hotconv 1.0.72;makeotf.lib2.5.5900"
FONT_ASCENT 28
FONT_DESCENT 4
UNDERLINE_POSITION 0
UNDERLINE_THICKNESS 0
X_HEIGHT 23
CAP_HEIGHT 23
RAW_ASCENT 860
RAW_DESCENT 140
NORM_SPACE 10
RELATIVE_WEIGHT 40
RELATIVE_SETWIDTH 50
SUPERSCRIPT_X 0
SUPERSCRIPT_Y 11
SUPERSCRIPT_SIZE 19
SUBSCRIPT_X 0
SUBSCRIPT_Y 2
SUBSCRIPT_SIZE 19
AVG_LOWERCASE_WIDTH 261
AVG_UPPERCASE_WIDTH 267
ENDPROPERTIES
CHARS 1065
STARTCHAR space
ENCODING 32
SWIDTH 325 0
DWIDTH 10 0
BBX 1 1 0 0
BITMAP
00
ENDCHAR
STARTCHAR exclam
ENCODING 33
SWIDTH 524 0
DWIDTH 17 0
BBX 14 28 1 -4
BITMAP
00000655555555
0001B500000005
001BF600000005
01CFF600000005
0BFFF700050005
1FFFF700050005
1FFFF800050005
1FFFF800050005
0FFFF900050005
0EFFF900050005
0EFFFA00050005
0DFFFB00050005
0DFFFB00040005
0CFFFC00000005
0BFFFC00000005
0BFFFF53333353
0AFFFFFFFFFE40
0AFFFEAAAAA753
07FFF700000005
006FF600000005
03EFF600050005
0EFFF600010005
1FFFF600000005
1FFFF800000005
1FFFFFCCCCCCB3
1FFFFFFFFFFC20
0FFFFFFFFFB100
0AFFFFFFE80000
ENDCHAR
STARTCHAR quotedbl
ENCODING 34
SWIDTH 746 0
DWIDTH 24 0
BBX 24 16 0 8
BITMAP
000036555555624655555561
0004E30000000AF200000023
007FF30000001FF200000023
09FFF40014001FF200230023
3FFFF40014001FF300230032
4FFFF40014002FF300230032
3FFFF50014002FF400230031
3FFFF50014003FF400230041
3FFFF60014003FF400230041
2FFFF60001003FF500110050
2FFFF60000004FF500000050
1FFFF80000006FF700000050
1FFFFFDCCCCDFFFFDCCCCC40
1FFFFFFFFFEFFFFFFFFFD300
0FFFFFFFFC3FFFFFFFFC2000
0AFFFFFFA10CFFFFFF910000
ENDCHAR
STARTCHAR numbersign
ENCODING 35
SWIDTH 850 0
DWIDTH 27 0
BBX 27 28 0 -4
BITMAP
0000000006555554002655555000
000000008B00000501C100005000
0000001AF90000051CD000005000
000001CFF8000005BFC000005000
000009FFF600400DFFA004005000
00002DCAA301400AAA6005006540
0003EF0000032000000005000050
005FFE0000050000000014000050
04FFFE0015585555555576530050
07FFFF0000050000000050000050
08FFFF9730050077750050057770
08FFFFFF500501FFF900500BF800
07FFFFFF201303FFF700500C4000
06FFFBAA004103AAA30050075300
0048D00000500000000220000500
004EC00000500000000500000500
05FFC00255855555555855300500
5FFFC00000500000000500000500
9FFFC00000500000000500000500
AFFFE42002300222100500223300
AFFFFFF104104FFF500500FE5000
AFFFFFE001006FFF300102E30000
9FFFFFC000008FFF100004200000
29CFFFC00000BFFF100004000000
007FFFFDCCCBFFFFECCCA2000000
009FFFFFFFA5FFFFFFFC10000000
00BFFFFFF806FFFFFFA100000000
007EFFFE5003EFFFF80000000000
ENDCHAR
STARTCHAR dollar
ENCODING 36
SWIDTH 750 0
DWIDTH 24 0
BBX 24 34 0 -7
BITMAP
000000000015555554000000
0000000002B0000004100000
000000004ED0000003200000
00000005B630005001555620
000000440000005000000050
000001200000005000000050
00002A000000005000000050
0004E7000045556555510050
005FF5000510000000000050
03FFF5001400000000000220
0AFFF50032003EEEEEEEE500
0EFFF50032004FFFFFFE3000
1FFFF5003200013579C71000
2FFFF6002300000000016500
2FFFF8000610000000000250
2FFFFD000045553000000041
2FFFFF900000002555300005
1FFFFFFD5100000000340005
0DFFFFFFFFCA853000050005
08FFFFFFFFFFFFFC00050005
01BFFFFFFFFFFFFB00050005
0006D8000000000000050005
0004E5000000000000050004
006FF5000000000000610013
08FFF5004555557555000050
1FFFF5000000005000000320
2FFFF6000000005000026200
2FFFFEAAAA90002002DC1000
2FFFFFFFFFD0000003A00000
2FFFFFFFFFE2000005000000
0CFFFFFFFFFFFFFFE4000000
0000009FFFFFFFFC20000000
0000009FFFFFFFA100000000
0000003CCCCCC70000000000
ENDCHAR
STARTCHAR percent
ENCODING 37
SWIDTH 1131 0
DWIDTH 36 0
BBX 36 28 0 -4
BITMAP
000000245555555000015555560000000000
0000063000000005001C1000041000000000
000096004555610042DC0000050000000000
001BF104200006007DF90020050000000000
02DFF005000002309FF50050050000000000
0DFFF00504FA01409FF10320320000000000
4FFFF00505FC01409FD00500500000000000
6FFFF00505FC01409F900500600000000000
6FFFF00505FC01409F600500500000000000
6FFFF00505FC01409F202303300000000000
6FFFF105003202309E005006004555555200
6FFFF30420000600CA005006361000000360
6FFFFA0045555103F600500BA00355552005
5FFFFFA30000016EF301402F402400005205
3FFFFFFFFDCDEFFFE004106F205003200505
0CFFFFFFFFFFEFFFB005009F20503FE00505
02DFFFFFFFFC4FFF700500DF20503FE00505
0017CEFFDB605FFF301402FF20503FE00505
0000000000009FFE004105FF20503FE00505
000000000000CFFB005009FF20502EC00505
000000000001FFF700500CFF305000000505
000000000005FFF400201FFF503400005206
000000000008FFF100005FFFC00355552015
00000000000CFFE10000AFFFFB4000001560
00000000001FFFFFFFFDFFFFFFFFDDDEF600
00000000004FFFFFFFA1EFFFFFFFFFFE3000
00000000007FFFFFF8006FFFFFFFFFC20000
00000000005EFFFE600003ADEFFDB6000000
ENDCHAR
STARTCHAR ampersand
ENCODING 38
SWIDTH 866 0
DWIDTH 28 0
BBX 28 28 0 -4
BITMAP
0000000003555555555562000000
0000000062000000000005000000
0000001A10000000000005000000
000001C700000000000005000000
00002DF200015555551005000000
0002DFF100160000000005000000
000BFFF000500000000022000000
002FFFF0005000BFFFFE40000000
005FFFF2005000EFFFD300000000
006FFFF500500069DC2000000000
007FFFFD10500000330000000000
006FFFFB40150000231555555553
004FFF500256750027D000000005
001EF700350000002FE000000005
000BF100500000004FE000652005
01CFE0005000BDDDFFE000500005
0BFFD0014001FFFFFFE000500126
3FFFD0014000DECFFFA0005007A1
7FFFD00040000000000000500500
8FFFE00050000000000001400500
9FFFF20043000000000006000500
9FFFF80002555555555551003200
7FFFFF4000000000000000014000
5FFFFFF820000000000001550000
1EFFFFFFFEDCCCCCCCCCDE500000
06FFFFFFFFFFFFFFFFFFE4000000
007FFFFFFFFFFFFFFFFD20000000
00039DFFFFFFFFFFEC7000000000
ENDCHAR
STARTCHAR quotesingle
ENCODING 39
SWIDTH 456 0
DWIDTH 15 0
BBX 13 16 1 8
BITMAP
00017555555550
002C8000000050
03EF8000000050
5FFF8000500050
EFFF9000500050
EFFF9000500050
EFFFA000500050
DFFFA000500050
DFFFA000500050
CFFFB000100050
CFFFB000000050
CFFFD000000140
BFFFFECCCCC900
BFFFFFFFFF7000
AFFFFFFFE50000
6EFFFFFC300000
ENDCHAR
STARTCHAR parenleft
ENCODING 40
SWIDTH 529 0
DWIDTH 17 0
BBX 17 33 0 -6
BITMAP
000000000455555500
000000045100000140
000000720000000040
00001B300025500040
0002DB000530000040
003EF6001400000140
02EFF4004100056810
09FFF30040006FC200
0EFFF30040007A1000
2FFFF3004000500000
3FFFF3004000500000
4FFFF3004000500000
4FFFF3004000500000
4FFFF3004000500000
4FFFF3004000500000
4FFFF3004000500000
4FFFF3004000500000
4FFFF3004000500000
4FFFF3004000500000
4FFFF3004000500000
4FFFF3004000500000
4FFFF3004000500000
4FFFF3004000155500
4FFFF4004100000230
4FFFF7001400000040
4FFFFC000530000040
3FFFFF400025500040
2FFFFFE30000000040
0EFFFFFF9410000220
09FFFFFFFFFEDCC500
01DFFFFFFFFFFE4000
002CFFFFFFFFD20000
000049CEFFFB100000
ENDCHAR
STARTCHAR parenright
ENCODING 41
SWIDTH 529 0
DWIDTH 17 0
BBX 17 33 0 -6
BITMAP
000005555554000000
0001B3000001550000
002CF2000000017000
03DFF2005530002500
2EFFF2000026000600
5FFFF2000003200500
5FFFF5000000500320
5FFFFFFE4000500230
5FFFFFFF8000500230
5FFFFFFF9000500230
1BDEFFFF9000500230
0001EFFF9000500230
0000DFFF9000500230
0000DFFF9000500230
0000DFFF9000500230
0000DFFF9000500230
0000DFFF9000500230
0000DFFF9000500230
0000DFFF9000500230
0000DFFF9000500230
0000DFFF9000500230
0000DFFF8000500230
0000DFFE4000500230
0000D5000000500320
0006F2000003200500
009FF2000036000600
0BFFF2005530003300
4FFFF2000000024000
5FFFF4000013840000
5FFFFEDCDEFE300000
5FFFFFFFFFD2000000
5FFFFFFFFA10000000
2DFFFEC83000000000
ENDCHAR
STARTCHAR asterisk
ENCODING 42
SWIDTH 818 0
DWIDTH 26 0
BBX 25 23 1 1
BITMAP
00000000002655555600000000
0000000004E400000500000000
000000006FF600000500000000
00000028FFF900400500021000
00000746DFFB00502403536000
00009C0005BD00504552004100
001BF700000300502100000500
01DFF200210000500002100500
07FFC000156510502563000410
0CFFA000000156953000000330
2FFFFDB863100643002479C800
7FFFFFFFFD203306008FFF6000
BFFFFFFFE20150006008E40000
8FFFFFFE300600103300610000
00357BF3002203A00500060000
00002D9000000AF30000015000
0001DFF600003FFB0000270000
001CFFFFA100BFFF4005800000
00AFFFFFFD55FFFFC296000000
00BFFFFFFFEEFFFFFE40000000
0009FFFFFD27FFFFC200000000
00005EFFB101EFF80000000000
000002A800004B400000000000
ENDCHAR
STARTCHAR plus
ENCODING 43
SWIDTH 834 0
DWIDTH 27 0
BBX 25 24 1 -2
BITMAP
00000000000455555300000000
00000000007500000500000000
0000000008F400000500000000
000000009FF400000500000000
00000009FFF400500500000000
0000002FFFF400500500000000
0000002FFFF400500500000000
0000155AAAA300500455555500
0002C000000000500000000230
003DE000000000500000000140
04EFE001555555855555500140
3FFFE000000000500000000140
8FFFE000000000500000000140
8FFFF300000000500000000410
8FFFFFFFFFF4005007FFFFE300
8FFFFFFFFFF4005007FFFD2000
8FFFFFFFFFF4005007FFC10000
3CDDDDDFFFF4002006D9100000
0000002FFFF400000500000000
0000002FFFF600000600000000
0000002FFFFFCCCCC500000000
0000002FFFFFFFFD3000000000
0000002FFFFFFFB10000000000
0000000CFFFFE8000000000000
ENDCHAR
STARTCHAR comma
ENCODING 44
SWIDTH 484 0
DWIDTH 15 0
BBX 14 17 1 -8
BITMAP
00004555555551
00077000000005
00AF7000000005
1CFF7000000005
CFFF7015556005
FFFF7000005005
FFFF7000005005
FFFFA211105005
FFFFFFFFF15005
FFFFF644216015
EFFFD025540051
39FFD000000450
2EFFF75556A600
8FFFFFFFFE4000
9FFFFFFFD20000
8FFFFFFB100000
29AA9840000000
ENDCHAR
STARTCHAR hyphen
ENCODING 45
SWIDTH 520 0
DWIDTH 17 0
BBX 17 11 0 4
BITMAP
000015555555555500
0002C0000000000320
004EE0000000000220
06FFE0015555500220
4FFFE0000000000220
7FFFE0000000000220
7FFFF1000000000410
7FFFFECCCCCCCCC600
7FFFFFFFFFFFFE4000
7FFFFFFFFFFFD20000
3EFFFFFFFFFB100000
ENDCHAR
STARTCHAR period
ENCODING 46
SWIDTH 484 0
DWIDTH 15 0
BBX 14 13 1 -4
BITMAP
00004555555552
00087000000005
01AF7000000005
2CFF7000500005
DFFF7000500005
FFFF7000500005
FFFF7000000005
FFFF7000000005
FFFF8000000005
FFFFFDCCCCCCA1
FFFFFFFFFFF900
FFFFFFFFFF6000
AFFFFFFFD40000
ENDCHAR
STARTCHAR slash
ENCODING 47
SWIDTH 487 0
DWIDTH 16 0
BBX 16 34 0 -6
BITMAP
0000000045555552
0000000770000005
0000009F40000005
00001BFF20000005
0000CFFF00050014
0001FFFD00050032
0003FFFB00050050
0006FFF900140050
0008FFF700320050
000AFFF400500050
000CFFF200500050
000EFFF000500140
001FFFD000500320
003FFFB000500500
006FFF9001400500
008FFF7003200500
00AFFF5005000500
00CFFF2005000500
00EFFF0005001400
01FFFD0005003200
03FFFB0005005000
06FFF90014005000
08FFF70032005000
0AFFF50050005000
0CFFF20050005000
0EFFF00050014000
1FFFD00050032000
3FFFB00010050000
6FFF900000050000
8FFFB10000050000
AFFFFFFFFFA00000
CFFFFFFFF8000000
DFFFFFFF60000000
7CCCCCC400000000
ENDCHAR
STARTCHAR zero
ENCODING 48
SWIDTH 827 0
DWIDTH 26 0
BBX 25 28 1 -4
BITMAP
00000000355555555555200000
00000036200000000000462000
00000630000000000000006200
00009500002555555400000600
001BD000064000000163000410
02DFA000610000000005200040
1DFF8000600059A82000500050
6FFF80005002FFFFC000500050
BFFF80005004FFFFD000500050
DFFF80005004FFFFD000500050
EFFF80005004EFFFD000500050
EFFF80005004AFFFD000500050
EFFF80005004AFFFD000500050
EFFF80005004AFFFD000500050
EFFF80005004AFFFD000500050
EFFF80005004AFFFD000500050
EFFF80005003AFFFD000500050
EFFF80005000AEFE6000500050
EFFF9000500000000000500050
EFFFB000610000000004200230
DFFFF100063000000153000500
CFFFFA00001555555400002500
AFFFFFA1000000000000036000
5FFFFFFE941000000026B60000
0CFFFFFFFFFEDCCDDFFE400000
02DFFFFFFFFFFFFFFFD2000000
0019FFFFFFFFFFFFF810000000
000017ADEFFFECA61000000000
ENDCHAR
STARTCHAR one
ENCODING 49
SWIDTH 701 0
DWIDTH 22 0
BBX 22 28 0 -4
BITMAP
0000045555555555550000
00006D0000000000050000
0008FD0000000000050000
00AFFD0000000000050000
07FFFD0015555600050000
09FFFD0000000500050000
09FFFF4222000500050000
09FFFFFFFE000500050000
09FFFFFFFE000500050000
08FFFFFFFE000500050000
02ABBDFFFE000500050000
000008FFFE000500050000
000008FFFE000500050000
000008FFFE000500050000
000008FFFE000500050000
000008FFFE000500050000
000008FFFE000500050000
000008AAA9000500045554
0000A40000000500000005
001BF30000000500000005
02CFF30000000500000005
1DFFF30045555755554005
3FFFF30000000000000005
4FFFF50000000000000005
4FFFFFCCCCCCCCCCCCCCB2
4FFFFFFFFFFFFFFFFFFC10
3FFFFFFFFFFFFFFFFFA100
1CFFFFFFFFFFFFFFF80000
ENDCHAR
STARTCHAR two
ENCODING 50
SWIDTH 739 0
DWIDTH 24 0
BBX 23 28 0 -4
BITMAP
000001655555555555551000
00002D300000000000004300
0003EF300000000000000510
004EFF300000000000000050
01EFFF300455555554000050
04FFFF300000000002500050
04FFFF500000000000500050
04FFFFFDCCCCCCC100500050
04FFFFFFFFFFFFE100500050
04FFFFFFFFFFB61000500050
01CFFFFFFA51000000500050
000000261000000015300320
000004500000015540002500
00006B000015540000057000
0009F5000640000027D60000
00AFF2004000027CFE400000
07FFF00040009FFFD2000000
0EFFE00040008AAA65555530
4FFFE0004000000000000050
6FFFE0004000000000000050
7FFFE0004000000000000050
7FFFE0004555555555530050
7FFFE0000000000000000050
7FFFF1000000000000000040
7FFFFECCCCCCCCCCCCCCC910
7FFFFFFFFFFFFFFFFFFFA000
7FFFFFFFFFFFFFFFFFF80000
3EFFFFFFFFFFFFFFFE600000
ENDCHAR
STARTCHAR three
ENCODING 51
SWIDTH 737 0
DWIDTH 24 0
BBX 24 28 0 -4
BITMAP
000016555555555555400000
0002D4000000000000250000
002DF4000000000000023000
03EFF4000000000000005000
1EFFF4004555555400005000
3FFFF4000000000160005000
3FFFF7000000000041005000
3FFFFFFFFFFFF50013005000
3FFFFFFFFFFFF80014005000
3FFFFFFF8666610014005000
0BEEEEFD0000000032191000
000006FD0000000160015500
00008FFD0015556744000240
0006FFFD0000000001500050
0009FFFE0000000000320050
0009FFFFDCCCCCB400040040
0009FFFFFFFFFFFA00050041
0009FFFFFFFFFFF700050041
0006F7000000000000050041
0004E4000000000000330050
007FF4000000000001700050
09FFF4004555555554000050
2FFFF4000000000000000600
3FFFF5000000000000157100
3FFFFFCCCCCCCCCCCDF80000
3FFFFFFFFFFFFFFFFF600000
3FFFFFFFFFFFFFFFE4000000
1CFFFFFFFFFFFEC710000000
ENDCHAR
STARTCHAR four
ENCODING 52
SWIDTH 809 0
DWIDTH 26 0
BBX 24 28 1 -4
BITMAP
000055555555000255555553
0008B0000001402C00000005
00AFB000000141DE00000005
1BFFB00000015CFE00000005
9FFFB0005001EFFE00050005
BFFFB0005001FFFE00050005
BFFFB0005001FFFE00050005
BFFFB0005001FFFE00050005
BFFFB0005001FFFE00050005
BFFFB0005001FFFE00050005
BFFFB0005001FFFE00050005
BFFFB0005000DFFE00050005
BFFFB0005000122200050005
BFFFB0005000000000050005
BFFFC0002400000000050005
BFFFE0000255555555570005
BFFFF5000000000000050005
9FFFFD200000000000050005
6FFFFFE73100000000050005
2FFFFFFFFFFFFFFE00050005
09FFFFFFFFFFFFFE00050005
00AFFFFFFFFFFFFE00020005
00049CDDDDDEFFFE00000005
000000000008FFFF10000004
000000000008FFFFECCCCC70
000000000008FFFFFFFFF600
000000000008FFFFFFFE4000
000000000004EFFFFFD30000
ENDCHAR
STARTCHAR five
ENCODING 53
SWIDTH 747 0
DWIDTH 24 0
BBX 23 28 1 -4
BITMAP
000055555555555555556000
0007C0000000000000002200
009FC0000000000000002300
1AFFC0000000000000002300
8FFFC0005555555555002300
AFFFC0005000000000002200
AFFFC0005000000000005100
AFFFC0005000FFFFFFFD3000
AFFFC0005000FFFFFFD20000
AFFFC0005000111123551000
AFFFC0005000000000005200
AFFFC0005000000000000600
AFFFC0005555555551000320
AFFFC0000000000006100140
AFFFD0000000000000500050
AFFFFCBBBBBBBB5000500050
AFFFFFFFFFFFFFB000500050
AFFFFFFFFFFFFF8000500050
8FFFA0000000000000500050
047F70000000000000500140
04EF70000000000006100410
6FFF70035555555551000500
EFFF70000000000000005100
FFFF80000000000000471000
FFFFFDCCCCCCCCCCDFA10000
FFFFFFFFFFFFFFFFF8000000
FFFFFFFFFFFFFFFE60000000
AFFFFFFFFFFFEC8200000000
ENDCHAR
STARTCHAR six
ENCODING 54
SWIDTH 793 0
DWIDTH 25 0
BBX 24 28 1 -4
BITMAP
000000025555555555556100
000000530000000000001300
000018100000000000001400
0001C5000145555555001400
003DD0002500000000001400
03EFA0005000000000001300
1EFF80005000022222225100
6FFF80005001DFFFFFFD2000
AFFF80005003FFFFFFD10000
DFFF80005001521011356300
DFFF80005000000000000440
EFFF80005154555544100051
EFFF80008600000000420005
EFFF80009000000000050005
EFFF80005001CFFB00050005
EFFF80005003FFFF20050005
EFFF80005004FFFF20050005
EFFF80005002EFFE10050005
EFFF90005000133100050005
EFFFB0006000000000060005
DFFFE1001720000001610023
CFFFF9000045555554000060
AFFFFF910000000000001710
6FFFFFFE8410000001489100
0DFFFFFFFFFEDCCDEFF80000
03EFFFFFFFFFFFFFFF600000
002BFFFFFFFFFFFFC3000000
000028BDEFFEDB8300000000
ENDCHAR
STARTCHAR seven
ENCODING 55
SWIDTH 727 0
DWIDTH 23 0
BBX 23 28 0 -4
BITMAP
000045555555555555555620
0005D0000000000000000050
006FD0000000000000000050
08FFD0000000000000000050
5FFFD0015555555555500050
8FFFD0000000000000500050
8FFFE1000000000000500050
8FFFFECCCCCCCCA000500050
8FFFFFFFFFFFFFC000500050
8FFFFFFFFFFFFFC000500050
4EFFFFFFFFFFB72000500050
000000000451000000500040
000000016100000005300320
0000001B1000003651000500
000003D90000563000002300
00004EF50006100000054000
0003EFF40022000027B30000
000AFFF40032003DFD200000
000EFFF40032004FB1000000
002FFFF40032004700000000
003FFFF40032004100000000
003FFFF40011004100000000
003FFFF40000004100000000
003FFFF50000005000000000
003FFFFFCCCCCC4000000000
003FFFFFFFFFD30000000000
003FFFFFFFFB100000000000
001CFFFFFF90000000000000
ENDCHAR
STARTCHAR eight
ENCODING 56
SWIDTH 811 0
DWIDTH 26 0
BBX 26 28 0 -4
BITMAP
00000000025555555555400000
00000001520000000000262000
00000037000255555520006100
000004E1005400000035000500
00006FB0023000000003300500
0008FFA0041000000000500500
004FFFA0041009EFB000500500
009FFFB004100EFFF100500500
00BFFFD004100EFFF100500500
00CFFFF5023006BB8001403300
00BFFFFD205300000026028000
00BFFFB10006A7667A71000610
007FFD00046100000015500050
001DF700150000000000320040
005EF400400000000000040022
04FFF30050006EFFE700050014
0CFFF3005000BFFFFD00050014
1FFFF3005000BFFFFD00050014
3FFFF30050005DFFE700050014
4FFFF400250000000000330032
4FFFF800056100000015500050
4FFFFE20001455555551000150
3FFFFFD3000000000000003600
0EFFFFFFB631000000026A7000
08FFFFFFFFFFEDDCDEFFE50000
01BFFFFFFFFFFFFFFFFD300000
0007EFFFFFFFFFFFFF91000000
0000059CDEFFEDCA6100000000
ENDCHAR
STARTCHAR nine
ENCODING 57
SWIDTH 793 0
DWIDTH 25 0
BBX 25 28 0 -4
BITMAP
00000000155555555555200000
00000005400000000000362000
00000170000000000000006200
00002C10001545555510000600
0004E800044000000045000500
005FF500140000000004200230
03FFF30040004EFE6000500040
0BFFF30050009FFFB000500050
1FFFF30050009FFFC000500050
3FFFF30050007FFF9000500050
4FFFF300500003430000500050
4FFFF500230000000002600050
4FFFF800051000000024500050
4FFFFE10003455554420500050
3FFFFFB1000000000000500050
1FFFFFFE942100134000500050
0CFFFFFFFFFFFFFFB000500050
05FFFFFFFFFFFFFF7000500050
007FFFFD322222210000500140
00027BF9000000000003300410
00002CF9000000000036000600
0003DFF9002555555530002400
000BFFF9000000000000025000
000CFFFB000000000003860000
000CFFFFDCCCCCCCDDFE500000
000CFFFFFFFFFFFFFFD3000000
000CFFFFFFFFFFFFFB10000000
0008FFFFFFFFFEC93000000000
ENDCHAR
STARTCHAR colon
ENCODING 58
SWIDTH 484 0
DWIDTH 15 0
BBX 14 25 1 -4
BITMAP
00004555555551
00077000000005
009F7000000005
1BFF7000000005
BFFF7000500005
FFFF7000500005
FFFF7000500005
FFFF7000000005
FFFF7000000005
FFFFA000000024
FFFFFFFFFFFF80
FFFFFFFFFFF600
EFFFEAAAAA8552
5ABF7000000005
02DF7000000005
4EFF7000500005
EFFF7000500005
FFFF7000500005
FFFF7000000005
FFFF7000000005
FFFF8000000005
FFFFFDCCCCCCA1
FFFFFFFFFFF900
FFFFFFFFFF6000
AFFFFFFFD40000
ENDCHAR
STARTCHAR semicolon
ENCODING 59
SWIDTH 484 0
DWIDTH 15 0
BBX 14 29 1 -8
BITMAP
00004555555551
00067000000005
008F7000000005
0AFF7000000005
AFFF7000500005
FFFF7000500005
FFFF7000500005
FFFF7000000005
FFFF7000000005
FFFF9000000014
FFFFFFFFFFFF80
FFFFFFFFFFF600
FFFFEAAAAA8551
AFFF8000000005
008F7000000005
1AFF7000000005
BFFF7015556005
FFFF7000005005
FFFF7000005005
FFFFA211105005
FFFFFFFFF15005
FFFFF644216015
EFFFD025540051
39FFD000000450
2EFFF75556A600
8FFFFFFFFE4000
9FFFFFFFD20000
8FFFFFFB100000
29AA9840000000
ENDCHAR
STARTCHAR less
ENCODING 60
SWIDTH 814 0
DWIDTH 26 0
BBX 23 24 1 -2
BITMAP
000000000000000000002530
000000000000000014553050
000000000000025551000050
000000000145530000000050
000000046510000000340050
000001620000001455200050
00001A100003554000000050
0003D7001652000000014840
005EF4005000000037BFE300
04FFF400500026AEFFFC2000
0CFFF4005002FFFFFFB10000
1FFFF400500037BE93000000
3FFFF4005000000045541000
3FFFF7001641000000014540
3FFFFD000014552000000050
3FFFFFC20000003554000050
1FFFFFFFA510000001440050
0DFFFFFFFFFB730000000050
04FFFFFFFFFFFFD951000050
004CFFFFFFFFFFFFFFB73050
000048DFFFFFFFFFFFFFFD40
000000026BEFFFFFFFFFD300
0000000000048DFFFFFC1000
0000000000000026AE900000
ENDCHAR
STARTCHAR equal
ENCODING 61
SWIDTH 834 0
DWIDTH 27 0
BBX 25 20 1 0
BITMAP
00001555555555555555555500
0002C000000000000000000230
003EE000000000000000000140
05EFE001555555555555500140
4FFFE000000000000000000140
8FFFE000000000000000000140
8FFFF644444444444444444710
8FFFFFFFFFFFFFFFFFFFFFE300
8FFFFFFFFFFFFFFFFFFFFD2000
7FFFFFFFFFFFFFFFFFFFC10000
1899C966666666666666211200
0004D000000000000000000130
007FE000000000000000000140
09FFE001555555555555500140
6FFFE000000000000000000140
8FFFF100000000000000000330
8FFFFECCCCCCCCCCCCCCCCC800
8FFFFFFFFFFFFFFFFFFFFF6000
8FFFFFFFFFFFFFFFFFFFE40000
4EFFFFFFFFFFFFFFFFFC200000
ENDCHAR
STARTCHAR greater
ENCODING 62
SWIDTH 814 0
DWIDTH 26 0
BBX 23 24 2 -2
BITMAP
0001AEC83000000000000000
002CA026BDA5100000000000
03DF80000049DC7300000000
5EFF80000000026BD9500000
DFFF80025540000014AD5000
DFFF8000001455200001A600
DFFF90000000003553000900
DFFFF9510000000003500430
DFFFFFFFC841000000500140
CFFFFFFFFFFFB73000500140
4BEFFFFFFFFFFFF500500040
00048CFFFFFFC73000500140
0000038ED951000003500120
0001AA620000003553000200
002CA0000014552000000000
03EF80025541000000000000
4EFF80010000000004830000
CFFF80000000026AEC200000
DFFF80000048CFFFA1000000
DFFFA026AEFFFFA400000000
DFFFFDFFFFD9510000000000
DFFFFFFB7300000000000000
CFFD95100000000000000000
362000000000000000000000
ENDCHAR
STARTCHAR question
ENCODING 63
SWIDTH 756 0
DWIDTH 24 0
BBX 24 28 0 -4
BITMAP
000026555555555555563000
0003D2000000000000004600
004EF2000000000000000260
05FFF2000000000000000061
2FFFF2005555555555200015
5FFFF2000000000000430005
5FFFF4000000000000050005
5FFFFEDCCCCCCCC900050005
5FFFFFFFFFFFFFFD00050005
5FFFFFFFFDB9642000050005
1DFFFFFC1000000000050004
000003DB0000000001440003
00005EFD0004555554100021
0006FFFF1001000000000120
000BFFFF3000000000015300
000AFFFF6000013579CD3000
0007FFFFD8ACEFFFFFD20000
0005FFFE7666666BFB100000
0002FFFB0000000360000000
0000CFFA0000000220000000
0002DFFA0005000220000000
000AFFFA0001000220000000
000BFFFA0000000220000000
000CFFFC0000000410000000
000CFFFFDCCCCCC400000000
000CFFFFFFFFFD3000000000
000BFFFFFFFFC20000000000
0007FFFFFFFA100000000000
ENDCHAR
STARTCHAR at
ENCODING 64
SWIDTH 967 0
DWIDTH 31 0
BBX 29 34 1 -6
BITMAP
000000000014555555555410000000
000000005641000000000145510000
000000361004555555555410054000
000004502652000000000156404400
000079054027ACEEFEEDA730360500
0009F23319FFFFFFFFFFFFFA124150
00AFD0509FFFFFFFFFFFFFFFB05050
09FFA051FFDDCDFFFFFFFFFFF25050
2FFF9053300454322222223DF44150
7FFF9053207100000000000AF44150
AFFF90533C3003555555600AF44150
CFFF9053EC0053000000500AF44150
DFFF9053FA00500CFF20500AF44150
DFFF9053FA00502FFF20500AF44150
DFFF9053FA00502FFF20500AF44150
DFFF9053FA00502FFF20500AF44150
DFFF9053FA00502FFF20500AF44150
DFFF9053FA00502FFF20500AF44150
DFFF9053FA00500EFF20500AF25050
DFFF9053FA0050012200500A905050
DFFF9053FD00510000005000043140
DFFF9053FF40045555556555520600
DFFF9052FFE3000000000000027100
DFFFB050EFFFC87666666679CA0000
CFFFE0506FFFFFFFFFFFFFFF800000
BFFFF43305CFFFFFFFFFFFF5000000
9FFFFC0540025799AAAAAA75000000
6FFFFFA02551000000000005000000
1EFFFFFD5003555555555514100000
08FFFFFFFEA6421000000006000000
00BFFFFFFFFFFFFFFFFFFFE3000000
0019FFFFFFFFFFFFFFFFFC20000000
00003AFFFFFFFFFFFFFFB100000000
000000158ABCCCCCCCC80000000000
ENDCHAR
STARTCHAR A
ENCODING 65
SWIDTH 830 0
DWIDTH 27 0
BBX 26 28 0 -4
BITMAP
00000000034555555555520000
00000000460000000000050000
00000003E10000000000041000
0000003EA00000000000005000
000002EF400035555510005000
00000CFE000330000060003200
00004FF8000500000023000500
0000AFF3001400AF3005000500
0001FFC0005001FF8004200240
0006FF70005005FFD000500050
000CFF2004100AFFF200410050
003FFC0005000EFFF700050023
009FF900050017777500050005
00EFF700230000000000050005
05FFF600320000000000050005
09FFF600365555555555580005
0DFFF600320000000000050005
0FFFF600320000000000050005
1FFFF60032007CCCCC10050005
1FFFF60032009FFFFF10050005
1FFFF60032009FFFFF10050005
1FFFF60000009FFFFF10000005
1FFFF600000056FFFF10000005
1FFFF800000046FFFF30000004
1FFFFFDCCCC806FFFFECCCCC91
1FFFFFFFFF8006FFFFFFFFF800
0FFFFFFFF70005FFFFFFFF6000
0BFFFFFE500001DFFFFFD40000
ENDCHAR
STARTCHAR B
ENCODING 66
SWIDTH 825 0
DWIDTH 26 0
BBX 25 28 1 -4
BITMAP
00004555555555555555100000
0006D000000000000000430000
008FD000000000000000051000
0AFFD000000000000000005000
6FFFD000455555555300005000
8FFFD000500000000260005000
8FFFD000500077740060005000
8FFFD0005000EFFE0032005000
8FFFD0005000EFFF0032005000
8FFFD0005000EFFB0032014000
8FFFD000500000000040180000
8FFFD000500000000250035200
8FFFD000655555557754000510
8FFFD000500000000002600050
8FFFD000500000000000610050
8FFFD0005000EFFFE400330050
8FFFD0005000EFFFF700130050
8FFFD0005000EFFFF700140050
8FFFD0005000BCCCB200230050
8FFFD000500000000000410050
8FFFD000500000000001600050
8FFFD000455555555554000140
8FFFD000000000000000000600
8FFFE100000000000000047100
8FFFFECCCCCCCCCCCCCDF90000
8FFFFFFFFFFFFFFFFFFF700000
8FFFFFFFFFFFFFFFFFE4000000
4EFFFFFFFFFFFFFEC710000000
ENDCHAR
STARTCHAR C
ENCODING 67
SWIDTH 728 0
DWIDTH 23 0
BBX 22 28 1 -4
BITMAP
0000000155555555555554
0000005400000000000005
0000082000000000000005
0001B50000000000000005
002CE00001555555552005
02EFA00035000000000005
0DFF900060000000000004
5FFF800050007CCCCCCC80
AFFF80005002FFFFFFF800
CFFF80005003FFFFFF6000
DFFF80005003FFFFE40000
EFFF800050032000000000
EFFF800050032000000000
EFFF800050032000000000
EFFF800050032000000000
EFFF800050032000000000
EFFF800050024000000000
EFFF800050004555555552
EFFF900050000000000005
EFFFC00050000000000005
DFFFF10035000000000005
CFFFF90001555555552005
9FFFFF7000000000000005
4FFFFFFC62000000000004
0CFFFFFFFFEDCCCCCCCC81
02EFFFFFFFFFFFFFFFF900
003DFFFFFFFFFFFFFF7000
00005ADEFFFFFFFFE50000
ENDCHAR
STARTCHAR D
ENCODING 68
SWIDTH 846 0
DWIDTH 27 0
BBX 25 28 1 -4
BITMAP
00004555555555555555520000
0006D000000000000000036000
008FD000000000000000000600
0AFFD000000000000000000240
6FFFD000555555555551000050
8FFFD000500000000015300050
8FFFD000500000000000600050
8FFFD000500089998100410040
8FFFD0005000DFFFF600230040
8FFFD0005000DFFFF700140040
8FFFD0005000DFFFF700140040
8FFFD00050008FFFF700140040
8FFFD00050005FFFF700140040
8FFFD00050005FFFF700140040
8FFFD00050005FFFF700140040
8FFFD00050005FFFF700140040
8FFFD00050005FFFF600140040
8FFFD00050006AAA8100230050
8FFFD000500000000000320050
8FFFD000500000000000600040
8FFFD000500000000005300040
8FFFD000555555555551000410
8FFFD000000000000000004300
8FFFE100000000000001593000
8FFFFECCCCCCCCCCCDEFC10000
8FFFFFFFFFFFFFFFFFFA100000
8FFFFFFFFFFFFFFFFF70000000
4EFFFFFFFFFFFEDB7200000000
ENDCHAR
STARTCHAR E
ENCODING 69
SWIDTH 754 0
DWIDTH 24 0
BBX 23 28 1 -4
BITMAP
000045555555555555555620
0006D0000000000000000050
008FD0000000000000000050
0AFFD0000000000000000050
6FFFD0005555555555510050
8FFFD0005000000000000050
8FFFD0005000000000000320
8FFFD0005000EFFFFFFFE400
8FFFD0005000EFFFFFFD3000
8FFFD0005000777777850000
8FFFD0005000000000050000
8FFFD0005000000000050000
8FFFD0006555555530050000
8FFFD0005000000000050000
8FFFD0005000000000040000
8FFFD0005000DDDDDD910000
8FFFD0005000EFFFF7000000
8FFFD00050009AAA85555500
8FFFD0005000000000000140
8FFFD0005000000000000050
8FFFD0005000000000000050
8FFFD0005555555555510050
8FFFD0000000000000000050
8FFFE1000000000000000130
8FFFFECCCCCCCCCCCCCCC500
8FFFFFFFFFFFFFFFFFFE4000
8FFFFFFFFFFFFFFFFFE30000
4EFFFFFFFFFFFFFFFC200000
ENDCHAR
STARTCHAR F
ENCODING 70
SWIDTH 718 0
DWIDTH 23 0
BBX 22 28 1 -4
BITMAP
0000455555555555555554
0006D00000000000000005
008FD00000000000000005
0AFFD00000000000000005
6FFFD00055555555553005
8FFFD00050000000000005
8FFFD00050000000000014
8FFFD0005000DFFFFFFF90
8FFFD0005000DFFFFFF700
8FFFD0005000DFFFFF6000
8FFFD00050005555556000
8FFFD00050000000002200
8FFFD00050000000002300
8FFFD00065555555002300
8FFFD00050000000002300
8FFFD00050000000002300
8FFFD00050000000004100
8FFFD0005000DFFFFD2000
8FFFD0005000DFFFC10000
8FFFD0005000DFFA100000
8FFFD0005000BC80000000
8FFFD00030005000000000
8FFFD00000005000000000
8FFFE10000005000000000
8FFFFECCCCCA1000000000
8FFFFFFFFF900000000000
8FFFFFFFF6000000000000
4EFFFFFD30000000000000
ENDCHAR
STARTCHAR G
ENCODING 71
SWIDTH 808 0
DWIDTH 26 0
BBX 24 28 1 -4
BITMAP
000000015555555555555500
000000540000000000000500
000008200000000000000500
0001B5000000000000000500
002DE0000155555555300500
02EFA0002600000000000500
0DFF90005000000000000400
5FFF800050007CCCCCCC9100
AFFF80005002FFFFFFFA0000
CFFF80005003FFFFFF800000
DFFF80005003FFFFE7000000
EFFF80005003200045555554
EFFF80005003200770000005
EFFF80005003208F60000005
EFFF8000500329FF60010005
EFFF80005003CFFF60032005
EFFF80005003FFFF60032005
EFFF80005001EFFF60032005
EFFF90005000244420032005
EFFFC0006000000000032005
DFFFF1002610000000032005
CFFFF9000055555555562005
9FFFFF700000000000000005
4FFFFFFC6200000000000005
0CFFFFFFFFEDCCCCCCCCCCB3
02EFFFFFFFFFFFFFFFFFFC20
003DFFFFFFFFFFFFFFFFA100
00005ADEFFFFFFFFFFF80000
ENDCHAR
STARTCHAR H
ENCODING 72
SWIDTH 859 0
DWIDTH 27 0
BBX 26 28 1 -4
BITMAP
00004555555530000655555560
0006D00000005001B800000041
008FD0000000501CF800000041
0AFFD000000052DFF800000041
6FFFD00050005CFFF800140041
8FFFD00050005EFFF800140041
8FFFD00050005EFFF800140041
8FFFD00050005EFFF800140041
8FFFD00050006AAAA500140041
8FFFD000500000000000140041
8FFFD000500000000000140041
8FFFD000500000000000140041
8FFFD000655555555555540041
8FFFD000500000000000140041
8FFFD000500000000000140041
8FFFD000500000000000140041
8FFFD0005000DFFFF800140041
8FFFD0005000DFFFF800140041
8FFFD0005000DFFFF800140041
8FFFD0005000BFFFF800140041
8FFFD00050005EFFF800140041
8FFFD00020005EFFF800020041
8FFFD00000005EFFF800000041
8FFFE10000005EFFF900000040
8FFFFECCCCC90EFFFFDCCCCB30
8FFFFFFFFF800EFFFFFFFFD200
8FFFFFFFE5000EFFFFFFFB1000
4EFFFFFD300009FFFFFF900000
ENDCHAR
STARTCHAR I
ENCODING 73
SWIDTH 705 0
DWIDTH 23 0
BBX 22 28 0 -4
BITMAP
0000165555555555555554
0001C60000000000000005
002DF60000000000000005
03EFF60000000000000005
0EFFF60045555655552005
1FFFF60000000500000005
1FFFFA3332000500023344
1FFFFFFFFB0005000EFF60
1FFFFFFFFB0005000EE400
1FFFFFFFFB0005000C3000
06AAAEFFFB000500050000
00000BFFFB000500050000
00000BFFFB000500050000
00000BFFFB000500050000
00000BFFFB000500050000
00000BFFFB000500050000
00000BFFFB000500050000
00000AAAA7000500065552
0000770000000500000005
0008F60000000500000005
01AFF60000000500000005
0BFFF60045555655552005
1FFFF60000000000000005
1FFFF70000000000000004
1FFFFFCCCCCCCCCCCCCC80
1FFFFFFFFFFFFFFFFFF800
1FFFFFFFFFFFFFFFFF6000
0BFFFFFFFFFFFFFFD40000
ENDCHAR
STARTCHAR J
ENCODING 74
SWIDTH 788 0
DWIDTH 25 0
BBX 24 28 0 -4
BITMAP
000000000000000165555556
000000000000001C50000005
00000000000002DF50000005
0000000000003EFF50021005
000000000000EFFF50032005
000000000002FFFF50032005
000000000002FFFF50032005
000000000002FFFF50032005
000000000002FFFF50032005
000000000002FFFF50032005
000000000002FFFF50032005
000015555557FFFF50032005
0002C1000002FFFF50032005
004EF0000001FFFF50032005
06FFF0001001FFFF50032005
4FFFF0005001FFFF50032005
7FFFF0005001FFFF50032005
7FFFF0005000DFFF20031005
7FFFF0005000144200050005
7FFFF2003400000000050005
7FFFF7000540000002610005
6FFFFE100014555553000051
3FFFFFD30000000000000520
0EFFFFFFA52000000038A100
07FFFFFFFFFEDDCDEFFA1000
00AFFFFFFFFFFFFFFF800000
0007EFFFFFFFFFFFD5000000
000016ACEFFFDC9400000000
ENDCHAR
STARTCHAR K
ENCODING 75
SWIDTH 846 0
DWIDTH 27 0
BBX 25 28 1 -4
BITMAP
00004555555520002555555540
0006D000000040029000000140
008FD0000000502D5000000500
0AFFD000000052DD0000000500
6FFFD00050007DF70005004200
8FFFD0005000DFF10041005000
8FFFD0005000DFA00050014000
8FFFD0005000DF400320050000
8FFFD0005000DD000500050000
8FFFD000500064002300264000
8FFFD000500000005000001600
8FFFD000500000014000000140
8FFFD000655555565553000050
8FFFD000500000000002500050
8FFFD000500000000000500050
8FFFD000500056665000320050
8FFFD0005000DFFFF500230050
8FFFD0005000DFFFF600230050
8FFFD0005000DFFFF600230050
8FFFD0005000BFFFF600230050
8FFFD00050006FFFF600230050
8FFFD00020005FFFF600110050
8FFFD00000005FFFF600000050
8FFFE10000005FFFF800000050
8FFFFECCCCC91FFFFFCCCCCB30
8FFFFFFFFF801FFFFFFFFFC200
8FFFFFFFE5000FFFFFFFFA1000
4EFFFFFD30000BFFFFFF800000
ENDCHAR
STARTCHAR L
ENCODING 76
SWIDTH 795 0
DWIDTH 25 0
BBX 24 28 1 -4
BITMAP
000045555555300000000000
0006D0000000500000000000
008FD0000000500000000000
0AFFD0003000500000000000
6FFFD0005000500000000000
8FFFD0005000500000000000
8FFFD0005000500000000000
8FFFD0005000500000000000
8FFFD0005000500000000000
8FFFD0005000500000000000
8FFFD0005000500000000000
8FFFD0005000500035555553
8FFFD0005000500580000005
8FFFD0005000506F80000005
8FFFD000500058FF80011005
8FFFD0005000BFFF80032005
8FFFD0005000DFFF80032005
8FFFD0005000DFFF80032005
8FFFD0005000455530032005
8FFFD0005000000000032005
8FFFD0005000000000032005
8FFFD0005555555555562005
8FFFD0000000000000000005
8FFFE1000000000000000005
8FFFFECCCCCCCCCCCCCCCCA2
8FFFFFFFFFFFFFFFFFFFFB10
8FFFFFFFFFFFFFFFFFFF9000
4EFFFFFFFFFFFFFFFFE60000
ENDCHAR
STARTCHAR M
ENCODING 77
SWIDTH 949 0
DWIDTH 30 0
BBX 28 28 1 -4
BITMAP
0000455555554000000165555555
0006D00000004100001900000005
008FD0000000040001D400000005
0AFFD000000003001DC000000005
6FFFD00045300031DF4002550005
8FFFD00050420029FC0006050005
8FFFD0005006000CF50061040005
8FFFD00050006004A00420040005
8FFFD00050002400001500040005
8FFFD00050000420006000040005
8FFFD00050000050051000040005
8FFFD00050002005520020040005
8FFFD00050019000000460040005
8FFFD0005001F200000B60040005
8FFFD0005001FA00004F60040005
8FFFD0005001FF6113DF60040005
8FFFD0005001FFFFFFFF60040005
8FFFD0005001FFFFFFFF60040005
8FFFD0005001FFE5FFFF60040005
8FFFD0005001EB21FFFF60040005
8FFFD00050014001FFFF60040005
8FFFD00010014001FFFF60010005
8FFFD00000014001FFFF60000005
8FFFE10000022001FFFF80000004
8FFFFECCCCC50001FFFFFDCCCCB2
8FFFFFFFFE400001FFFFFFFFFC10
8FFFFFFFD3000000FFFFFFFFA100
4EFFFFFB10000000AFFFFFF80000
ENDCHAR
STARTCHAR N
ENCODING 78
SWIDTH 853 0
DWIDTH 27 0
BBX 25 28 1 -4
BITMAP
00004555555100000555555550
0006D000000500008700000050
008FD00000003008F700000050
0AFFD0000000117FF700000050
6FFFD000640002FFF700230050
8FFFD0005330006FF700230050
8FFFD00050420009F700230050
8FFFD00050051000C700230050
8FFFD000500061002600230050
8FFFD000500006000000230050
8FFFD000500001600000230050
8FFFD000500000150000230050
8FFFD000500010024000230050
8FFFD0005000C0003300230050
8FFFD0005000F9000430230050
8FFFD0005000FF700042230050
8FFFD0005000FFF40005330050
8FFFD0005000FFFE2000730050
8FFFD0005000FFFFD100230050
8FFFD0005000FFFFF700230050
8FFFD0005000FFFFF700230050
8FFFD0002000FFFFF700110050
8FFFD00000008FFFF700000050
8FFFE10000024FFFF900000040
8FFFFECCCCC80FFFFFDCCCCA20
8FFFFFFFFF600FFFFFFFFFB100
8FFFFFFFE4000FFFFFFFF90000
4EFFFFFC20000AFFFFFE700000
ENDCHAR
STARTCHAR O
ENCODING 79
SWIDTH 837 0
DWIDTH 27 0
BBX 25 28 1 -4
BITMAP
00000000355555555555300000
00000036200000000000363000
00000630000000000000004400
00009500002555555510000510
001BD000064000000055000050
02DFA000510000000002400050
1DFF8000500059A94000500050
6FFF80005002FFFFF100500050
BFFF80005003FFFFF300500050
DFFF80005003FFFFF300500050
EFFF80005003CFFFF300500050
EFFF800050036FFFF300500050
EFFF800050036FFFF300500050
EFFF800050036FFFF300500050
EFFF800050036FFFF300500050
EFFF800050036FFFF300500050
EFFF800050036FFFF200500050
EFFF800050008EFE9000500050
EFFF9000500000000000500050
EFFFB000510000000002400050
DFFFF100054000000045000240
CFFFFA00001555555510000600
9FFFFFA1000000000000027100
5FFFFFFE951000000025A90000
0CFFFFFFFFFEDCCCDEFF700000
02DFFFFFFFFFFFFFFFE5000000
0019EFFFFFFFFFFFFB20000000
000016ACEFFFEDA72000000000
ENDCHAR
STARTCHAR P
ENCODING 80
SWIDTH 782 0
DWIDTH 25 0
BBX 24 28 1 -4
BITMAP
000045555555555555552000
0006D0000000000000003500
008FD0000000000000000160
0AFFD0000000000000000051
6FFFD0004555555555100005
8FFFD0005000000000430005
8FFFD0005000000000050005
8FFFD0005000EFFD20041005
8FFFD0005000EFFF70023005
8FFFD0005000EFFF70023005
8FFFD0005000EFFF70023005
8FFFD0005000CDDC20041005
8FFFD0005000000000050005
8FFFD0005000000000440005
8FFFD0006555555555100032
8FFFD0005000000000000050
8FFFD0005000000000000500
8FFFD0005000000011478000
8FFFD0005000DFFFFFF70000
8FFFD0005000DFFFFF600000
8FFFD0005000DFFFD4000000
8FFFD0003000BA9500000000
8FFFD0000000500000000000
8FFFE1000000500000000000
8FFFFECCCCCA100000000000
8FFFFFFFFF90000000000000
8FFFFFFFF600000000000000
4EFFFFFD3000000000000000
ENDCHAR
STARTCHAR Q
ENCODING 81
SWIDTH 837 0
DWIDTH 27 0
BBX 25 31 1 -7
BITMAP
00000000355555555555300000
00000036300000000000363000
00000530000000000000004400
00008600002555555510000510
001BE000064000000055000050
01CFA000510000000002400050
0CFF9000500000000000500050
6FFF80005000AEFE9000500050
AFFF80005003FFFFF200500050
DFFF80005003FFFFF300500050
EFFF80005003FFFFF300500050
EFFF800050039FFFF300500050
EFFF800050036FFFF300500050
EFFF800050036FFFF300500050
EFFF800050036FFFF300500050
EFFF800050036FFFF300500050
EFFF800050036FFFF300500050
EFFF800050027FFFF200500050
EFFF900050006BCB6000500050
EFFFB000510000000002400050
DFFFF100064000000045000130
CFFFF900002555655510000600
AFFFFF80000000500000016100
6FFFFFFD730000500003891000
1DFFFFFFFFC0001000EF800000
04FFFFFFFFD0000000E6000000
003DFFFFFFE200000250000000
00005AEFFFFFFFFFF600000000
0000009FFFFFFFFE4000000000
0000009FFFFFFFD20000000000
0000003CCCCCC9100000000000
ENDCHAR
STARTCHAR R
ENCODING 82
SWIDTH 843 0
DWIDTH 27 0
BBX 26 28 1 -4
BITMAP
00004555555555555555400000
0006D000000000000000260000
008FD000000000000000015000
0AFFD000000000000000005000
6FFFD000555555555300003200
8FFFD000500000000250001400
8FFFD000500022200041000500
8FFFD0005000DFFA0013000500
8FFFD0005000DFFE0004001400
8FFFD0005000DFFE0004004200
8FFFD0005000DFF90023006000
8FFFD000500000000041046000
8FFFD000500000000160000510
8FFFD000644444445744000050
8FFFD000500000000001600032
8FFFD000500000000000140004
8FFFD000500000000000050005
8FFFD0005000DFFFF800050005
8FFFD0005000DFFFFC00050005
8FFFD0005000DFFFFC00050005
8FFFD0005000CFFFFC00050005
8FFFD00020005BFFFC00030005
8FFFD000000059FFFC00000005
8FFFE100000159FFFD00000014
8FFFFECCCCCA19FFFFECCCCC80
8FFFFFFFFF8009FFFFFFFFF600
8FFFFFFFE50009FFFFFFFE4000
4EFFFFFC300005EFFFFFC20000
ENDCHAR
STARTCHAR S
ENCODING 83
SWIDTH 750 0
DWIDTH 24 0
BBX 24 28 0 -4
BITMAP
000000004555555555555620
000000251000000000000050
000004600000000000000050
00005C000000000000000050
0007F8000045555555510050
008FF5000510000000000050
04FFF5001400000000000220
0BFFF50032003EEEEEEEE500
0FFFF50032004FFFFFFE3000
2FFFF5003200013579C71000
2FFFF5002300000000015500
2FFFF8000610000000000150
2FFFFD000045553000000041
2FFFFF800000002555300005
1FFFFFFC4100000000340005
0DFFFFFFFFC9753000050005
08FFFFFFFFFFFFFB00050005
00BFFFFFFFFFFFFB00050005
0006D8000000000000050005
0004E5000000000000050005
006FF5000000000000610023
08FFF5004555555555000050
1FFFF5000000000000000520
2FFFF6000000000000048200
2FFFFFCCCCCCCCCCCDFB1000
2FFFFFFFFFFFFFFFFF900000
2FFFFFFFFFFFFFFFE6000000
0CFFFFFFFFFFFEC820000000
ENDCHAR
STARTCHAR T
ENCODING 84
SWIDTH 756 0
DWIDTH 24 0
BBX 25 28 0 -4
BITMAP
00006555555555555555555600
00099000000000000000000410
01AF9000000000000000000310
1CFF9000000000000000000310
AFFF9003555555655555400310
DFFF9000000000500000000310
DFFFB000000000500000000400
DFFFFDCCCC50005001CCCCB200
DFFFFFFFFF70005001FFFC1000
DFFFFFFFFF70005001FFB10000
8FFFFFFFFF70005001F9000000
000000FFFF7000500140000000
000000FFFF7000500140000000
000000FFFF7000500140000000
000000FFFF7000500140000000
000000FFFF7000500140000000
000000FFFF7000500140000000
000000FFFF7000500140000000
000000FFFF7000500140000000
000000FFFF7000500140000000
000000FFFF7000500140000000
000000FFFF7000100140000000
000000FFFF7000000140000000
000000FFFF8000000320000000
000000FFFFFDCCCCC600000000
000000FFFFFFFFFE4000000000
000000FFFFFFFFD20000000000
000000AFFFFFFB100000000000
ENDCHAR
STARTCHAR U
ENCODING 85
SWIDTH 846 0
DWIDTH 27 0
BBX 25 28 1 -4
BITMAP
00005555555520001655555550
0008B00000005002C500000050
01AFB0000000503DF500000050
1CFFB000300054EFF500210050
9FFFB00050005EFFF500410050
BFFFB00050006FFFF500410050
BFFFB00050006FFFF500410050
BFFFB00050006FFFF500410050
BFFFB00050006FFFF500410050
BFFFB00050006FFFF500410050
BFFFB00050006FFFF500410050
BFFFB00050006FFFF500410050
BFFFB00050006FFFF500410050
BFFFB00050006FFFF500410050
BFFFB00050006FFFF500410050
BFFFB00050006FFFF500410050
BFFFB00050006FFFF500410050
BFFFB00050007FFFE200410050
BFFFC000500002431000500050
BFFFE000230000000001500050
AFFFF400045100000046000140
9FFFFC10001455555520000600
6FFFFFC3000000000000016100
2FFFFFFFB62000000015990000
09FFFFFFFFFFDDCCDEFF700000
00BFFFFFFFFFFFFFFFE5000000
0007EFFFFFFFFFFFFB20000000
0000059CEFFFEDB72000000000
ENDCHAR
STARTCHAR V
ENCODING 86
SWIDTH 830 0
DWIDTH 27 0
BBX 26 28 0 -4
BITMAP
00000655555560000365555554
0001C600000023004E00000005
002DF60000002305FF00000005
03EFF6000300237FFF00030005
0EFFF600050028FFFF00050005
1FFFF60005002AFFFF00050005
1FFFF60005002AFFFF00050005
1FFFF60005002AFFFF00050005
1FFFF60005002AFFFF00050005
1FFFF60005002AFFFF00050005
1FFFF60005002AFFFF00050005
1FFFF70005001BFFFE00050005
1FFFF90005000BFFFA00050005
1FFFFD00050007FFF500050032
0FFFFF40042002FFF100510050
0EFFFFA0006000DFB000600050
0BFFFFE10060008F6002400410
06FFFFF6002400291006000500
01FFFFFC000600000005001300
00AFFFFF300410000042005000
004FFFFF800060000050004000
000DFFFFE00025555500031000
0007FFFFF50000000000040000
0002FFFFFC0000000000230000
0000BFFFFFECCCCCCCCC500000
00005FFFFFFFFFFFFFE3000000
00000EFFFFFFFFFFFC20000000
000005EFFFFFFFFFA100000000
ENDCHAR
STARTCHAR W
ENCODING 87
SWIDTH 931 0
DWIDTH 30 0
BBX 28 28 1 -4
BITMAP
0000655555560000000165555554
0009900000032000002C40000005
01BF90000003200003DF40000005
2DFF9000300320004EFF40030005
BFFF900050032001EFFF40050005
DFFF900050032003FFFF40050005
DFFF900050032003FFFF40050005
DFFF900050032003FFFF40050005
DFFF900050032056ADFF40050005
DFFF90005003390000BF40050005
DFFF90005003D600004F40050005
DFFF90005003E100000D40050005
DFFF900050039000000740050005
DFFF900050033025520140050005
DFFF900050000050050000050005
DFFFA00050000410014000050005
DFFFB00050000500005000050005
DFFFE00050003202102400050005
CFFFF3005000500CB00500050031
CFFFF8003203202FF10230130040
AFFFFD000506006FF50060410040
6FFFFF40045100BFFA0015400410
1FFFFF90000001FFFE0000000400
0BFFFFE2000006FFFF5000002300
06FFFFFECCCCCEFFFFFDCCCC5000
01FFFFFFFFFC2AFFFFFFFFE40000
00AFFFFFFFA105FFFFFFFD200000
002DFFFFE80001BFFFFFB1000000
ENDCHAR
STARTCHAR X
ENCODING 88
SWIDTH 837 0
DWIDTH 27 0
BBX 25 28 1 -4
BITMAP
00005555555600001655555540
0009900000032001C300000050
00AF90000003201CF300000050
1BFF9000000321CFF300000050
AFFF900050023CFFF200500050
DFFFA00050007FFFE000500050
DFFFC00050005FFF5000600050
DFFFF20033000BFB0003200420
CFFFFB00051002820015000600
BFFFFF60006000000050005100
8FFFFFE2002400000420024000
2FFFFFFB000420001400060000
07FFFFFF300075557000420000
00BFFFF9000510001400060000
002EFFC1003300000320015000
0006FE20015000000051003300
0009F600060005C50005000510
005FD00051002EFE2001400050
02EFA0005000CFFFB000600050
0CFF90005003FFFFF200500050
6FFF90005004FFFFF300500050
BFFF90002004FFFFF300200050
CFFF900000048FFFF300000050
DFFFA00000055FFFF400000050
DFFFFDCCCCC54FFFFECCCCCB20
DFFFFFFFFE404FFFFFFFFFA100
CFFFFFFFC2004FFFFFFFF80000
8FFFFFFA10001DFFFFFE500000
ENDCHAR
STARTCHAR Y
ENCODING 89
SWIDTH 805 0
DWIDTH 26 0
BBX 26 28 0 -4
BITMAP
00002655555540000555555560
0003E200000050007B00000032
005EF20000005009FB00000032
06FFF200300051BFFB00030032
3FFFF200500058FFFB00050032
5FFFF20050005BFFFB00050032
5FFFF20050005BFFFB00050032
5FFFF20050005BFFFA00050032
5FFFF20050003CFFF500050041
5FFFF30014000AFFC000410050
5FFFF700051002EF3001400060
5FFFFE10005000340006000240
4FFFFFA0002400000041000600
2FFFFFF6000410000230005100
0CFFFFFE200050001500033000
04FFFFFFC00005654000150000
008FFFFFF80000320000600000
000CFFFFFF4000320004200000
0002EFFFFFE100320014000000
00006FFFFFF400320041000000
00000AFFFFF400320041000000
000001DFFFF400110041000000
0000005FFFF400000041000000
0000003FFFF500000050000000
0000003FFFFFCCCCCB40000000
0000003FFFFFFFFFD200000000
0000003FFFFFFFFB1000000000
0000001CFFFFFF900000000000
ENDCHAR
STARTCHAR Z
ENCODING 90
SWIDTH 760 0
DWIDTH 24 0
BBX 24 28 0 -4
BITMAP
000005555555555555555560
00007B000000000000000041
0008FB000000000000000041
00AFFB000000000000000041
08FFFB002555555555510041
0BFFFB000000000000050041
0BFFFD000000000000330041
0BFFFFECCCCCC50001500050
0BFFFFFFFFFFA00006000240
0BFFFFFFFFFC000051001500
06EFFFFFFFE2000330006000
000000007F30002500051000
00000005F600006000420000
0000003E8000060002400000
000001DB0000420015000000
00000BD10003400060000000
00009E300015000510000000
0006F7000060002755555552
004FF3000510000000000005
02EFF2002300000000000005
0BFFF2005000000000000005
3FFFF2001555555555552005
4FFFF2000000000000000005
4FFFF4000000000000000004
4FFFFECCCCCCCCCCCCCCCC80
4FFFFFFFFFFFFFFFFFFFF800
4FFFFFFFFFFFFFFFFFFF6000
1DFFFFFFFFFFFFFFFFE40000
ENDCHAR
STARTCHAR bracketleft
ENCODING 91
SWIDTH 529 0
DWIDTH 17 0
BBX 17 33 0 -6
BITMAP
000005555555555500
0000A4000000000140
001CF3000000000040
02DFF3003555500040
1EFFF3004000000040
3FFFF3004000000140
4FFFF3004000366810
4FFFF30040007FC200
4FFFF30040007A1000
4FFFF3004000500000
4FFFF3004000500000
4FFFF3004000500000
4FFFF3004000500000
4FFFF3004000500000
4FFFF3004000500000
4FFFF3004000500000
4FFFF3004000500000
4FFFF3004000500000
4FFFF3004000500000
4FFFF3004000500000
4FFFF3004000500000
4FFFF3004000500000
4FFFF3004000455500
4FFFF3004000000230
4FFFF3004000000040
4FFFF3004000000040
4FFFF3003555500040
4FFFF3000000000040
4FFFF5000000000220
4FFFFFDCCCCCCCC500
4FFFFFFFFFFFFE4000
3FFFFFFFFFFFD20000
1CFFFFFFFFFB100000
ENDCHAR
STARTCHAR backslash
ENCODING 92
SWIDTH 487 0
DWIDTH 16 0
BBX 16 34 0 -6
BITMAP
0000355555520000
0006800000050000
008F900000050000
1AFFB00000050000
BFFFD00050032000
EFFFF10050004000
CFFFF30050005000
AFFFF50050005000
8FFFF70041005000
5FFFF90023005000
3FFFFB0005005000
1FFFFD0005003200
0EFFFF1005001400
0CFFFF3005000500
0AFFFF5005000500
08FFFF7004100500
05FFFF9002300500
03FFFFB000500500
01FFFFD000500320
00EFFFF100500140
00CFFFF300500050
00AFFFF500500050
008FFFF700410050
005FFFF900230050
003FFFFB00050050
001FFFFD00050032
000EFFFF00050014
000CFFFF30010005
000AFFFF50000005
0008FFFF90000015
0005FFFFFFFFFF90
0003FFFFFFFFF700
0001FFFFFFFE5000
00008CCCCCB30000
ENDCHAR
STARTCHAR bracketright
ENCODING 93
SWIDTH 529 0
DWIDTH 17 0
BBX 17 33 0 -6
BITMAP
000005555555555500
0001B3000000000320
002CF2000000000230
03DFF2005555400230
2EFFF2000000500230
5FFFF2000000500230
5FFFF5000000500230
5FFFFFFF9000500230
5FFFFFFF9000500230
5FFFFFFF9000500230
1BDDFFFF9000500230
0000DFFF9000500230
0000DFFF9000500230
0000DFFF9000500230
0000DFFF9000500230
0000DFFF9000500230
0000DFFF9000500230
0000DFFF9000500230
0000DFFF9000500230
0000DFFF9000500230
0000DFFF9000500230
0000DFFF9000500230
0000DFFF9000500230
0000D5000000500230
0006F2000000500230
009FF2000000500230
0BFFF2005555400230
4FFFF2000000000230
5FFFF4000000000310
5FFFFEDCCCCCCCC500
5FFFFFFFFFFFFE4000
5FFFFFFFFFFFD20000
2DFFFFFFFFFA100000
ENDCHAR
STARTCHAR asciicircum
ENCODING 94
SWIDTH 814 0
DWIDTH 26 0
BBX 25 22 0 2
BITMAP
00000000004555555550000000
00000000072000000017000000
00000001A50000000002400000
0000002CD00055555100600000
000002DF800510000600420000
00000CFF300500000500050000
00006FFE000400000140050000
0000CFFA004100D30050050000
0002FFF6005003F70050024000
0006FFF2005007FB0032005000
000AFFC002300BFF1005005000
000EFF8005001FFF4005004100
003FFF4005004FFF8005000500
008FFE0005008FFFC001400500
00CFFB004100CFFFF200500500
01FFF6000001FFFFF600000230
05FFF2000005CFFFFA00000050
09FFF20000168FFFFE20000150
0EFFFFFFFFB14FFFFFFFFFFA10
3FFFFFFFF9000EFFFFFFFF8000
6FFFFFFF70000BFFFFFFF60000
2CDDDDC4000003CDDDDC400000
ENDCHAR
STARTCHAR underscore
ENCODING 95
SWIDTH 834 0
DWIDTH 27 0
BBX 25 11 1 -7
BITMAP
00001555555555555555555500
0002C000000000000000000230
004EE000000000000000000140
06FFE001444444444444400140
5FFFE000000000000000000140
8FFFE000000000000000000140
8FFFF100000000000000000330
8FFFFECCCCCCCCCCCCCCCCC700
8FFFFFFFFFFFFFFFFFFFFF5000
8FFFFFFFFFFFFFFFFFFFE30000
4EFFFFFFFFFFFFFFFFFC200000
ENDCHAR
STARTCHAR grave
ENCODING 96
SWIDTH 600 0
DWIDTH 19 0
BBX 19 11 0 20
BITMAP
00005555555542100000
0008E000000013455520
00AFE000000000000050
1CFFE001555555310050
6FFFF000000000110050
7FFFFA64310000000050
7FFFFFFFFFECA8753250
7FFFFFFFFFFFFFFFF900
5FFFFFFFFFFFFFFF7000
0368ACEFFFFFFFE40000
000000002468AA300000
ENDCHAR
STARTCHAR a
ENCODING 97
SWIDTH 830 0
DWIDTH 27 0
BBX 26 28 0 -4
BITMAP
00000000034555555555520000
00000000460000000000050000
00000003E10000000000041000
0000003EA00000000000005000
000002EF400035555510005000
00000CFE000330000060003200
00004FF8000500000023000500
0000AFF3001400AF3005000500
0001FFC0005001FF8004200240
0006FF70005005FFD000500050
000CFF2004100AFFF200410050
003FFC0005000EFFF700050023
009FF900050017777500050005
00EFF700230000000000050005
05FFF600320000000000050005
09FFF600365555555555580005
0DFFF600320000000000050005
0FFFF600320000000000050005
1FFFF60032007CCCCC10050005
1FFFF60032009FFFFF10050005
1FFFF60032009FFFFF10050005
1FFFF60000009FFFFF10000005
1FFFF600000056FFFF10000005
1FFFF800000046FFFF30000004
1FFFFFDCCCC806FFFFECCCCC91
1FFFFFFFFF8006FFFFFFFFF800
0FFFFFFFF70005FFFFFFFF6000
0BFFFFFE500001DFFFFFD40000
ENDCHAR
STARTCHAR b
ENCODING 98
SWIDTH 825 0
DWIDTH 26 0
BBX 25 28 1 -4
BITMAP
00004555555555555555100000
0006D000000000000000430000
008FD000000000000000051000
0AFFD000000000000000005000
6FFFD000455555555300005000
8FFFD000500000000260005000
8FFFD000500077740060005000
8FFFD0005000EFFE0032005000
8FFFD0005000EFFF0032005000
8FFFD0005000EFFB0032014000
8FFFD000500000000040180000
8FFFD000500000000250035200
8FFFD000655555557754000510
8FFFD000500000000002600050
8FFFD000500000000000610050
8FFFD0005000EFFFE400330050
8FFFD0005000EFFFF700130050
8FFFD0005000EFFFF700140050
8FFFD0005000BCCCB200230050
8FFFD000500000000000410050
8FFFD000500000000001600050
8FFFD000455555555554000140
8FFFD000000000000000000600
8FFFE100000000000000047100
8FFFFECCCCCCCCCCCCCDF90000
8FFFFFFFFFFFFFFFFFFF700000
8FFFFFFFFFFFFFFFFFE4000000
4EFFFFFFFFFFFFFEC710000000
ENDCHAR
STARTCHAR c
ENCODING 99
SWIDTH 728 0
DWIDTH 23 0
BBX 22 28 1 -4
BITMAP
0000000155555555555554
0000005400000000000005
0000082000000000000005
0001B50000000000000005
002CE00001555555552005
02EFA00035000000000005
0DFF900060000000000004
5FFF800050007CCCCCCC80
AFFF80005002FFFFFFF800
CFFF80005003FFFFFF6000
DFFF80005003FFFFE40000
EFFF800050032000000000
EFFF800050032000000000
EFFF800050032000000000
EFFF800050032000000000
EFFF800050032000000000
EFFF800050024000000000
EFFF800050004555555552
EFFF900050000000000005
EFFFC00050000000000005
DFFFF10035000000000005
CFFFF90001555555552005
9FFFFF7000000000000005
4FFFFFFC62000000000004
0CFFFFFFFFEDCCCCCCCC81
02EFFFFFFFFFFFFFFFF900
003DFFFFFFFFFFFFFF7000
00005ADEFFFFFFFFE50000
ENDCHAR
STARTCHAR d
ENCODING 100
SWIDTH 846 0
DWIDTH 27 0
BBX 25 28 1 -4
BITMAP
00004555555555555555520000
0006D000000000000000036000
008FD000000000000000000600
0AFFD000000000000000000240
6FFFD000555555555551000050
8FFFD000500000000015300050
8FFFD000500000000000600050
8FFFD000500089998100410040
8FFFD0005000DFFFF600230040
8FFFD0005000DFFFF700140040
8FFFD0005000DFFFF700140040
8FFFD00050008FFFF700140040
8FFFD00050005FFFF700140040
8FFFD00050005FFFF700140040
8FFFD00050005FFFF700140040
8FFFD00050005FFFF700140040
8FFFD00050005FFFF600140040
8FFFD00050006AAA8100230050
8FFFD000500000000000320050
8FFFD000500000000000600040
8FFFD000500000000005300040
8FFFD000555555555551000410
8FFFD000000000000000004300
8FFFE100000000000001593000
8FFFFECCCCCCCCCCCDEFC10000
8FFFFFFFFFFFFFFFFFFA100000
8FFFFFFFFFFFFFFFFF70000000
4EFFFFFFFFFFFEDB7200000000
ENDCHAR
STARTCHAR e
ENCODING 101
SWIDTH 754 0
DWIDTH 24 0
BBX 23 28 1 -4
BITMAP
000045555555555555555620
0006D0000000000000000050
008FD0000000000000000050
0AFFD0000000000000000050
6FFFD0005555555555510050
8FFFD0005000000000000050
8FFFD0005000000000000320
8FFFD0005000EFFFFFFFE400
8FFFD0005000EFFFFFFD3000
8FFFD0005000777777850000
8FFFD0005000000000050000
8FFFD0005000000000050000
8FFFD0006555555530050000
8FFFD0005000000000050000
8FFFD0005000000000040000
8FFFD0005000DDDDDD910000
8FFFD0005000EFFFF7000000
8FFFD00050009AAA85555500
8FFFD0005000000000000140
8FFFD0005000000000000050
8FFFD0005000000000000050
8FFFD0005555555555510050
8FFFD0000000000000000050
8FFFE1000000000000000130
8FFFFECCCCCCCCCCCCCCC500
8FFFFFFFFFFFFFFFFFFE4000
8FFFFFFFFFFFFFFFFFE30000
4EFFFFFFFFFFFFFFFC200000
ENDCHAR
STARTCHAR f
ENCODING 102
SWIDTH 718 0
DWIDTH 23 0
BBX 22 28 1 -4
BITMAP
0000455555555555555554
0006D00000000000000005
008FD00000000000000005
0AFFD00000000000000005
6FFFD00055555555553005
8FFFD00050000000000005
8FFFD00050000000000014
8FFFD0005000DFFFFFFF90
8FFFD0005000DFFFFFF700
8FFFD0005000DFFFFF6000
8FFFD00050005555556000
8FFFD00050000000002200
8FFFD00050000000002300
8FFFD00065555555002300
8FFFD00050000000002300
8FFFD00050000000002300
8FFFD00050000000004100
8FFFD0005000DFFFFD2000
8FFFD0005000DFFFC10000
8FFFD0005000DFFA100000
8FFFD0005000BC80000000
8FFFD00030005000000000
8FFFD00000005000000000
8FFFE10000005000000000
8FFFFECCCCCA1000000000
8FFFFFFFFF900000000000
8FFFFFFFF6000000000000
4EFFFFFD30000000000000
ENDCHAR
STARTCHAR g
ENCODING 103
SWIDTH 808 0
DWIDTH 26 0
BBX 24 28 1 -4
BITMAP
000000015555555555555500
000000540000000000000500
000008200000000000000500
0001B5000000000000000500
002DE0000155555555300500
02EFA0002600000000000500
0DFF90005000000000000400
5FFF800050007CCCCCCC9100
AFFF80005002FFFFFFFA0000
CFFF80005003FFFFFF800000
DFFF80005003FFFFE7000000
EFFF80005003200045555554
EFFF80005003200770000005
EFFF80005003208F60000005
EFFF8000500329FF60010005
EFFF80005003CFFF60032005
EFFF80005003FFFF60032005
EFFF80005001EFFF60032005
EFFF90005000244420032005
EFFFC0006000000000032005
DFFFF1002610000000032005
CFFFF9000055555555562005
9FFFFF700000000000000005
4FFFFFFC6200000000000005
0CFFFFFFFFEDCCCCCCCCCCB3
02EFFFFFFFFFFFFFFFFFFC20
003DFFFFFFFFFFFFFFFFA100
00005ADEFFFFFFFFFFF80000
ENDCHAR
STARTCHAR h
ENCODING 104
SWIDTH 859 0
DWIDTH 27 0
BBX 26 28 1 -4
BITMAP
00004555555530000655555560
0006D00000005001B800000041
008FD0000000501CF800000041
0AFFD000000052DFF800000041
6FFFD00050005CFFF800140041
8FFFD00050005EFFF800140041
8FFFD00050005EFFF800140041
8FFFD00050005EFFF800140041
8FFFD00050006AAAA500140041
8FFFD000500000000000140041
8FFFD000500000000000140041
8FFFD000500000000000140041
8FFFD000655555555555540041
8FFFD000500000000000140041
8FFFD000500000000000140041
8FFFD000500000000000140041
8FFFD0005000DFFFF800140041
8FFFD0005000DFFFF800140041
8FFFD0005000DFFFF800140041
8FFFD0005000BFFFF800140041
8FFFD00050005EFFF800140041
8FFFD00020005EFFF800020041
8FFFD00000005EFFF800000041
8FFFE10000005EFFF900000040
8FFFFECCCCC90EFFFFDCCCCB30
8FFFFFFFFF800EFFFFFFFFD200
8FFFFFFFE5000EFFFFFFFB1000
4EFFFFFD300009FFFFFF900000
ENDCHAR
STARTCHAR i
ENCODING 105
SWIDTH 705 0
DWIDTH 23 0
BBX 22 28 0 -4
BITMAP
0000165555555555555554
0001C60000000000000005
002DF60000000000000005
03EFF60000000000000005
0EFFF60045555655552005
1FFFF60000000500000005
1FFFFA3332000500023344
1FFFFFFFFB0005000EFF60
1FFFFFFFFB0005000EE400
1FFFFFFFFB0005000C3000
06AAAEFFFB000500050000
00000BFFFB000500050000
00000BFFFB000500050000
00000BFFFB000500050000
00000BFFFB000500050000
00000BFFFB000500050000
00000BFFFB000500050000
00000AAAA7000500065552
0000770000000500000005
0008F60000000500000005
01AFF60000000500000005
0BFFF60045555655552005
1FFFF60000000000000005
1FFFF70000000000000004
1FFFFFCCCCCCCCCCCCCC80
1FFFFFFFFFFFFFFFFFF800
1FFFFFFFFFFFFFFFFF6000
0BFFFFFFFFFFFFFFD40000
ENDCHAR
STARTCHAR j
ENCODING 106
SWIDTH 788 0
DWIDTH 25 0
BBX 24 28 0 -4
BITMAP
000000000000000165555556
000000000000001C50000005
00000000000002DF50000005
0000000000003EFF50021005
000000000000EFFF50032005
000000000002FFFF50032005
000000000002FFFF50032005
000000000002FFFF50032005
000000000002FFFF50032005
000000000002FFFF50032005
000000000002FFFF50032005
000015555557FFFF50032005
0002C1000002FFFF50032005
004EF0000001FFFF50032005
06FFF0001001FFFF50032005
4FFFF0005001FFFF50032005
7FFFF0005001FFFF50032005
7FFFF0005000DFFF20031005
7FFFF0005000144200050005
7FFFF2003400000000050005
7FFFF7000540000002610005
6FFFFE100014555553000051
3FFFFFD30000000000000520
0EFFFFFFA52000000038A100
07FFFFFFFFFEDDCDEFFA1000
00AFFFFFFFFFFFFFFF800000
0007EFFFFFFFFFFFD5000000
000016ACEFFFDC9400000000
ENDCHAR
STARTCHAR k
ENCODING 107
SWIDTH 846 0
DWIDTH 27 0
BBX 25 28 1 -4
BITMAP
00004555555520002555555540
0006D000000040029000000140
008FD0000000502D5000000500
0AFFD000000052DD0000000500
6FFFD00050007DF70005004200
8FFFD0005000DFF10041005000
8FFFD0005000DFA00050014000
8FFFD0005000DF400320050000
8FFFD0005000DD000500050000
8FFFD000500064002300264000
8FFFD000500000005000001600
8FFFD000500000014000000140
8FFFD000655555565553000050
8FFFD000500000000002500050
8FFFD000500000000000500050
8FFFD000500056665000320050
8FFFD0005000DFFFF500230050
8FFFD0005000DFFFF600230050
8FFFD0005000DFFFF600230050
8FFFD0005000BFFFF600230050
8FFFD00050006FFFF600230050
8FFFD00020005FFFF600110050
8FFFD00000005FFFF600000050
8FFFE10000005FFFF800000050
8FFFFECCCCC91FFFFFCCCCCB30
8FFFFFFFFF801FFFFFFFFFC200
8FFFFFFFE5000FFFFFFFFA1000
4EFFFFFD30000BFFFFFF800000
ENDCHAR
STARTCHAR l
ENCODING 108
SWIDTH 795 0
DWIDTH 25 0
BBX 24 28 1 -4
BITMAP
000045555555300000000000
0006D0000000500000000000
008FD0000000500000000000
0AFFD0003000500000000000
6FFFD0005000500000000000
8FFFD0005000500000000000
8FFFD0005000500000000000
8FFFD0005000500000000000
8FFFD0005000500000000000
8FFFD0005000500000000000
8FFFD0005000500000000000
8FFFD0005000500035555553
8FFFD0005000500580000005
8FFFD0005000506F80000005
8FFFD000500058FF80011005
8FFFD0005000BFFF80032005
8FFFD0005000DFFF80032005
8FFFD0005000DFFF80032005
8FFFD0005000455530032005
8FFFD0005000000000032005
8FFFD0005000000000032005
8FFFD0005555555555562005
8FFFD0000000000000000005
8FFFE1000000000000000005
8FFFFECCCCCCCCCCCCCCCCA2
8FFFFFFFFFFFFFFFFFFFFB10
8FFFFFFFFFFFFFFFFFFF9000
4EFFFFFFFFFFFFFFFFE60000
ENDCHAR
STARTCHAR m
ENCODING 109
SWIDTH 949 0
DWIDTH 30 0
BBX 28 28 1 -4
BITMAP
0000455555554000000165555555
0006D00000004100001900000005
008FD0000000040001D400000005
0AFFD000000003001DC000000005
6FFFD00045300031DF4002550005
8FFFD00050420029FC0006050005
8FFFD0005006000CF50061040005
8FFFD00050006004A00420040005
8FFFD00050002400001500040005
8FFFD00050000420006000040005
8FFFD00050000050051000040005
8FFFD00050002005520020040005
8FFFD00050019000000460040005
8FFFD0005001F200000B60040005
8FFFD0005001FA00004F60040005
8FFFD0005001FF6113DF60040005
8FFFD0005001FFFFFFFF60040005
8FFFD0005001FFFFFFFF60040005
8FFFD0005001FFE5FFFF60040005
8FFFD0005001EB21FFFF60040005
8FFFD00050014001FFFF60040005
8FFFD00010014001FFFF60010005
8FFFD00000014001FFFF60000005
8FFFE10000022001FFFF80000004
8FFFFECCCCC50001FFFFFDCCCCB2
8FFFFFFFFE400001FFFFFFFFFC10
8FFFFFFFD3000000FFFFFFFFA100
4EFFFFFB10000000AFFFFFF80000
ENDCHAR
STARTCHAR n
ENCODING 110
SWIDTH 853 0
DWIDTH 27 0
BBX 25 28 1 -4
BITMAP
00004555555100000555555550
0006D000000500008700000050
008FD00000003008F700000050
0AFFD0000000117FF700000050
6FFFD000640002FFF700230050
8FFFD0005330006FF700230050
8FFFD00050420009F700230050
8FFFD00050051000C700230050
8FFFD000500061002600230050
8FFFD000500006000000230050
8FFFD000500001600000230050
8FFFD000500000150000230050
8FFFD000500010024000230050
8FFFD0005000C0003300230050
8FFFD0005000F9000430230050
8FFFD0005000FF700042230050
8FFFD0005000FFF40005330050
8FFFD0005000FFFE2000730050
8FFFD0005000FFFFD100230050
8FFFD0005000FFFFF700230050
8FFFD0005000FFFFF700230050
8FFFD0002000FFFFF700110050
8FFFD00000008FFFF700000050
8FFFE10000024FFFF900000040
8FFFFECCCCC80FFFFFDCCCCA20
8FFFFFFFFF600FFFFFFFFFB100
8FFFFFFFE4000FFFFFFFF90000
4EFFFFFC20000AFFFFFE700000
ENDCHAR
STARTCHAR o
ENCODING 111
SWIDTH 837 0
DWIDTH 27 0
BBX 25 28 1 -4
BITMAP
00000000355555555555300000
00000036200000000000363000
00000630000000000000004400
00009500002555555510000510
001BD000064000000055000050
02DFA000510000000002400050
1DFF8000500059A94000500050
6FFF80005002FFFFF100500050
BFFF80005003FFFFF300500050
DFFF80005003FFFFF300500050
EFFF80005003CFFFF300500050
EFFF800050036FFFF300500050
EFFF800050036FFFF300500050
EFFF800050036FFFF300500050
EFFF800050036FFFF300500050
EFFF800050036FFFF300500050
EFFF800050036FFFF200500050
EFFF800050008EFE9000500050
EFFF9000500000000000500050
EFFFB000510000000002400050
DFFFF100054000000045000240
CFFFFA00001555555510000600
9FFFFFA1000000000000027100
5FFFFFFE951000000025A90000
0CFFFFFFFFFEDCCCDEFF700000
02DFFFFFFFFFFFFFFFE5000000
0019EFFFFFFFFFFFFB20000000
000016ACEFFFEDA72000000000
ENDCHAR
STARTCHAR p
ENCODING 112
SWIDTH 782 0
DWIDTH 25 0
BBX 24 28 1 -4
BITMAP
000045555555555555552000
0006D0000000000000003500
008FD0000000000000000160
0AFFD0000000000000000051
6FFFD0004555555555100005
8FFFD0005000000000430005
8FFFD0005000000000050005
8FFFD0005000EFFD20041005
8FFFD0005000EFFF70023005
8FFFD0005000EFFF70023005
8FFFD0005000EFFF70023005
8FFFD0005000CDDC20041005
8FFFD0005000000000050005
8FFFD0005000000000440005
8FFFD0006555555555100032
8FFFD0005000000000000050
8FFFD0005000000000000500
8FFFD0005000000011478000
8FFFD0005000DFFFFFF70000
8FFFD0005000DFFFFF600000
8FFFD0005000DFFFD4000000
8FFFD0003000BA9500000000
8FFFD0000000500000000000
8FFFE1000000500000000000
8FFFFECCCCCA100000000000
8FFFFFFFFF90000000000000
8FFFFFFFF600000000000000
4EFFFFFD3000000000000000
ENDCHAR
STARTCHAR q
ENCODING 113
SWIDTH 837 0
DWIDTH 27 0
BBX 25 31 1 -7
BITMAP
00000000355555555555300000
00000036300000000000363000
00000530000000000000004400
00008600002555555510000510
001BE000064000000055000050
01CFA000510000000002400050
0CFF9000500000000000500050
6FFF80005000AEFE9000500050
AFFF80005003FFFFF200500050
DFFF80005003FFFFF300500050
EFFF80005003FFFFF300500050
EFFF800050039FFFF300500050
EFFF800050036FFFF300500050
EFFF800050036FFFF300500050
EFFF800050036FFFF300500050
EFFF800050036FFFF300500050
EFFF800050036FFFF300500050
EFFF800050027FFFF200500050
EFFF900050006BCB6000500050
EFFFB000510000000002400050
DFFFF100064000000045000130
CFFFF900002555655510000600
AFFFFF80000000500000016100
6FFFFFFD730000500003891000
1DFFFFFFFFC0001000EF800000
04FFFFFFFFD0000000E6000000
003DFFFFFFE200000250000000
00005AEFFFFFFFFFF600000000
0000009FFFFFFFFE4000000000
0000009FFFFFFFD20000000000
0000003CCCCCC9100000000000
ENDCHAR
STARTCHAR r
ENCODING 114
SWIDTH 843 0
DWIDTH 27 0
BBX 26 28 1 -4
BITMAP
00004555555555555555400000
0006D000000000000000260000
008FD000000000000000015000
0AFFD000000000000000005000
6FFFD000555555555300003200
8FFFD000500000000250001400
8FFFD000500022200041000500
8FFFD0005000DFFA0013000500
8FFFD0005000DFFE0004001400
8FFFD0005000DFFE0004004200
8FFFD0005000DFF90023006000
8FFFD000500000000041046000
8FFFD000500000000160000510
8FFFD000644444445744000050
8FFFD000500000000001600032
8FFFD000500000000000140004
8FFFD000500000000000050005
8FFFD0005000DFFFF800050005
8FFFD0005000DFFFFC00050005
8FFFD0005000DFFFFC00050005
8FFFD0005000CFFFFC00050005
8FFFD00020005BFFFC00030005
8FFFD000000059FFFC00000005
8FFFE100000159FFFD00000014
8FFFFECCCCCA19FFFFECCCCC80
8FFFFFFFFF8009FFFFFFFFF600
8FFFFFFFE50009FFFFFFFE4000
4EFFFFFC300005EFFFFFC20000
ENDCHAR
STARTCHAR s
ENCODING 115
SWIDTH 750 0
DWIDTH 24 0
BBX 24 28 0 -4
BITMAP
000000004555555555555620
000000251000000000000050
000004600000000000000050
00005C000000000000000050
0007F8000045555555510050
008FF5000510000000000050
04FFF5001400000000000220
0BFFF50032003EEEEEEEE500
0FFFF50032004FFFFFFE3000
2FFFF5003200013579C71000
2FFFF5002300000000015500
2FFFF8000610000000000150
2FFFFD000045553000000041
2FFFFF800000002555300005
1FFFFFFC4100000000340005
0DFFFFFFFFC9753000050005
08FFFFFFFFFFFFFB00050005
00BFFFFFFFFFFFFB00050005
0006D8000000000000050005
0004E5000000000000050005
006FF5000000000000610023
08FFF5004555555555000050
1FFFF5000000000000000520
2FFFF6000000000000048200
2FFFFFCCCCCCCCCCCDFB1000
2FFFFFFFFFFFFFFFFF900000
2FFFFFFFFFFFFFFFE6000000
0CFFFFFFFFFFFEC820000000
ENDCHAR
STARTCHAR t
ENCODING 116
SWIDTH 756 0
DWIDTH 24 0
BBX 25 28 0 -4
BITMAP
00006555555555555555555600
00099000000000000000000410
01AF9000000000000000000310
1CFF9000000000000000000310
AFFF9003555555655555400310
DFFF9000000000500000000310
DFFFB000000000500000000400
DFFFFDCCCC50005001CCCCB200
DFFFFFFFFF70005001FFFC1000
DFFFFFFFFF70005001FFB10000
8FFFFFFFFF70005001F9000000
000000FFFF7000500140000000
000000FFFF7000500140000000
000000FFFF7000500140000000
000000FFFF7000500140000000
000000FFFF7000500140000000
000000FFFF7000500140000000
000000FFFF7000500140000000
000000FFFF7000500140000000
000000FFFF7000500140000000
000000FFFF7000500140000000
000000FFFF7000100140000000
000000FFFF7000000140000000
000000FFFF8000000320000000
000000FFFFFDCCCCC600000000
000000FFFFFFFFFE4000000000
000000FFFFFFFFD20000000000
000000AFFFFFFB100000000000
ENDCHAR
STARTCHAR u
ENCODING 117
SWIDTH 846 0
DWIDTH 27 0
BBX 25 28 1 -4
BITMAP
00005555555520001655555550
0008B00000005002C500000050
01AFB0000000503DF500000050
1CFFB000300054EFF500210050
9FFFB00050005EFFF500410050
BFFFB00050006FFFF500410050
BFFFB00050006FFFF500410050
BFFFB00050006FFFF500410050
BFFFB00050006FFFF500410050
BFFFB00050006FFFF500410050
BFFFB00050006FFFF500410050
BFFFB00050006FFFF500410050
BFFFB00050006FFFF500410050
BFFFB00050006FFFF500410050
BFFFB00050006FFFF500410050
BFFFB00050006FFFF500410050
BFFFB00050006FFFF500410050
BFFFB00050007FFFE200410050
BFFFC000500002431000500050
BFFFE000230000000001500050
AFFFF400045100000046000140
9FFFFC10001455555520000600
6FFFFFC3000000000000016100
2FFFFFFFB62000000015990000
09FFFFFFFFFFDDCCDEFF700000
00BFFFFFFFFFFFFFFFE5000000
0007EFFFFFFFFFFFFB20000000
0000059CEFFFEDB72000000000
ENDCHAR
STARTCHAR v
ENCODING 118
SWIDTH 830 0
DWIDTH 27 0
BBX 26 28 0 -4
BITMAP
00000655555560000365555554
0001C600000023004E00000005
002DF60000002305FF00000005
03EFF6000300237FFF00030005
0EFFF600050028FFFF00050005
1FFFF60005002AFFFF00050005
1FFFF60005002AFFFF00050005
1FFFF60005002AFFFF00050005
1FFFF60005002AFFFF00050005
1FFFF60005002AFFFF00050005
1FFFF60005002AFFFF00050005
1FFFF70005001BFFFE00050005
1FFFF90005000BFFFA00050005
1FFFFD00050007FFF500050032
0FFFFF40042002FFF100510050
0EFFFFA0006000DFB000600050
0BFFFFE10060008F6002400410
06FFFFF6002400291006000500
01FFFFFC000600000005001300
00AFFFFF300410000042005000
004FFFFF800060000050004000
000DFFFFE00025555500031000
0007FFFFF50000000000040000
0002FFFFFC0000000000230000
0000BFFFFFECCCCCCCCC500000
00005FFFFFFFFFFFFFE3000000
00000EFFFFFFFFFFFC20000000
000005EFFFFFFFFFA100000000
ENDCHAR
STARTCHAR w
ENCODING 119
SWIDTH 931 0
DWIDTH 30 0
BBX 28 28 1 -4
BITMAP
0000655555560000000165555554
0009900000032000002C40000005
01BF90000003200003DF40000005
2DFF9000300320004EFF40030005
BFFF900050032001EFFF40050005
DFFF900050032003FFFF40050005
DFFF900050032003FFFF40050005
DFFF900050032003FFFF40050005
DFFF900050032056ADFF40050005
DFFF90005003390000BF40050005
DFFF90005003D600004F40050005
DFFF90005003E100000D40050005
DFFF900050039000000740050005
DFFF900050033025520140050005
DFFF900050000050050000050005
DFFFA00050000410014000050005
DFFFB00050000500005000050005
DFFFE00050003202102400050005
CFFFF3005000500CB00500050031
CFFFF8003203202FF10230130040
AFFFFD000506006FF50060410040
6FFFFF40045100BFFA0015400410
1FFFFF90000001FFFE0000000400
0BFFFFE2000006FFFF5000002300
06FFFFFECCCCCEFFFFFDCCCC5000
01FFFFFFFFFC2AFFFFFFFFE40000
00AFFFFFFFA105FFFFFFFD200000
002DFFFFE80001BFFFFFB1000000
ENDCHAR
STARTCHAR x
ENCODING 120
SWIDTH 837 0
DWIDTH 27 0
BBX 25 28 1 -4
BITMAP
00005555555600001655555540
0009900000032001C300000050
00AF90000003201CF300000050
1BFF9000000321CFF300000050
AFFF900050023CFFF200500050
DFFFA00050007FFFE000500050
DFFFC00050005FFF5000600050
DFFFF20033000BFB0003200420
CFFFFB00051002820015000600
BFFFFF60006000000050005100
8FFFFFE2002400000420024000
2FFFFFFB000420001400060000
07FFFFFF300075557000420000
00BFFFF9000510001400060000
002EFFC1003300000320015000
0006FE20015000000051003300
0009F600060005C50005000510
005FD00051002EFE2001400050
02EFA0005000CFFFB000600050
0CFF90005003FFFFF200500050
6FFF90005004FFFFF300500050
BFFF90002004FFFFF300200050
CFFF900000048FFFF300000050
DFFFA00000055FFFF400000050
DFFFFDCCCCC54FFFFECCCCCB20
DFFFFFFFFE404FFFFFFFFFA100
CFFFFFFFC2004FFFFFFFF80000
8FFFFFFA10001DFFFFFE500000
ENDCHAR
STARTCHAR y
ENCODING 121
SWIDTH 805 0
DWIDTH 26 0
BBX 26 28 0 -4
BITMAP
00002655555540000555555560
0003E200000050007B00000032
005EF20000005009FB00000032
06FFF200300051BFFB00030032
3FFFF200500058FFFB00050032
5FFFF20050005BFFFB00050032
5FFFF20050005BFFFB00050032
5FFFF20050005BFFFA00050032
5FFFF20050003CFFF500050041
5FFFF30014000AFFC000410050
5FFFF700051002EF3001400060
5FFFFE10005000340006000240
4FFFFFA0002400000041000600
2FFFFFF6000410000230005100
0CFFFFFE200050001500033000
04FFFFFFC00005654000150000
008FFFFFF80000320000600000
000CFFFFFF4000320004200000
0002EFFFFFE100320014000000
00006FFFFFF400320041000000
00000AFFFFF400320041000000
000001DFFFF400110041000000
0000005FFFF400000041000000
0000003FFFF500000050000000
0000003FFFFFCCCCCB40000000
0000003FFFFFFFFFD200000000
0000003FFFFFFFFB1000000000
0000001CFFFFFF900000000000
ENDCHAR
STARTCHAR z
ENCODING 122
SWIDTH 760 0
DWIDTH 24 0
BBX 24 28 0 -4
BITMAP
000005555555555555555560
00007B000000000000000041
0008FB000000000000000041
00AFFB000000000000000041
08FFFB002555555555510041
0BFFFB000000000000050041
0BFFFD000000000000330041
0BFFFFECCCCCC50001500050
0BFFFFFFFFFFA00006000240
0BFFFFFFFFFC000051001500
06EFFFFFFFE2000330006000
000000007F30002500051000
00000005F600006000420000
0000003E8000060002400000
000001DB0000420015000000
00000BD10003400060000000
00009E300015000510000000
0006F7000060002755555552
004FF3000510000000000005
02EFF2002300000000000005
0BFFF2005000000000000005
3FFFF2001555555555552005
4FFFF2000000000000000005
4FFFF4000000000000000004
4FFFFECCCCCCCCCCCCCCCC80
4FFFFFFFFFFFFFFFFFFFF800
4FFFFFFFFFFFFFFFFFFF6000
1DFFFFFFFFFFFFFFFFE40000
ENDCHAR
STARTCHAR braceleft
ENCODING 123
SWIDTH 555 0
DWIDTH 18 0
BBX 19 33 -1 -6
BITMAP
00000000000355555500
00000000045200000410
00000000720000000320
0000001A500035500320
000002CC000530000320
00003EF8000500000320
0001EFF6002300046800
0008FFF60023004FB100
000CFFF6002300580000
000FFFF6002300500000
001FFFF6002300500000
001FFFC2002300500000
001FFB00045100500000
001FF600140001600000
006FF5003202DA000000
06FFF500230035400000
0EFFF800061000500000
1FFFFF60005200500000
2FFFFFF6002300500000
1FFFFFF6002300500000
0AFFFFF6002300500000
019FFFF6002300410000
001FFFF6002300155500
001FFFF7001400000410
001FFFFA000600000320
001FFFFE100440000320
001FFFFF700025500320
000EFFFFF50000000320
000BFFFFFFB510000400
0006FFFFFFFFFEDCB300
0000BFFFFFFFFFFD2000
00001AFFFFFFFFC10000
00000038CEFFFA100000
ENDCHAR
STARTCHAR bar
ENCODING 124
SWIDTH 447 0
DWIDTH 14 0
BBX 12 34 1 -6
BITMAP
000025555554
0003B0000005
005EC0000004
07FFC0000004
6FFFC0005004
AFFFC0005004
AFFFC0005004
AFFFC0005004
AFFFC0005004
AFFFC0005004
AFFFC0005004
AFFFC0005004
AFFFC0005004
AFFFC0005004
AFFFC0005004
AFFFC0005004
AFFFC0005004
AFFFC0005004
AFFFC0005004
AFFFC0005004
AFFFC0005004
AFFFC0005004
AFFFC0005004
AFFFC0005004
AFFFC0005004
AFFFC0005004
AFFFC0005004
AFFFC0001004
AFFFC0000004
AFFFE1000005
AFFFFFFFFFD2
AFFFFFFFFB10
AFFFFFFF9000
4CCCCCC60000
ENDCHAR
STARTCHAR braceright
ENCODING 125
SWIDTH 555 0
DWIDTH 18 0
BBX 18 33 0 -6
BITMAP
000005555552000000
0001B3000002530000
002CF2000000034000
03DFF2005520006100
2EFFF2000034000600
5FFFF2000005000500
5FFFF5000004000500
5FFFFFFD1004100500
5FFFFFFF3004100500
5FFFFFFF4004100500
1BDFFFFF4004100500
0005FFFF4004100430
0003FFFF4002510034
0003FFFF7000050005
0003FFFFFA70031005
0003FFFFFB81031005
0002FFFF7000050005
0000CFFF4002520023
00000BFF4004100550
0000AFFF4004100500
0001FFFF4004100500
0003FFFF3004100500
0003FFFD1004100500
0003F5000005000500
0006F2000005000500
008FF2000053001500
0AFFF2005520006000
4FFFF2000000053000
5FFFF4000015920000
5FFFFEDCDEFB100000
5FFFFFFFFFA0000000
5FFFFFFFE700000000
2DFFEDB71000000000
ENDCHAR
STARTCHAR asciitilde
ENCODING 126
SWIDTH 834 0
DWIDTH 27 0
BBX 25 12 1 4
BITMAP
00000014555554200000025500
00001641000001355445530320
0002C100000000000000000140
004EE001555555310000000140
06FFE000000000245555600140
4FFFE000000000000000000320
8FFFE002688754200000015700
8FFFFDDFFFFFFFFFDBAACE7000
8FFFFFFFFFFFFFFFFFFFE40000
8FFFFFFFFFFFFFFFFFFD200000
4ED9533468ACEFFFEB61000000
00000000000001210000000000
ENDCHAR
STARTCHAR uni00A0
ENCODING 160
SWIDTH 325 0
DWIDTH 10 0
BBX 1 1 0 0
BITMAP
00
ENDCHAR
STARTCHAR exclamdown
ENCODING 161
SWIDTH 523 0
DWIDTH 17 0
BBX 14 28 1 -4
BITMAP
00000655555555
0001C600000005
002DF600000005
03EFF600000005
0EFFF600050005
1FFFF600010005
1FFFF800000005
1FFFFFEDDDDDC2
1FFFFFFFFFFE40
0FFFFE20000024
0BFFFC00000005
002CFB00000005
02DFFB00040005
09FFFA00050005
0AFFFA00050005
0AFFF900050005
0BFFF900050005
0CFFF800050005
0CFFF800050005
0DFFF700050005
0DFFF700050005
0EFFF600000005
0EFFF500000005
0FFFF600000005
1FFFFFCCCCCCB3
1FFFFFFFFFFC20
1FFFFFFFFFB100
0CFFFFFFF90000
ENDCHAR
STARTCHAR cent
ENCODING 162
SWIDTH 728 0
DWIDTH 23 0
BBX 22 31 1 -5
BITMAP
0000000000155555540000
0000000003B00000050000
000000004EC00000041000
00000006FEA00020025552
0000006930000050000005
0000064000000050000005
0000970001555565552005
001BE10026000000000005
01CFB00060000000000005
0CFF900050000000000015
5FFF80005000AFFFFFFF90
AFFF80005002FFFFFFF700
CFFF80005003FFFFFE5000
DFFF80005003DCCCB30000
EFFF800050032000000000
EFFF800050032000000000
EFFF800050023000000000
EFFF800050005555555552
EFFF900050000000000005
EFFFB00050000000000005
DFFFE10025000000000005
CFFFF60001555575552005
9FFFFE3000000050000005
5FFFFFE820000050000003
0DFFFFFFFD900020029950
04FFFFFFFFC0000004F800
005EFFFFFFD00000056000
00029DFFFFFEDDDDC40000
000000AFFFFFFFFD200000
0000009FFFFFFFB1000000
0000005EFFFFF900000000
ENDCHAR
STARTCHAR sterling
ENCODING 163
SWIDTH 795 0
DWIDTH 25 0
BBX 26 28 -1 -4
BITMAP
00000000004555555555561000
00000000361000000000014000
00000005600000000000005000
0000007C000000000000005000
000009F5000045555550005000
0000AFF1001610000000005000
0008FFE0005000000000012000
001EFFD000500039AAAAA30000
004FFFD0005000BFFFFE300000
007FFFD0005000DFFFD2000000
008FF800005000006C10000000
008FF500005000002200000000
02DFF500458554002200000000
0DFFF500005000002235555553
2FFFF500005000003890000005
2FFFFC6000500067BF80000005
2FFFFFD0005000DFFF80011005
2FFFFFD0005000DFFF80032005
1FFFFFD0005000000000032005
06CFFFD0005000000000032005
008FFFD0005000000000032005
008FFFD0005555555555562005
008FFFD0000000000000000005
008FFFE1000000000000000005
008FFFFECCCCCCCCCCCCCCCCA2
008FFFFFFFFFFFFFFFFFFFFB10
008FFFFFFFFFFFFFFFFFFF9000
004EFFFFFFFFFFFFFFFFE60000
ENDCHAR
STARTCHAR currency
ENCODING 164
SWIDTH 921 0
DWIDTH 29 0
BBX 29 29 0 -4
BITMAP
000000002100000000000000210000
000000054620000000000006563000
000000830062000000000084006300
00001A300006355444455A40000630
0001C5000100300000001200100070
001CF8000610000000000001500050
01CFFF700060014555541016000500
0CFFFFF70016430000004360005000
3FFFFFFF6003200000000410050000
09FFFFFF8005000466300050050000
009FFFFF8005007FFFF50050050000
0009FFFF8005009FFFF70050050000
0000DFFF8005009FFFF70050050000
0000DFFF8005009FFFF70050050000
0000DFFF8005009FFFF70050050000
0000DFFF8005009FFFF70050050000
0000DFFF8006003DFFC20060050000
0000DFFF6005200000000420060000
0000DFF70006740000005650017000
0000DF700060025555551016001700
0000D8000600000000000001600160
0009F5000000310000001200000060
008FFE300007FFECCCDEFE40000520
08FFFFE2007FFFFFFFFFFFE3005300
2FFFFFFE47FFFFFFFFFFFFFE463000
1DFFFFFFDDFFFFFFCDFFFFFFD20000
02DFFFFB1001221001DFFFFB100000
002DFF9000000000001DFF90000000
0002A600000000000001A600000000
ENDCHAR
STARTCHAR yen
ENCODING 165
SWIDTH 803 0
DWIDTH 26 0
BBX 26 28 0 -4
BITMAP
00002655555540000555555560
0003E200000050006C00000041
004EF10000005007FC00000041
05FFF1002000508FFC00020041
3FFFF100500057FFFC00050041
5FFFF20050005AFFFC00050041
5FFFF20050005AFFFB00050040
5FFFF30040005AFFFA00140050
5FFFF60014002DFFF400410050
5FFFFD00040007FF9000300150
4FFFFF80003000AC1003000600
3FFFFFF4001200000021005200
0EFFFFFE100200000020024000
07FFFFFFB00020000200060000
00BFFFFBA30000210000455100
002EFFC0000000320000000500
0005FFB0000000320000000500
0007FFB0025555765555100500
007FFFB0000000320000000500
00BFFFD0000000320000001400
00BFFFFEDDD50032006DDD7000
00BFFFFFFFF50011007FF50000
00BFFFFFFFF50000007E300000
005CCCDFFFF700000072000000
0000001FFFFFCCCCCB30000000
0000001FFFFFFFFFC100000000
0000001FFFFFFFF90000000000
0000000BFFFFFE700000000000
ENDCHAR
STARTCHAR brokenbar
ENCODING 166
SWIDTH 447 0
DWIDTH 14 0
BBX 12 34 1 -6
BITMAP
000025555554
0003B0000005
005EC0000004
06FFC0000004
6FFFC0005004
AFFFC0005004
AFFFC0005004
AFFFC0005004
AFFFC0005004
AFFFC0005004
AFFFC0005004
AFFFC0002004
AFFFC0000004
AFFFD0000005
AFFFFECCCCB3
AFFFFFFFFC10
AFFFFBAAA654
5EEFC0000005
004EC0000004
07FFC0002004
6FFFC0005004
AFFFC0005004
AFFFC0005004
AFFFC0005004
AFFFC0005004
AFFFC0005004
AFFFC0005004
AFFFC0000004
AFFFC0000004
AFFFE1000005
AFFFFFFFFFD2
AFFFFFFFFB10
AFFFFFFF9000
4CCCCCC60000
ENDCHAR
STARTCHAR section
ENCODING 167
SWIDTH 750 0
DWIDTH 24 0
BBX 24 28 0 -4
BITMAP
000000002555555555555620
000000063000000000000050
000001800000000000000050
00002D200025555555510050
0004EB000430000000000050
004FF7001400000000000320
02EFF60041004DFFFFFFE400
08FFF50050006AAABCFE3000
0DFFF5005000000000045100
0FFFF5005555555555100620
1FFFF5005000000000520060
2FFFF6005000232000050041
2FFFF8003200AFFD10023004
2FFFFD0006004EFF30004004
1FFFFF500350000000005005
0FFFFFE30015555555555005
0CFFFFFE8200000000005005
07FFFFFFFFECBAAA20005005
01DFFFFFFFFFFFFB00014005
003DFD100000000000051014
0002EA000000000000440051
003EFA002555555555200060
04EFFA000000000000000610
0BFFFC000000000000268100
0CFFFFDCCCCCCCCCDEF80000
0CFFFFFFFFFFFFFFFE500000
0BFFFFFFFFFFFFFFD3000000
07FFFFFFFFFFECA500000000
ENDCHAR
STARTCHAR dieresis
ENCODING 168
SWIDTH 600 0
DWIDTH 19 0
BBX 21 11 -1 20
BITMAP
0000055555550455555500
0001A40000057800000140
001CF3000004F700000050
02DFF3005004F700500050
1EFFF3002004F700200050
4FFFF3000004F700000050
4FFFF6000007FA00000320
4FFFFFFFFFFFFFFFFFE400
4FFFFFFFFFFFFFFFFD3000
3FFFFFFFAEFFFFFFC20000
0ACCCCC707CCCCCA100000
ENDCHAR
STARTCHAR copyright
ENCODING 169
SWIDTH 967 0
DWIDTH 31 0
BBX 29 34 1 -6
BITMAP
000000000014555555555410000000
000000005641000000000145510000
000000361014555555555410054000
000004503651000000000156404300
000079054027ACEEFEEDA720360600
0009F24309FFFFFFFFFFFFFA124150
00AFD0509FFFFFEDDDDDDDFFA05050
09FFA051FFFF7200000000BFF25050
2FFF905362530000000000AFF44150
7FFF905327A00144444410AFF44150
AFFF9053BF600600000000BFF44150
CFFF9053FF503202CCCCCDFFF44150
DFFF9053FF404007FFFFDFFFF44150
DFFF9053FF404007FFFA3FFFF44150
DFFF9053FF404007FF702FFFF44150
DFFF9053FF40400500002FFFF44150
DFFF9053FF40400500002FFFF44150
DFFF9053FF40400500002FFFF44150
DFFF9053FF40400255555BFFF44150
DFFF9053FF503200000000AFF44150
DFFF9053FF800600000000AFF44150
DFFF9053FFD10155555520AFF44150
DFFF9053FFFB1000000000AFF44150
DFFFB051FFFFEA76666666EFF25050
DFFFE050AFFFFFFFFFFFFFFFB05050
CFFFF4331AFFFFFFFFFE6FFB133230
AFFFFC054027ACEEFFE75730450500
7FFFFFA03651000000000256205100
2FFFFFFD5004555555555300471000
0AFFFFFFFEA642100012369D900000
01DFFFFFFFFFFFFFFFFFFFF7000000
001BFFFFFFFFFFFFFFFFFE40000000
00005BFFFFFFFFFFFFFE8100000000
000000258ABCCCCA96300000000000
ENDCHAR
STARTCHAR ordfeminine
ENCODING 170
SWIDTH 620 0
DWIDTH 20 0
BBX 20 28 0 -4
BITMAP
00000005555555554000
00000096000000005000
00001BF1000000001300
0002CFB0024445000500
000CFF60040000400400
003FFF10220220400140
008FFA00400B90040050
00EFF500401FE0050040
04FFF104106FF4023014
09FFE004003552005005
0EFFD004000000004005
4FFFC006444444446005
7FFFC004000000004005
9FFFC004005554004005
9FFFC00400EFFC004005
9FFFC00200EFFC002005
9FFFD00000EFFC000005
9FFFF75558FFFF755563
9FFFFFFFDCFFFFFFFE30
9FFFFCAA68AAAAAAA651
6FFFD000000000000005
01BFC004444444444005
1BFFC000000000000005
7FFFE000000000000004
9FFFFECCCCCCCCCCCC80
9FFFFFFFFFFFFFFFF800
9FFFFFFFFFFFFFFF5000
4EFFFFFFFFFFFFD30000
ENDCHAR
STARTCHAR guillemotleft
ENCODING 171
SWIDTH 912 0
DWIDTH 29 0
BBX 29 21 0 -1
BITMAP
000000000000002400000000003200
000000000004553150000014553600
000000004551000050015541000410
000000461000000050550000000410
000007300001420058200001410410
0001A90005541000C7000554000410
002CF60051000001E3006100000500
02DFF4005000038DF2005000159300
0AFFF4005005EFFFF200500BFC2000
0FFFF40050029DFFF2005006A51000
2FFFF50050000028F2005000004500
3FFFF60045000000D4005400000500
3FFFFB0001555100C9000255400410
2FFFFF7000000100CF500000110410
2FFFFFFC50000000CFFB4000000410
0EFFFFFFFEA62000CFFFFEA6100410
07FFFFFFFFFFFD86EFFFFFFFFC8600
008FFFFFFFFFFFFFFFFFFFFFFF9000
00029DFFFFFFFD349EFFFFFFF70000
00000037BFFFC1000038CFFE500000
000000000156000000000152000000
ENDCHAR
STARTCHAR logicalnot
ENCODING 172
SWIDTH 834 0
DWIDTH 27 0
BBX 25 18 1 -2
BITMAP
00001555555555555555555500
0003C000000000000000000230
005EE000000000000000000140
08FFE001555555555555600140
6FFFE000000000000000410140
8FFFF100000000000000410140
8FFFFEDDDDDDDDDDD800410140
8FFFFFFFFFFFFFFFFA00410140
8FFFFFFFFFFFFFFFFA00410140
4EFFFFFFFFFFFFFFFA00410140
0000000000000CFFFA00410140
0000000000000CFFFA00100140
0000000000000CFFFA00000140
0000000000000CFFFB00000330
0000000000000CFFFFDCCCC700
0000000000000CFFFFFFFF5000
0000000000000CFFFFFFE30000
00000000000007FFFFFC200000
ENDCHAR
STARTCHAR uni00AD
ENCODING 173
SWIDTH 520 0
DWIDTH 17 0
BBX 17 11 0 4
BITMAP
000015555555555500
0002C0000000000320
004EE0000000000220
06FFE0015555500220
4FFFE0000000000220
7FFFE0000000000220
7FFFF1000000000410
7FFFFECCCCCCCCC600
7FFFFFFFFFFFFE4000
7FFFFFFFFFFFD20000
3EFFFFFFFFFB100000
ENDCHAR
STARTCHAR registered
ENCODING 174
SWIDTH 660 0
DWIDTH 21 0
BBX 20 21 1 3
BITMAP
0000003AAAAAAAAA6000
000007A39CEEEDA56A10
0001A73FFFFFFFFF6660
003DA58B000002AFC550
05EF759A0655501FD531
4FFF759A044A150ED532
BFFF759A046F251FD532
EFFF759A0400054DD532
FFFF759A08557614D532
FFFF759A04254051D532
FFFF759A046FE051D532
FFFF759A036FE031D532
FFFF858C449FF546D532
FFFFA55FFFFFFFFF7650
EFFFF368ADEFFEB87270
EFFFFE73555555535910
BFFFFFFFCA999ACE8000
4FFFFFFFFFFFFFE50000
07FFFFFFFFFFFD300000
003AEFFFFFFD81000000
00000244431000000000
ENDCHAR
STARTCHAR macron
ENCODING 175
SWIDTH 600 0
DWIDTH 19 0
BBX 19 10 0 20
BITMAP
00001555555555555520
0002C000000000000050
003EE000000000000050
05EFE001555555520050
4FFFE000000000000050
7FFFF300000000000150
7FFFFFFFFFFFFFFFF900
7FFFFFFFFFFFFFFF7000
7FFFFFFFFFFFFFE50000
2BCCCCCCCCCCCB300000
ENDCHAR
STARTCHAR degree
ENCODING 176
SWIDTH 583 0
DWIDTH 19 0
BBX 18 18 0 6
BITMAP
000000255555555510
000005400000000053
000086003555552005
001BF3033000004205
02CFF2050000000504
0CFFF20501DFC00504
3FFFF20503FFF00504
5FFFF20503FFF00504
5FFFF20502FFF00504
5FFFF2050067500504
5FFFF3033000004205
5FFFF7003555552005
4FFFFE500000000051
2FFFFFFD976667AA10
0DFFFFFFFFFFFF9000
04EFFFFFFFFFF60000
002AEFFFFFFB300000
000003444200000000
ENDCHAR
STARTCHAR plusminus
ENCODING 177
SWIDTH 834 0
DWIDTH 27 0
BBX 25 28 1 -4
BITMAP
00000000000655555500000000
0000000000A500000500000000
000000000AF400000500000000
00000000AFF400000500000000
00000009FFF400500500000000
0000002FFFF400500500000000
0000002FFFF400500500000000
0000156AAAA300500455555500
0002C000000000500000000230
003DE000000000500000000140
04EFE001555555855555500140
3FFFE000000000500000000140
8FFFE000000000500000000240
8FFFF977777200500377777A10
8FFFFFFFFFF4005007FFFFE400
8FFFFFFFFFF4005007FFFD3000
8FFFFFFFFFF4005007FFC20000
3DEEEEEFFFF4001006EA100000
0000155AAAA300000455555500
0003C000000000000000000230
005EE000000000000000000140
08FFE001555555555555500140
6FFFE000000000000000000140
8FFFF100000000000000000330
8FFFFECCCCCCCCCCCCCCCCC800
8FFFFFFFFFFFFFFFFFFFFF6000
8FFFFFFFFFFFFFFFFFFFE40000
4EFFFFFFFFFFFFFFFFFC200000
ENDCHAR
STARTCHAR twosuperior
ENCODING 178
SWIDTH 585 0
DWIDTH 19 0
BBX 18 21 0 3
BITMAP
000007555555555620
00009D000000000052
001BFC004444452005
02DFFC000000006005
09FFFF644444004105
09FFFFFFFFFF304105
09FFFFFFFD83005005
09FFFFE82000144005
02888D300145400024
0000A6015400000460
001CF205000016B500
02DFF004005CFE4000
0CFFE004008AA75555
3FFFE0040000000005
6FFFE0044444444205
7FFFE0000000000005
7FFFF2000000000006
7FFFFFFFFFFFFFFFD3
7FFFFFFFFFFFFFFC10
7FFFFFFFFFFFFFA000
3CCCCCCCCCCCC70000
ENDCHAR
STARTCHAR threesuperior
ENCODING 179
SWIDTH 584 0
DWIDTH 19 0
BBX 19 21 0 3
BITMAP
00003855555555620000
0004E400000000051000
006FF403444450005000
09FFF400000005005000
3FFFF600000004005000
3FFFFFFFFFF204005000
3FFFFFFDBBB104014000
3FFFFFF3000005073000
0677DFF2034564202500
0009FFF2000000320500
004FFFF5000000040320
005FFFFFFFFF90040230
005FFFFFFFFF90040230
003FF600000000330320
004FF403444444300500
06FFF400000000001600
2FFFF600000000157000
3FFFFFFFFFFFFFF70000
3FFFFFFFFFFFFE500000
3FFFFFFFFFFFD3000000
1BCCCCCCCCB600000000
ENDCHAR
STARTCHAR acute
ENCODING 180
SWIDTH 600 0
DWIDTH 19 0
BBX 19 12 0 20
BITMAP
00000000000000000100
00000000024555555450
00001555531000000050
0002C000000000000050
003EE000345555520050
05FFE000200000000050
4FFFE000000000246730
7FFFF32468ABDFFFD300
7FFFFFFFFFFFFFFC1000
7FFFFFFFFFFFFFA00000
7FFFFFFFECA863000000
2AA86421000000000000
ENDCHAR
STARTCHAR mu
ENCODING 181
SWIDTH 813 0
DWIDTH 26 0
BBX 24 26 1 -7
BITMAP
000035555555000045555554
0005A0000003300890000005
007F9000000232CF80000004
0AFF900050027EFF80014004
9FFF90005002FFFF80014004
CFFF90005002FFFF80014004
CFFF90005002FFFF80014004
CFFF90005002FFFF80014004
CFFF90005002FFFF80014004
CFFF90005002FFFF80014004
CFFF90005002FFFF80014004
CFFF90005002FFFF80014004
CFFF90005000EFFF60014005
CFFF90008000378600041005
CFFF90008200000000060006
CFFF90005440000002610006
CFFF90005015555553000062
CFFF90005000000000001850
CFFF9000200031112369D400
CFFF90000002FFFFFFFC2000
CFFFA0000002FFFFFFB10000
CFFFE766666AFFFFE7000000
CFFFFFFFFFFFEDA610000000
CFFFFFFFF800000000000000
BFFFFFFF6000000000000000
277777730000000000000000
ENDCHAR
STARTCHAR paragraph
ENCODING 182
SWIDTH 782 0
DWIDTH 25 0
BBX 24 28 0 -4
BITMAP
000000014455555555555554
000000540000000000000005
000008200000000000000005
0000A8000000000000000005
001CF2000255555555554005
01DFE0004300000000005005
0BFFC0014000000000005005
3FFFC0041000000000005005
7FFFC0050000000000005005
9FFFC0050000000000005005
AFFFC0050000000000005005
AFFFC0041000000000005005
AFFFE0024000000000005005
AFFFF2005300000000005005
AFFFF7000255755555556005
9FFFFE200000500000005005
7FFFFFE60000500000005005
3FFFFFFFE700500262005005
0CFFFFFFFB005005F5005005
02EFFFFFFB005005F5005005
0029EFFFFB005005F5005005
00000CFFFB001005F5001005
00000BFFFB000005F5000005
00000BFFFC000006F6000004
00000BFFFFDCCCCFFFCCCC81
00000BFFFFFFFFFFFFFFF800
00000BFFFFFFCFFFFFFF6000
000006FFFFF80CFFFFD40000
ENDCHAR
STARTCHAR periodcentered
ENCODING 183
SWIDTH 464 0
DWIDTH 15 0
BBX 15 13 0 3
BITMAP
0000055555555500
0001B30000000230
003DF20000000230
05EFF20005000230
3FFFF20005000230
5FFFF20005000230
5FFFF20000000230
5FFFF20000000230
5FFFF30000000320
5FFFFECCCCCCC700
5FFFFFFFFFFE5000
5FFFFFFFFFD30000
1DFFFFFFFB100000
ENDCHAR
STARTCHAR cedilla
ENCODING 184
SWIDTH 600 0
DWIDTH 19 0
BBX 15 14 2 -8
BITMAP
0000000044100000
0000001A10443000
000002D900001610
00004EF300400410
0004FFD000400500
000AFF7004101500
001FFF2005005100
006FFB0002005000
00CFF60000014000
02FFF30000060000
08FFFEDDDDC30000
0DFFFFFFFC100000
3FFFFFFFA1000000
2EFFFFE700000000
ENDCHAR
STARTCHAR onesuperior
ENCODING 185
SWIDTH 557 0
DWIDTH 18 0
BBX 18 21 0 3
BITMAP
000007555555563000
0001BA000000005000
002CFA014443005000
03EFFA000004005000
0BFFFC211004005000
0CFFFFFFA004005000
0CFFFFFFA004005000
0CFFFFFFA004005000
06BBEFFFA004005000
0000CFFFA004005000
0000CFFFA004005000
0000CFFFA004005000
0000CDAA6004006561
0003E4000004000005
004EF3034445444005
06FFF3000000000005
2FFFF6000000000024
4FFFFFFFFFFFFFFF90
4FFFFFFFFFFFFFF600
3FFFFFFFFFFFFE4000
1BCCCCCCCCCCB20000
ENDCHAR
STARTCHAR ordmasculine
ENCODING 186
SWIDTH 625 0
DWIDTH 20 0
BBX 20 28 0 -4
BITMAP
00000004555555555100
00000261000000001630
00004900000000000060
0005F300045445510014
008FF000600000061005
08FFE005006EE9005005
2FFFE00400AFFD004005
6FFFE00400AFFD004005
8FFFE00400AFFD004005
8FFFE00400AFFD004005
8FFFE00400AFFD004005
8FFFE00400AFFD004005
8FFFE004007EF9004005
8FFFE004000000005005
8FFFF100600000051005
8FFFF700044444510041
7FFFFF60000000000340
6FFFFFFC74222247B400
2FFFFFFFFFFFFFFD3000
09FFFCAAAAAAAAA65551
006EE000000000000005
007FE004444444444005
09FFE000000000000005
5FFFF100000000000005
8FFFFECCCCCCCCCCCC91
8FFFFFFFFFFFFFFFF800
7FFFFFFFFFFFFFFF6000
3EFFFFFFFFFFFFD40000
ENDCHAR
STARTCHAR guillemotright
ENCODING 187
SWIDTH 912 0
DWIDTH 29 0
BBX 28 21 1 -1
BITMAP
0000263000000000662000000000
0004A2588510001A426874000000
006F9000037852CF200004784000
08FF900000003CFF200000004910
8FFF9004410000AF200540000170
CFFF90001453002F200015620042
DFFFC0000004200D500000060005
DFFFFC720001400CE95100032005
DFFFFFFFD300500CFFFF90032005
CFFFFFFC8100500CFFEA40032005
5EFFF6100002300CC40000041005
004EA0000046000E300000560013
01BF90045520004F200555100040
1CFF9000000002DF200000000330
AFFF900000028EFF200000038300
DFFF900048DFFFFF200159DC2000
DFFFD7AEFFC7FFFF97BFFFB10000
DFFFFFFFF915FFFFFFFFF8000000
DFFFFFD93005FFFFFFD820000000
BFFB72000004FFEA620000000000
2410000000005400000000000000
ENDCHAR
STARTCHAR onequarter
ENCODING 188
SWIDTH 1303 0
DWIDTH 42 0
BBX 41 28 0 -4
BITMAP
000007555555562000001655555200000000000000
0000AA00000000500000B200000500000000000000
001BFA0000000050000AE000001400000000000000
01CFFA0144430050009FC000004200000000000000
0AFFFA000004005008FF9004006000000000000000
0CFFFD21100400503FFF6005006000000000000000
0CFFFFFFA00400506FFF3005006000000000000000
0CFFFFFFA00400509FFF1005006655555006555550
0AFFFFFFA0040050CFFD002302E5000052C6000050
0133DFFFA0040050EFFA005005F402106EF6011050
0000CFFFA0040052FFF8005008F404107FF6032050
0000CFFFA0040055FFF500500AF404107FF6032050
0000CFFFA0040057FFF200500DF404107FF6032050
0000CDAA60040068CFE001401FF404107FF6032050
0003E400000400000EC004103FF404107FF6032050
004EF303444544400E9005006FF403201562032050
06FFF300000000000E7005009FF501500000032050
2FFFF600000000002F400500BFF700254444462050
4FFFFFFFFFFFFFFFFF100400EFFC00000000032050
4FFFFFFFFFFFFFFFFE003202FFFF91000000032050
3FFFFFFFFFFFFBFFFB005004FFFFFFDDCCC5032050
1BCCCCCCCCCCA5FFF8002007FFFFFFFFFFF6032050
00000000000007FFF6000009FFFFFFFFFFF6000050
0000000000000AFFF50000046CEFFFFFFFF7000050
0000000000000CFFFFCCCC800000001FFFFFCCCC40
0000000000000FFFFFFFF7000000001FFFFFFFE300
0000000000002FFFFFFF50000000001FFFFFFC2000
0000000000001CFFFFD300000000000CFFFFA10000
ENDCHAR
STARTCHAR onehalf
ENCODING 189
SWIDTH 1260 0
DWIDTH 40 0
BBX 40 28 0 -4
BITMAP
0000075555555620000016555552000000000000
0000AA00000000500000B2000005000000000000
001BFA0000000050000AE0000014000000000000
02CFFA0144430050009FC0000042000000000000
0AFFFA000004005008FF90040050000000000000
0CFFFD21100400503FFF60050060000000000000
0CFFFFFFA00400506FFF30050060000000000000
0CFFFFFFA00400509FFF10050066555555556200
0AFFFFFFA0040050CFFD002202E7000000000540
0022DFFFA0040050EFFA005005F6025555550041
0000CFFFA0040052FFF8005008F6000000015004
0000CFFFA0040055FFF500500AF8000000005005
0000CFFFA0040057FFF200500DFFDDDDDA005005
0000CDAA60040068CFE002301FFFFFFFC5005005
0003E400000400000EC004003FFFFB6100242015
006FF303444544400E90050059AD300244200051
09FFF300000000000E70050051C3045200000530
3FFFF600000000002F4005007CC004000027B200
4FFFFFFFFFFFFFFFFF101400EF9004018DFB1000
4FFFFFFFFFFFFFFFFE004102FF900402AAA55552
3FFFFFFFFFFFFAFFFB005004FF80040000000005
04555555555534FFF8001007FF80064444444005
00000000000007FFF600000AFF80000000000005
0000000000000AFFF500000DFF90000000000005
0000000000000CFFFFCCCCDFFFFDCCCCCCCCCC91
0000000000000FFFFFFFF8EFFFFFFFFFFFFFF900
0000000000002FFFFFFF60DFFFFFFFFFFFFF7000
0000000000001CFFFFD300AFFFFFFFFFFFE50000
ENDCHAR
STARTCHAR threequarters
ENCODING 190
SWIDTH 1313 0
DWIDTH 42 0
BBX 42 28 0 -4
BITMAP
000027555555566100000555555400000000000000
0002D4000000000600008700000500000000000000
003EF400000000014008F400000600000000000000
04EFF40344445000508FF100000600000000000000
1EFFF5000000050057FFE002302400000000000000
3FFFFEBBBBB104005EFFB004004200000000000000
3FFFFFFFFFF304007FFF8005006000000000000000
3FFFFFF5000004027FFF5005006455556004555560
2FFFFFF200000506AFFF300500BA0000328B000023
0466DFF2011232100BFF001400F900303DFB003023
000AFFF50000002205FC003203F900503FFB005023
004FFFFFFFFF900403FA005006F900503FFB005023
005FFFFFFFFF900402F7005008F900503FFB005023
005FF7000000000402F400500BF900503FFB005023
003FF4000000003303F200500EF900502FFB005023
006FF4034444443006E002301FF900500786005023
08FFF400000000001DB004004FF900600000005023
2FFFF70000000015DF9005007FFB00154444446023
3FFFFFFFFFFFFFEFFF6005009FFF20000000005023
3FFFFFFFFFFFFAAFFF300500CFFFC3000000005023
3FFFFFFFFFFFA0CFFF101400EFFFFFEDCCC9005023
1BCCCCCCCCA500FFFD001102FFFFFFFFFFFB005023
00000000000002FFFA000005FFFFFFFFFFFB000023
00000000000005FFFA0000053AEFFFFFFFFC000033
00000000000008FFFFDCCCA20000000BFFFFDCCC80
0000000000000AFFFFFFFB100000000BFFFFFFF700
0000000000000CFFFFFF90000000000BFFFFFE4000
00000000000008FFFFE7000000000008FFFFD30000
ENDCHAR
STARTCHAR questiondown
ENCODING 191
SWIDTH 756 0
DWIDTH 24 0
BBX 24 28 0 -4
BITMAP
000000000000655555555000
000000000009800000005000
0000000000AF800000005000
000000001BFF800000005000
00000000AFFF800050005000
00000000EFFF800010005000
00000000EFFF800000005000
00000000EFFFD54444446000
00000000EFFFFFECA8660000
00000000DA75310000003000
000000000000000000004000
000002100000000000004000
000057000003556663004000
0008F4000653100000004000
00AFF2002300000000027000
08FFF20032001468ACEC2000
1EFFF20032008FFFFF900000
3FFFF20032003AAAA9555551
5FFFF2003200000000000005
5FFFF4002300000000000005
5FFFF7000610000000000005
5FFFFE100045555555552005
4FFFFFB10000000000000005
3FFFFFFD6100000000000004
0DFFFFFFFFDCCCCCCCCCCC80
05FFFFFFFFFFFFFFFFFFF700
006FFFFFFFFFFFFFFFFF5000
00028CEFFFFFFFFFFFD30000
ENDCHAR
STARTCHAR Agrave
ENCODING 192
SWIDTH 830 0
DWIDTH 27 0
BBX 26 35 0 -4
BITMAP
00000000744444443100000000
0000001BA00000001344440000
000002CFA00000000000004000
00003EFFA00255555430005000
0000BFFFA00000000021005000
0000CFFFE86420000000005000
0000CFFFFFFFFFDBA864243000
0000CFFFFFFFFFFFFFFFF60000
0000BFFFFC2000000000340000
000029BEF40000000000050000
0000001BD00000000000032000
000002CF800035555510005000
00000CFF200330000060005000
00004FFB000500000023001400
0000AFF6001400AF3005000500
0001FFE1005001FF8004200410
0006FF90005005FFD000500050
000CFF4004100AFFF200410050
003FFE0005000EFFF700050032
009FFA00050017777500050005
00EFF700230000000000050005
05FFF600320000000000050005
09FFF600365555555555580005
0DFFF600320000000000050005
0FFFF600320000000000050005
1FFFF60032007CCCCC10050005
1FFFF60032009FFFFF10050005
1FFFF60032009FFFFF10050005
1FFFF60000009FFFFF10000005
1FFFF600000056FFFF10000005
1FFFF800000046FFFF30000005
1FFFFFDCCCC806FFFFECCCCC91
1FFFFFFFFF8006FFFFFFFFF900
0FFFFFFFF70005FFFFFFFF7000
0BFFFFFE500001DFFFFFD40000
ENDCHAR
STARTCHAR Aacute
ENCODING 193
SWIDTH 830 0
DWIDTH 27 0
BBX 26 36 0 -4
BITMAP
00000000000000013468AA1000
000000000468ACEECA86565000
00000001BB8643100000005000
0000002DA00000245551005000
000004EFA00254310000005000
00005FFFA00000000000002000
0000CFFFA00000000134510000
0000CFFFC23578ACEFFD200000
0000CFFFFE6555555555520000
0000CFFFF60000000000050000
0000CFFFF10000000000041000
00008FFFA00000000000005000
000003CF400035555510005000
00000CFE000330000060003200
00004FF8000500000023000500
0000AFF3001400AF3005000500
0001FFC0005001FF8004200240
0006FF70005005FFD000500050
000CFF2004100AFFF200410050
003FFC0005000EFFF700050023
009FF900050017777500050005
00EFF700230000000000050005
05FFF600320000000000050005
09FFF600365555555555580005
0DFFF600320000000000050005
0FFFF600320000000000050005
1FFFF60032007CCCCC10050005
1FFFF60032009FFFFF10050005
1FFFF60032009FFFFF10050005
1FFFF60000009FFFFF10000005
1FFFF600000056FFFF10000005
1FFFF800000046FFFF30000004
1FFFFFDCCCC806FFFFECCCCC91
1FFFFFFFFF8006FFFFFFFFF800
0FFFFFFFF70005FFFFFFFF6000
0BFFFFFE500001DFFFFFD40000
ENDCHAR
STARTCHAR Acircumflex
ENCODING 194
SWIDTH 830 0
DWIDTH 27 0
BBX 26 36 0 -4
BITMAP
00000000000002555100000000
00000000001452000454000000
00000000143000000001550000
00000002900004555200014000
0000004EA00252000451005000
000005FFA00000000000005000
00006FFFA00003786200005000
0000CFFFB25AEFFFFFC8424000
0000CFFFFFFFFFFFFFFFF90000
0000CFFFFC2000000000340000
0000CFFFF40000000000050000
0000BFDFD00000000000032000
000013CF800035555510005000
00000CFF200330000060005000
00004FFB000500000023001400
0000AFF6001400AF3005000500
0001FFE1005001FF8004200410
0006FF90005005FFD000500050
000CFF4004100AFFF200410050
003FFE0005000EFFF700050032
009FFA00050017777500050005
00EFF700230000000000050005
05FFF600320000000000050005
09FFF600365555555555580005
0DFFF600320000000000050005
0FFFF600320000000000050005
1FFFF60032007CCCCC10050005
1FFFF60032009FFFFF10050005
1FFFF60032009FFFFF10050005
1FFFF60000009FFFFF10000005
1FFFF600000056FFFF10000005
1FFFF800000046FFFF30000005
1FFFFFDCCCC806FFFFECCCCC91
1FFFFFFFFF8006FFFFFFFFF900
0FFFFFFFF70005FFFFFFFF7000
0BFFFFFE500001DFFFFFD40000
ENDCHAR
STARTCHAR Atilde
ENCODING 195
SWIDTH 830 0
DWIDTH 27 0
BBX 26 35 0 -4
BITMAP
00000000025555542001560000
00000000540000013455115000
00000008A00000000000005000
0000009FA00354542000005000
00001BFFA00000013551005000
00009FFFA00000000000014000
0000CFFFC369A9753102670000
0000CFFFFFFFFFFFFFFF900000
0000CFFFFC3111111111430000
0000CFFFF40000000000050000
00009EBFD00000000000032000
000002CF800035555510005000
00000CFF200330000060005000
00004FFC000500000023001400
0000AFF6001400AF3005000500
0001FFE1005001FF8004200410
0006FF90005005FFD000500050
000CFF4004100AFFF200410050
003FFE0005000EFFF700050042
009FFA00050017777500050005
00EFF700230000000000050005
05FFF600320000000000050005
09FFF600365555555555580005
0DFFF600320000000000050005
0FFFF600320000000000050005
1FFFF60032007CCCCC10050005
1FFFF60032009FFFFF10050005
1FFFF60032009FFFFF10050005
1FFFF60000009FFFFF10000005
1FFFF600000056FFFF10000005
1FFFF800000046FFFF30000005
1FFFFFDCCCC806FFFFECCCCCA1
1FFFFFFFFF8006FFFFFFFFF900
0FFFFFFFF70005FFFFFFFF7000
0BFFFFFE500001DFFFFFD40000
ENDCHAR
STARTCHAR Adieresis
ENCODING 196
SWIDTH 830 0
DWIDTH 27 0
BBX 26 35 0 -4
BITMAP
00000001555555305555554000
0000002C0000006A3000005000
000003ED0000008F2000005000
00005EFD0005008F2005005000
0004FFFD0002008F2002005000
0008FFFD0000008F2000005000
0009FFFF200000BF5000006000
0009FFFFFFFFFFFFFFFFFD2000
0009FFFFFE6444444444730000
0008FFFFF60000000000050000
0004EFFFE10000000000041000
000002CF900035555510005000
00000CFF300330000060005000
00004FFC000500000023002300
0000AFF7001400AF3005000500
0001FFF1005001FF8004200410
0006FFA0005005FFD000500040
000CFF5004100AFFF200410050
003FFE0005000EFFF700050041
009FFB00050017777500050004
00EFF800230000000000050005
05FFF600320000000000050005
09FFF600365555555555580005
0DFFF600320000000000050005
0FFFF600320000000000050005
1FFFF60032007CCCCC10050005
1FFFF60032009FFFFF10050005
1FFFF60032009FFFFF10050005
1FFFF60000009FFFFF10000005
1FFFF600000056FFFF10000005
1FFFF800000046FFFF30000005
1FFFFFDCCCC806FFFFECCCCCA1
1FFFFFFFFF8006FFFFFFFFFA00
0FFFFFFFF70005FFFFFFFF7000
0BFFFFFE500001DFFFFFE50000
ENDCHAR
STARTCHAR Aring
ENCODING 197
SWIDTH 830 0
DWIDTH 27 0
BBX 26 36 0 -4
BITMAP
00000000000255555552000000
00000000035200000003620000
00000000540000000000060000
00000007B00035555530015000
0000009F700620000044005000
00000BFF600502AC9105005000
00008FFF602306FFF405005000
0000DFFF702306FFF405005000
0000FFFF900503DFC105005000
0000FFFFE10620000034032000
0000FFFFF30045555530050000
0000EFFFC00000000000014000
0000CFFF600035555510005000
00005FFF100330000060004100
00005FFA000500000023000500
0000BFF5001400AF3005000500
0002FFE0005001FF8004200320
0008FF80005005FFD000500050
000DFF3004100AFFF200410050
004FFD0005000EFFF700050032
00AFFA00050017777500050005
01EFF700230000000000050005
05FFF600320000000000050005
0AFFF600365555555555580005
0DFFF600320000000000050005
0FFFF600320000000000050005
1FFFF60032007CCCCC10050005
1FFFF60032009FFFFF10050005
1FFFF60032009FFFFF10050005
1FFFF60000009FFFFF10000005
1FFFF600000056FFFF10000005
1FFFF800000046FFFF30000005
1FFFFFDCCCC806FFFFECCCCC91
1FFFFFFFFF8006FFFFFFFFF900
0FFFFFFFF70005FFFFFFFF7000
0AFFFFFE500001DFFFFFD40000
ENDCHAR
STARTCHAR AE
ENCODING 198
SWIDTH 1105 0
DWIDTH 35 0
BBX 35 28 0 -4
BITMAP
000000000555555555555555555555555530
00000000A300000000000000000000000050
0000001BD000000000000000000000000050
000002DF7000000000000000000000000050
00001EFF2000555555555655555555520050
00006FFC0005000000000500000000000050
0000CFF60005000000000500000000000140
0002FFF10032008FFC0005000FFFFFFFF700
0007FFB0005000EFFC0005000FFFFFFF5000
000CFF60004004FFFC000500077777770000
003FFF10031009FFFC000500000000050000
008FFC0004000EFFFC000500000000050000
00DFF8000400299997000644444430050000
03FFF7003200000000000500000000050000
08FFF6004100000000000500000000030000
0CFFF60045555555555556000ABBBB810000
0EFFF60041000000000005000FFFFA100000
0FFFF60041000000000005000AAA95555520
1FFFF60041008CCCCA000500000000000050
1FFFF60041009FFFFC000500000000000050
1FFFF60041009FFFFC000500000000000050
1FFFF60031009FFFFC000555555555520050
1FFFF60000005AFFFC000000000000000050
1FFFF80000004AFFFD000000000000000040
1FFFFFDCCCC80AFFFFDCCCCCCCCCCCCCC700
1FFFFFFFFF800AFFFFFFFFFFFFFFFFFF7000
0FFFFFFFF6000AFFFFFFFFFFFFFFFFF50000
0AFFFFFE500005EFFFFFFFFFFFFFFD400000
ENDCHAR
STARTCHAR Ccedilla
ENCODING 199
SWIDTH 728 0
DWIDTH 23 0
BBX 22 31 1 -7
BITMAP
0000000255555555555554
0000005400000000000005
0000181000000000000005
0002C40001555555552005
004ED00035000000000005
04FFA00060000000000006
1EFF800050007CCCCCCCB2
7FFF80005002FFFFFFFB10
BFFF80005003FFFFFF8000
DFFF80005003FFFFE50000
EFFF800050032000000000
EFFF800050032000000000
EFFF800050032000000000
EFFF800050032000000000
EFFF800050032000000000
EFFF800050032000000000
EFFF800050014000000000
EFFF900050004555555552
EFFFA00050000000000005
DFFFE00035000000000005
CFFFF60001555557552005
AFFFFE4000000014000005
5FFFFFF930000050000005
0DFFFFFFFEB1005004AA93
04FFFFFFFFB000200BFD20
004EFFFFFF5000002FA100
00016ADFFF100000870000
0000009FFFEDDDDC400000
000001EFFFFFFFC2000000
000005FFFFFFF900000000
000004EFFFFE6000000000
ENDCHAR
STARTCHAR Egrave
ENCODING 200
SWIDTH 754 0
DWIDTH 24 0
BBX 23 36 1 -4
BITMAP
0000006A9753200000000000
000009B4679BDEDB97520000
0001BF6000000024579C1000
002DFF600355531000032000
00DFFF600000024550032000
00FFFF700000000000032000
00FFFFD75320000000031000
00FFFFFFFFFFDB9764210000
00FFF7555555555555555620
00BFE0000000000000000050
002ED0000000000000000050
03DFD0000000000000000050
3EFFD0005555555555510050
8FFFD0005000000000000050
8FFFD0005000000000000320
8FFFD0005000EFFFFFFFE400
8FFFD0005000EFFFFFFD3000
8FFFD0005000777777850000
8FFFD0005000000000050000
8FFFD0005000000000050000
8FFFD0006555555530050000
8FFFD0005000000000050000
8FFFD0005000000000040000
8FFFD0005000DDDDDD910000
8FFFD0005000EFFFF7000000
8FFFD00050009AAA85555500
8FFFD0005000000000000140
8FFFD0005000000000000050
8FFFD0005000000000000050
8FFFD0005555555555510050
8FFFD0000000000000000050
8FFFE1000000000000000130
8FFFFECCCCCCCCCCCCCCC500
8FFFFFFFFFFFFFFFFFFE4000
8FFFFFFFFFFFFFFFFFE30000
4EFFFFFFFFFFFFFFFC200000
ENDCHAR
STARTCHAR Eacute
ENCODING 201
SWIDTH 754 0
DWIDTH 24 0
BBX 23 36 1 -4
BITMAP
0000000000000013579A8000
00000001579BDEDCA8649100
0000003CA864200000003200
000005E70000134554003200
00007FF60045420000003200
0009FFF60000000000002000
001FFFF60000000013542000
001FFFF923579BDEFFA10000
001FF7555555555555555620
001FE0000000000000000050
008FD0000000000000000050
0AFFD0000000000000000050
6FFFD0005555555555510050
8FFFD0005000000000000050
8FFFD0005000000000000320
8FFFD0005000EFFFFFFFE400
8FFFD0005000EFFFFFFD3000
8FFFD0005000777777850000
8FFFD0005000000000050000
8FFFD0005000000000050000
8FFFD0006555555530050000
8FFFD0005000000000050000
8FFFD0005000000000040000
8FFFD0005000DDDDDD910000
8FFFD0005000EFFFF7000000
8FFFD00050009AAA85555500
8FFFD0005000000000000140
8FFFD0005000000000000050
8FFFD0005000000000000050
8FFFD0005555555555510050
8FFFD0000000000000000050
8FFFE1000000000000000130
8FFFFECCCCCCCCCCCCCCC500
8FFFFFFFFFFFFFFFFFFE4000
8FFFFFFFFFFFFFFFFFE30000
4EFFFFFFFFFFFFFFFC200000
ENDCHAR
STARTCHAR Ecircumflex
ENCODING 202
SWIDTH 754 0
DWIDTH 24 0
BBX 23 36 1 -4
BITMAP
000000000002555200000000
000000001442000355200000
000000142000000000362000
000003A00004555300005000
00005EB00251000251005000
0007FFB00000000000005000
006FFFC00159DFD940004000
00AFFFE8BFFFFFFFFEB62000
00BFF7555555555555555620
00BFE0000000000000000050
00AFD0000000000000000050
02DFD0000000000000000050
3EFFD0005555555555510050
8FFFD0005000000000000050
8FFFD0005000000000000320
8FFFD0005000EFFFFFFFE400
8FFFD0005000EFFFFFFD3000
8FFFD0005000777777850000
8FFFD0005000000000050000
8FFFD0005000000000050000
8FFFD0006555555530050000
8FFFD0005000000000050000
8FFFD0005000000000040000
8FFFD0005000DDDDDD910000
8FFFD0005000EFFFF7000000
8FFFD00050009AAA85555500
8FFFD0005000000000000140
8FFFD0005000000000000050
8FFFD0005000000000000050
8FFFD0005555555555510050
8FFFD0000000000000000050
8FFFE1000000000000000130
8FFFFECCCCCCCCCCCCCCC500
8FFFFFFFFFFFFFFFFFFE4000
8FFFFFFFFFFFFFFFFFE30000
4EFFFFFFFFFFFFFFFC200000
ENDCHAR
STARTCHAR Edieresis
ENCODING 203
SWIDTH 754 0
DWIDTH 24 0
BBX 23 35 1 -4
BITMAP
000000555555503555556100
000009500000379000000500
0001AF4000002F9000000500
001CFF4005002F9005000500
00CFFF4002002F9002000500
02FFFF4000002F9000000400
02FFFF8000005FB000005000
02FFFFFFFFFFFFFFFFFFFD20
02FFF6444444444444444750
02FFE0000000000000000050
00EFD0000000000000000050
09FFD0005555555555510050
7FFFD0005000000000000050
8FFFD0005000000000000220
8FFFD0005000EFFFFFFFE400
8FFFD0005000EFFFFFFD3000
8FFFD0005000777777850000
8FFFD0005000000000050000
8FFFD0005000000000050000
8FFFD0006555555530050000
8FFFD0005000000000050000
8FFFD0005000000000040000
8FFFD0005000DDDDDD910000
8FFFD0005000EFFFF7000000
8FFFD00050009AAA85555500
8FFFD0005000000000000140
8FFFD0005000000000000050
8FFFD0005000000000000050
8FFFD0005555555555510050
8FFFD0000000000000000050
8FFFE1000000000000000130
8FFFFECCCCCCCCCCCCCCC500
8FFFFFFFFFFFFFFFFFFE4000
8FFFFFFFFFFFFFFFFFE30000
4EFFFFFFFFFFFFFFFC200000
ENDCHAR
STARTCHAR Igrave
ENCODING 204
SWIDTH 705 0
DWIDTH 23 0
BBX 22 36 0 -4
BITMAP
0000004A98642000000000
000006D4579BDEDBA86300
00009F9000000013579C30
001BFF9002555420000150
00AFFF9000000135510050
00CFFFA000000000000050
00CFFFE864200000000040
00CFFFFFFFFFDBA8642100
00CFFC5555555555555554
008FF60000000000000005
000AF60000000000000005
009FF60000000000000005
0BFFF60045555655552005
1FFFF60000000500000005
1FFFFA3332000500023344
1FFFFFFFFB0005000EFF60
1FFFFFFFFB0005000EE400
1FFFFFFFFB0005000C3000
06AAAEFFFB000500050000
00000BFFFB000500050000
00000BFFFB000500050000
00000BFFFB000500050000
00000BFFFB000500050000
00000BFFFB000500050000
00000BFFFB000500050000
00000AAAA7000500065552
0000770000000500000005
0008F60000000500000005
01AFF60000000500000005
0BFFF60045555655552005
1FFFF60000000000000005
1FFFF70000000000000004
1FFFFFCCCCCCCCCCCCCC80
1FFFFFFFFFFFFFFFFFF800
1FFFFFFFFFFFFFFFFF6000
0BFFFFFFFFFFFFFFD40000
ENDCHAR
STARTCHAR Iacute
ENCODING 205
SWIDTH 705 0
DWIDTH 23 0
BBX 22 36 0 -4
BITMAP
000000000000013468AA10
0000000478ACEECA865650
000001BA86431000000050
00002DA000002455510050
0004EF9002543100000050
005FFF9000000000000020
00CFFF9000000001345100
00CFFFC23578ACEFFD2000
00CFFC5555555555555554
00CFF60000000000000005
00CFF60000000000000005
009FF60000000000000005
06FFF60045555655552005
1FFFF60000000500000005
1FFFFA3332000500023344
1FFFFFFFFB0005000EFF60
1FFFFFFFFB0005000EE400
1FFFFFFFFB0005000C3000
06AAAEFFFB000500050000
00000BFFFB000500050000
00000BFFFB000500050000
00000BFFFB000500050000
00000BFFFB000500050000
00000BFFFB000500050000
00000BFFFB000500050000
00000AAAA7000500065552
0000770000000500000005
0008F60000000500000005
01AFF60000000500000005
0BFFF60045555655552005
1FFFF60000000000000005
1FFFF70000000000000004
1FFFFFCCCCCCCCCCCCCC80
1FFFFFFFFFFFFFFFFFF800
1FFFFFFFFFFFFFFFFF6000
0BFFFFFFFFFFFFFFD40000
ENDCHAR
STARTCHAR Icircumflex
ENCODING 206
SWIDTH 705 0
DWIDTH 23 0
BBX 22 36 0 -4
BITMAP
0000000000034552000000
0000000013420003551000
0000001320000000004610
0000038000045553000150
00004E9002410002510050
0006FF9000000000000050
006FFFA0015AEFC8400050
00CFFFD8CFFFFFFFFEA610
00CFFC5555555555555554
00CFF60000000000000005
00CFF60000000000000005
00BFF60000000000000005
05EFF60045555655552005
0FFFF60000000500000005
1FFFFA3332000500023344
1FFFFFFFFB0005000EFF60
1FFFFFFFFB0005000EE400
1FFFFFFFFB0005000C3000
06AAAEFFFB000500050000
00000BFFFB000500050000
00000BFFFB000500050000
00000BFFFB000500050000
00000BFFFB000500050000
00000BFFFB000500050000
00000BFFFB000500050000
00000AAAA7000500065552
0000770000000500000005
0008F60000000500000005
01AFF60000000500000005
0BFFF60045555655552005
1FFFF60000000000000005
1FFFF70000000000000004
1FFFFFCCCCCCCCCCCCCC80
1FFFFFFFFFFFFFFFFFF800
1FFFFFFFFFFFFFFFFF6000
0BFFFFFFFFFFFFFFD40000
ENDCHAR
STARTCHAR Idieresis
ENCODING 207
SWIDTH 705 0
DWIDTH 23 0
BBX 22 35 0 -4
BITMAP
0000015555553055555540
00002C0000006B30000050
0003ED0000009F20000050
005EFD0005009F20050050
04FFFD0002009F20020050
09FFFD0000009F20000030
09FFFE200001BF50000240
09FFFFFFFFFFFFFFFFFFE4
09FFFB4444444444444458
09FFF60000000000000005
04EFF60000000000000005
05EFF60045555655552005
0FFFF60000000500000004
1FFFFA3332000500023333
1FFFFFFFFB0005000EFF60
1FFFFFFFFB0005000EE400
1FFFFFFFFB0005000C3000
06AAAEFFFB000500050000
00000BFFFB000500050000
00000BFFFB000500050000
00000BFFFB000500050000
00000BFFFB000500050000
00000BFFFB000500050000
00000BFFFB000500050000
00000AAAA7000500065552
0000770000000500000005
0008F60000000500000005
01AFF60000000500000005
0BFFF60045555655552005
1FFFF60000000000000005
1FFFF70000000000000004
1FFFFFCCCCCCCCCCCCCC80
1FFFFFFFFFFFFFFFFFF800
1FFFFFFFFFFFFFFFFF6000
0BFFFFFFFFFFFFFFD40000
ENDCHAR
STARTCHAR Eth
ENCODING 208
SWIDTH 856 0
DWIDTH 27 0
BBX 28 28 -1 -4
BITMAP
0000001655555555555555440000
000002D300000000000000015200
00003EF300000000000000000620
0005FFF300000000000000000070
002FFFF300355555555552000050
003FFFF300500000000004500023
004FFFF300500000000000320005
004FFFF30050007BBBB400050005
004FFFF30050009FFFFB00050005
004FFFF30050009FFFFC00050005
004FF800005000006FFC00050005
004FF500005000002FFC00050005
01CFF500458554002FFC00050005
0DFFF500005000002FFC00050005
2FFFF500005000003FFC00050005
2FFFFC7100500047BFFC00050005
2FFFFFF30050009EFFFB00050005
2FFFFFF30050007CFFE600050005
1FFFFFF300500000000000050014
06BFFFF300500000000000330041
004FFFF300500000000003500060
004FFFF300355555555552000240
004FFFF300000000000000002400
004FFFF500000000000000384000
004FFFFECCCCCCCCCCCDDFE40000
004FFFFFFFFFFFFFFFFFFD300000
003FFFFFFFFFFFFFFFFFB1000000
001CFFFFFFFFFFFFEC9300000000
ENDCHAR
STARTCHAR Ntilde
ENCODING 209
SWIDTH 853 0
DWIDTH 27 0
BBX 25 35 1 -4
BITMAP
00000000045555541014630000
00000003610000024652050000
0000005E000000000000050000
000008FF001555420000050000
0000AFFF000000035520040000
0006FFFF000000000000010000
0007FFFF458AA8642013100000
0007F75555AFFFFFFD55555550
0007E0000009FFFFF700000050
004ED0000000BFFFF700000050
06FFD00000001CFFF700000050
5FFFD000640002FFF700230050
8FFFD0005330006FF700230050
8FFFD00050420009F700230050
8FFFD00050051000C700230050
8FFFD000500061002600230050
8FFFD000500006000000230050
8FFFD000500001600000230050
8FFFD000500000150000230050
8FFFD000500010024000230050
8FFFD0005000C0003300230050
8FFFD0005000F9000430230050
8FFFD0005000FF700042230050
8FFFD0005000FFF40005330050
8FFFD0005000FFFE2000730050
8FFFD0005000FFFFD100230050
8FFFD0005000FFFFF700230050
8FFFD0005000FFFFF700230050
8FFFD0002000FFFFF700110050
8FFFD00000008FFFF700000050
8FFFE10000024FFFF900000040
8FFFFECCCCC80FFFFFDCCCCA20
8FFFFFFFFF600FFFFFFFFFB100
8FFFFFFFE4000FFFFFFFF90000
4EFFFFFC20000AFFFFFE700000
ENDCHAR
STARTCHAR Ograve
ENCODING 210
SWIDTH 837 0
DWIDTH 27 0
BBX 25 36 1 -4
BITMAP
00000001775310000000000000
0000003C5579BCCA9753100000
000004EB000000013578B30000
00007FFB002553100000060000
0007FFFB000002355510050000
000BFFFB000000000000050000
000BFFFF964200000000040000
000BFFFFFFFFFECA8642110000
000BFFFFD85210001258720000
0006FFD4000000000000046000
00001710000000000000001600
0001A300002555555510000310
002CC000064000000055000050
03EF9000510000000002400040
1DFF8000500059A94000500050
7FFF80005002FFFFF100500050
BFFF80005003FFFFF300500050
DFFF80005003FFFFF300500050
EFFF80005003CFFFF300500050
EFFF800050036FFFF300500050
EFFF800050036FFFF300500050
EFFF800050036FFFF300500050
EFFF800050036FFFF300500050
EFFF800050036FFFF300500050
EFFF800050036FFFF200500050
EFFF800050008EFE9000500050
EFFF9000500000000000500050
EFFFB000510000000002400050
DFFFF200054000000045000230
CFFFFA00001555555510000600
9FFFFFA1000000000000027100
5FFFFFFEA52000000025A90000
0CFFFFFFFFFFDCCCDFFF700000
02DFFFFFFFFFFFFFFFE4000000
0019EFFFFFFFFFFFFB20000000
000016ACEFFFECA72000000000
ENDCHAR
STARTCHAR Oacute
ENCODING 211
SWIDTH 837 0
DWIDTH 27 0
BBX 25 36 1 -4
BITMAP
00000000000000002467810000
000000001468ABCCA975560000
00000008B86531000000050000
000001AC000000235510050000
00002CFB002555310000050000
0003EFFB000000000000030000
000AFFFB000000001246100000
000BFFFD23468ACEFFE5000000
000BFFFFD85210001245620000
000BFFD4000000000000046000
0009FC10000000000000001600
0003E300002555555510000420
001BC000064000000055000050
02DF9000510000000002400050
0DFF8000500059A94000500050
6FFF80005002FFFFF100500050
BFFF80005003FFFFF300500050
DFFF80005003FFFFF300500050
EFFF80005003CFFFF300500050
EFFF800050036FFFF300500050
EFFF800050036FFFF300500050
EFFF800050036FFFF300500050
EFFF800050036FFFF300500050
EFFF800050036FFFF300500050
EFFF800050036FFFF200500050
EFFF800050008EFE9000500050
EFFF9000500000000000500050
EFFFB000510000000002400050
DFFFF200054000000045000230
CFFFFA00001555555510000600
9FFFFFA1000000000000027100
5FFFFFFEA52000000025A80000
0CFFFFFFFFFFDCCCDFFF700000
02DFFFFFFFFFFFFFFFE4000000
0019FFFFFFFFFFFFFB20000000
000016ACEFFFECA72000000000
ENDCHAR
STARTCHAR Ocircumflex
ENCODING 212
SWIDTH 837 0
DWIDTH 27 0
BBX 25 36 1 -4
BITMAP
00000000000025552000000000
00000000014420003541000000
00000002420000000003510000
0000003A000045553000050000
000005FB002510002510050000
00008FFB000000000000050000
0007FFFB00159DFD8400050000
000BFFFE8BFFFFFFFFEA830000
000BFFFFEA643222346A910000
000BFFE6000000000000055000
000AFD20000000000000002500
0005F400002555555510000410
001BD000064000000055000050
02DF9000510000000002400040
0DFF8000500059A94000500050
6FFF80005002FFFFF100500050
AFFF80005003FFFFF300500050
DFFF80005003FFFFF300500050
EFFF80005003CFFFF300500050
EFFF800050036FFFF300500050
EFFF800050036FFFF300500050
EFFF800050036FFFF300500050
EFFF800050036FFFF300500050
EFFF800050036FFFF300500050
EFFF800050036FFFF200500050
EFFF800050008EFE9000500050
EFFF9000500000000000500050
EFFFB000510000000002400050
DFFFF100054000000045000230
CFFFFA00001555555510000600
9FFFFFA1000000000000027100
5FFFFFFEA52000000025A90000
0CFFFFFFFFFFDCCCDFFF700000
02DFFFFFFFFFFFFFFFE5000000
0019FFFFFFFFFFFFFB20000000
000016ACEFFFECA72000000000
ENDCHAR
STARTCHAR Otilde
ENCODING 213
SWIDTH 837 0
DWIDTH 27 0
BBX 25 35 1 -4
BITMAP
00000000155555420015610000
00000005500000024551050000
0000008B000000000000050000
00001AFB002555420000050000
0001CFFB000000135510050000
0009FFFB000000000000040000
000BFFFD369AA8531015700000
000BFFFFFFDB99899BDC100000
000BFFFC610000000001562000
000AFF60000000000000006300
0003E700002555555510000600
001BE000064000000055000140
02DFA000510000000002400050
0DFF9000500059A94000500050
6FFF80005002FFFFF100500050
BFFF80005003FFFFF300500050
DFFF80005003FFFFF300500050
EFFF80005003CFFFF300500050
EFFF800050036FFFF300500050
EFFF800050036FFFF300500050
EFFF800050036FFFF300500050
EFFF800050036FFFF300500050
EFFF800050036FFFF300500050
EFFF800050036FFFF200500050
EFFF800050008EFE9000500050
EFFF9000500000000000500050
EFFFB000510000000002400050
DFFFF100054000000045000240
CFFFF900001555555510000700
9FFFFFA1000000000000027100
5FFFFFFE951000000025AA1000
0CFFFFFFFFFEDCCCDEFF800000
02DFFFFFFFFFFFFFFFE5000000
0019FFFFFFFFFFFFFB20000000
000016ACEFFFEDA72000000000
ENDCHAR
STARTCHAR Odieresis
ENCODING 214
SWIDTH 837 0
DWIDTH 27 0
BBX 25 35 1 -4
BITMAP
00000016555554055555550000
000002D1000006C50000041000
00004EF0002007F40020032000
0006FFF0005007F40050032000
005FFFF0000007F40000032000
007FFFF0000007F40000032000
007FFFF300000AF70000050000
007FFFFFFFFEDDCDDFFFD30000
007FFFFE952000000025750000
006FFFA1000000000000027100
0004DA00002555555510000600
001BF100064000000055000230
02DFB000510000000002400050
0DFF9000500059A94000500050
6FFF80005002FFFFF100500050
BFFF80005003FFFFF300500050
DFFF80005003FFFFF300500050
EFFF80005003CFFFF300500050
EFFF800050036FFFF300500050
EFFF800050036FFFF300500050
EFFF800050036FFFF300500050
EFFF800050036FFFF300500050
EFFF800050036FFFF300500050
EFFF800050036FFFF200500050
EFFF800050008EFE9000500050
EFFF9000500000000000500050
EFFFB000510000000002400050
DFFFE100054000000045000240
CFFFF900001555555510000700
9FFFFF91000000000000018100
5FFFFFFE951000000025AA1000
0CFFFFFFFFFEDCCCDEFF800000
02DFFFFFFFFFFFFFFFF5000000
0019FFFFFFFFFFFFFB30000000
000016ACEFFFEDA72000000000
ENDCHAR
STARTCHAR multiply
ENCODING 215
SWIDTH 834 0
DWIDTH 27 0
BBX 23 23 2 -1
BITMAP
000000013000000000410000
000000442600000006253000
000006400160000181005300
000085000016002910000520
000B8000000163A100000060
00BFB0002300191003100160
0BFFFA000430000033001600
AFFFFFA00043000430016000
EFFFFFFB0004304300160000
5FFFFFFFB000463001600000
05FFFFFFB100363001600000
005FFFFB1003304300160000
0004FFB10033000430016000
00008B000330000043001600
0005B0002300191004100150
005F80000001CFB100000060
05FFF500001CFFFB10000530
5FFFFF5001CFFFFFB1005400
EFFFFFF527EFFFFFFB164000
AFFFFFFF704FFFFFFFE30000
0BFFFFE50005FFFFFC200000
00BFFD3000005FFFA1000000
0009B200000006E800000000
ENDCHAR
STARTCHAR Oslash
ENCODING 216
SWIDTH 837 0
DWIDTH 27 0
BBX 25 32 1 -6
BITMAP
00000000000000000555555100
0000000000000001A100002300
00000000366555553000005000
00000036300000000021006000
00000640000000000050004300
00009600002555555550000510
001BE000163000000588100050
02DFA000600000000701700050
1DFF80032003CEA03300510050
6FFF8005000CFF407000230050
BFFF8005000DFC015000140050
DFFF8005000DF6060100140050
EFFF8005000DE1060700140050
EFFF8005000D80522C00140050
EFFF8005000D20708C00140050
EFFF800500080340EC00140050
EFFF800500020705FC00140050
EFFF80050000160CFC00140050
EFFF80050000613FFC00140050
EFFF80041000709FF600130050
EFFF9002400420441000410050
EFFFB000800700000000600050
DFFFE000297500000036100140
CFFFF700006555555520000500
AFFFFF60005000000000016100
6FFFFFC0011000000003880000
1EFFFF5000008AABBDFF700000
06FFFF311116FFFFFFE5000000
00AFFFFFFFFFFFFFFB20000000
00EFFFFFFFFFEDA72000000000
05FFFFFFA00000000000000000
04EFFFE9000000000000000000
ENDCHAR
STARTCHAR Ugrave
ENCODING 217
SWIDTH 846 0
DWIDTH 27 0
BBX 25 36 1 -4
BITMAP
00000005A97642000000000000
0000007D4579BDEDBA86200000
000009F9000000013579C20000
0001BFF9003555320000140000
000BFFF9000000135510040000
000DFFF9000000000000040000
000DFFFE864200000000040000
000DFFFFFFFFFDBA8642100000
000CE6555557FFFFFB55555550
000AB0000000EFFFF500000050
00AFB0000000CEFFF500000050
1CFFB000300054EFF500210050
9FFFB00050005EFFF500410050
BFFFB00050006FFFF500410050
BFFFB00050006FFFF500410050
BFFFB00050006FFFF500410050
BFFFB00050006FFFF500410050
BFFFB00050006FFFF500410050
BFFFB00050006FFFF500410050
BFFFB00050006FFFF500410050
BFFFB00050006FFFF500410050
BFFFB00050006FFFF500410050
BFFFB00050006FFFF500410050
BFFFB00050006FFFF500410050
BFFFB00050006FFFF500410050
BFFFB00050007FFFE200410050
BFFFC000500002431000500050
BFFFE000230000000001500050
AFFFF400045100000046000140
9FFFFC10001455555520000600
6FFFFFC3000000000000016100
2FFFFFFFB62000000015990000
09FFFFFFFFFFDDCCDEFF700000
00BFFFFFFFFFFFFFFFE5000000
0007EFFFFFFFFFFFFB20000000
0000059CEFFFEDB72000000000
ENDCHAR
STARTCHAR Uacute
ENCODING 218
SWIDTH 846 0
DWIDTH 27 0
BBX 25 36 1 -4
BITMAP
00000000000000023579A60000
000000001579BDEDB986490000
00000004D97542000000050000
0000007F400001355540050000
000009FF300454200000050000
0000BFFF300000000000020000
0003FFFF300000000235310000
0004FFFF724579BDFFF8000000
0004E6555557FFFFFB55555550
0008B0000000EFFEF500000050
00AFB0000000723DF500000050
1CFFB000300054EFF500210050
9FFFB00050005EFFF500410050
BFFFB00050006FFFF500410050
BFFFB00050006FFFF500410050
BFFFB00050006FFFF500410050
BFFFB00050006FFFF500410050
BFFFB00050006FFFF500410050
BFFFB00050006FFFF500410050
BFFFB00050006FFFF500410050
BFFFB00050006FFFF500410050
BFFFB00050006FFFF500410050
BFFFB00050006FFFF500410050
BFFFB00050006FFFF500410050
BFFFB00050006FFFF500410050
BFFFB00050007FFFE200410050
BFFFC000500002431000500050
BFFFE000230000000001500050
AFFFF400045100000046000140
9FFFFC10001455555520000600
6FFFFFC3000000000000016100
2FFFFFFFB62000000015990000
09FFFFFFFFFFDDCCDEFF700000
00BFFFFFFFFFFFFFFFE5000000
0007EFFFFFFFFFFFFB20000000
0000059CEFFFEDB72000000000
ENDCHAR
STARTCHAR Ucircumflex
ENCODING 219
SWIDTH 846 0
DWIDTH 27 0
BBX 25 36 1 -4
BITMAP
00000000000025553000000000
00000000025530002553000000
00000002630000000003630000
0000004D000035554000050000
000007FD001520001520050000
0001AFFD000000000000050000
0007FFFE00048DFD9510050000
0008FFFF8AEFFFFFFFFB720000
0008E6555557FFFFFB55555550
000AB0000000EFFFF500000050
01AFB000000065CFF500000050
1CFFB000300053EFF500310050
9FFFB00050005EFFF500410050
BFFFB00050006FFFF500410050
BFFFB00050006FFFF500410050
BFFFB00050006FFFF500410050
BFFFB00050006FFFF500410050
BFFFB00050006FFFF500410050
BFFFB00050006FFFF500410050
BFFFB00050006FFFF500410050
BFFFB00050006FFFF500410050
BFFFB00050006FFFF500410050
BFFFB00050006FFFF500410050
BFFFB00050006FFFF500410050
BFFFB00050006FFFF500410050
BFFFB00050005DEEA100410050
BFFFC000500000000000500050
BFFFE000230000000001500050
AFFFF400045100000035000140
9FFFFC10001455555520000600
6FFFFFC3000000000000016100
2FFFFFFFB62000000015990000
09FFFFFFFFFFDDCCDEFF700000
00BFFFFFFFFFFFFFFFE5000000
0007EFFFFFFFFFFFFB20000000
0000059CEFFFEDB72000000000
ENDCHAR
STARTCHAR Udieresis
ENCODING 220
SWIDTH 846 0
DWIDTH 27 0
BBX 25 35 1 -4
BITMAP
00000005555555055555560000
000001B3000005A70000024000
00002DF2002005F60020014000
0004EFF2005005F60050014000
002FFFF2000005F60000014000
005FFFF2000005F60000013000
005FFFF5000008F90000050000
005FFFFFFFFFFFFFFFFFFFFF70
005FE5444447FFFFFB444445A0
006FB0000000EFFFF500000050
05FFB0000000CCEFF500000050
6FFFB000400056FFF500310050
BFFFB00050006FFFF500410050
BFFFB00050006FFFF500410050
BFFFB00050006FFFF500410050
BFFFB00050006FFFF500410050
BFFFB00050006FFFF500410050
BFFFB00050006FFFF500410050
BFFFB00050006FFFF500410050
BFFFB00050006FFFF500410050
BFFFB00050006FFFF500410050
BFFFB00050006FFFF500410050
BFFFB00050006FFFF500410050
BFFFB00050006FFFF500410050
BFFFB00050007FFFF200410050
BFFFC000500014552000500050
BFFFE000330000000001500040
BFFFF300045000000036000130
9FFFFC00001455555520000500
7FFFFFB2000000000000016100
2FFFFFFFA52000000014980000
09FFFFFFFFFFDDCCDEFF700000
01BFFFFFFFFFFFFFFFE5000000
0007EFFFFFFFFFFFFB20000000
000016ACEFFFEDB72000000000
ENDCHAR
STARTCHAR Yacute
ENCODING 221
SWIDTH 805 0
DWIDTH 26 0
BBX 26 36 0 -4
BITMAP
00000000000000013568A90000
000000000479ACEECA86473000
00000002CA8642100000014000
0000003D900001245550014000
000005EF800354210000014000
00006FFF800000000000001000
0000DFFF800000000135510000
0000EFFFB23579ACEFFC100000
0000E9555556EFFFFE65555560
0003F2000000AFFEFB00000032
004EF20000006319FB00000032
06FFF200300051BFFB00030032
3FFFF200500058FFFB00050032
5FFFF20050005BFFFB00050032
5FFFF20050005BFFFB00050032
5FFFF20050005BFFFA00050032
5FFFF20050003CFFF500050041
5FFFF30014000AFFC000410050
5FFFF700051002EF3001400060
5FFFFE10005000340006000240
4FFFFFA0002400000041000600
2FFFFFF6000410000230005100
0CFFFFFE200050001500033000
04FFFFFFC00005654000150000
008FFFFFF80000320000600000
000CFFFFFF4000320004200000
0002EFFFFFE100320014000000
00006FFFFFF400320041000000
00000AFFFFF400320041000000
000001DFFFF400110041000000
0000005FFFF400000041000000
0000003FFFF500000050000000
0000003FFFFFCCCCCB40000000
0000003FFFFFFFFFD200000000
0000003FFFFFFFFB1000000000
0000001CFFFFFF900000000000
ENDCHAR
STARTCHAR Thorn
ENCODING 222
SWIDTH 792 0
DWIDTH 25 0
BBX 24 28 1 -4
BITMAP
000045555555200000000000
0006D0000000500000000000
008FD0000000500000000000
0AFFD0000000500000000000
6FFFD0005000455555552000
8FFFD0005000000000003600
8FFFD0005000000000000160
8FFFD0006555555555000042
8FFFD0005000000001620005
8FFFD0005000000000060005
8FFFD0005000CDDB20050005
8FFFD0005000EFFF60040005
8FFFD0005000EFFF70041005
8FFFD0005000EFFF70041005
8FFFD0005000EFFD20040005
8FFFD0005000000000050005
8FFFD0005000000000050005
8FFFD0005000000000520024
8FFFD0006555555555100060
8FFFD0005000000000000610
8FFFD0005000000001479100
8FFFD0002000DFFFFFF90000
8FFFD0000000DFFFFF700000
8FFFE1000000EFFFD4000000
8FFFFECCCCCCCB8400000000
8FFFFFFFFF80000000000000
8FFFFFFFF500000000000000
4EFFFFFD3000000000000000
ENDCHAR
STARTCHAR germandbls
ENCODING 223
SWIDTH 859 0
DWIDTH 27 0
BBX 27 28 1 -4
BITMAP
0000455555555555555550000000
0006D00000000000000016000000
008FD00000000000000000600000
0AFFD00000000000000000600000
6FFFD00045555555561000410000
8FFFD00050000000007000410000
8FFFD00050000000005000500000
8FFFD00050007881005000500000
8FFFD0005000DFF3005000500000
8FFFD0005000DFF1005001400000
8FFFD0005000DFC0041000561000
8FFFD0005000DF90050000006100
8FFFD0005000DF60065550000600
8FFFD0005000DF30000016000500
8FFFD0005000DF60000001300320
8FFFD0005000DFFFFF6000500230
8FFFD0005000DFFFFF9000500230
8FFFD0005000DFFFFF7000500230
8FFFD0005000DF51110000500230
8FFFD0005000DF10000001400320
8FFFD0005000DF10000007000500
8FFFD0003000DF10055551000600
8FFFD0000000DF10000000006100
8FFFE1000000EF30000000481000
8FFFFECCCCCEFFECCCCCDFA00000
8FFFFFFFFFFFFFFFFFFFF7000000
8FFFFFFFEAFFFFFFFFFE50000000
4EFFFFFD32DFFFFFEC7100000000
ENDCHAR
STARTCHAR agrave
ENCODING 224
SWIDTH 830 0
DWIDTH 27 0
BBX 26 35 0 -4
BITMAP
00000000744444443100000000
0000001BA00000001344440000
000002CFA00000000000004000
00003EFFA00255555430005000
0000BFFFA00000000021005000
0000CFFFE86420000000005000
0000CFFFFFFFFFDBA864243000
0000CFFFFFFFFFFFFFFFF60000
0000BFFFFC2000000000340000
000029BEF40000000000050000
0000001BD00000000000032000
000002CF800035555510005000
00000CFF200330000060005000
00004FFB000500000023001400
0000AFF6001400AF3005000500
0001FFE1005001FF8004200410
0006FF90005005FFD000500050
000CFF4004100AFFF200410050
003FFE0005000EFFF700050032
009FFA00050017777500050005
00EFF700230000000000050005
05FFF600320000000000050005
09FFF600365555555555580005
0DFFF600320000000000050005
0FFFF600320000000000050005
1FFFF60032007CCCCC10050005
1FFFF60032009FFFFF10050005
1FFFF60032009FFFFF10050005
1FFFF60000009FFFFF10000005
1FFFF600000056FFFF10000005
1FFFF800000046FFFF30000005
1FFFFFDCCCC806FFFFECCCCC91
1FFFFFFFFF8006FFFFFFFFF900
0FFFFFFFF70005FFFFFFFF7000
0BFFFFFE500001DFFFFFD40000
ENDCHAR
STARTCHAR aacute
ENCODING 225
SWIDTH 830 0
DWIDTH 27 0
BBX 26 36 0 -4
BITMAP
00000000000000013468AA1000
000000000468ACEECA86565000
00000001BB8643100000005000
0000002DA00000245551005000
000004EFA00254310000005000
00005FFFA00000000000002000
0000CFFFA00000000134510000
0000CFFFC23578ACEFFD200000
0000CFFFFE6555555555520000
0000CFFFF60000000000050000
0000CFFFF10000000000041000
00008FFFA00000000000005000
000003CF400035555510005000
00000CFE000330000060003200
00004FF8000500000023000500
0000AFF3001400AF3005000500
0001FFC0005001FF8004200240
0006FF70005005FFD000500050
000CFF2004100AFFF200410050
003FFC0005000EFFF700050023
009FF900050017777500050005
00EFF700230000000000050005
05FFF600320000000000050005
09FFF600365555555555580005
0DFFF600320000000000050005
0FFFF600320000000000050005
1FFFF60032007CCCCC10050005
1FFFF60032009FFFFF10050005
1FFFF60032009FFFFF10050005
1FFFF60000009FFFFF10000005
1FFFF600000056FFFF10000005
1FFFF800000046FFFF30000004
1FFFFFDCCCC806FFFFECCCCC91
1FFFFFFFFF8006FFFFFFFFF800
0FFFFFFFF70005FFFFFFFF6000
0BFFFFFE500001DFFFFFD40000
ENDCHAR
STARTCHAR acircumflex
ENCODING 226
SWIDTH 830 0
DWIDTH 27 0
BBX 26 36 0 -4
BITMAP
00000000000002555100000000
00000000001452000454000000
00000000143000000001550000
00000002900004555200014000
0000004EA00252000451005000
000005FFA00000000000005000
00006FFFA00003786200005000
0000CFFFB25AEFFFFFC8424000
0000CFFFFFFFFFFFFFFFF90000
0000CFFFFC2000000000340000
0000CFFFF40000000000050000
0000BFDFD00000000000032000
000013CF800035555510005000
00000CFF200330000060005000
00004FFB000500000023001400
0000AFF6001400AF3005000500
0001FFE1005001FF8004200410
0006FF90005005FFD000500050
000CFF4004100AFFF200410050
003FFE0005000EFFF700050032
009FFA00050017777500050005
00EFF700230000000000050005
05FFF600320000000000050005
09FFF600365555555555580005
0DFFF600320000000000050005
0FFFF600320000000000050005
1FFFF60032007CCCCC10050005
1FFFF60032009FFFFF10050005
1FFFF60032009FFFFF10050005
1FFFF60000009FFFFF10000005
1FFFF600000056FFFF10000005
1FFFF800000046FFFF30000005
1FFFFFDCCCC806FFFFECCCCC91
1FFFFFFFFF8006FFFFFFFFF900
0FFFFFFFF70005FFFFFFFF7000
0BFFFFFE500001DFFFFFD40000
ENDCHAR
STARTCHAR atilde
ENCODING 227
SWIDTH 830 0
DWIDTH 27 0
BBX 26 35 0 -4
BITMAP
00000000025555542001560000
00000000540000013455115000
00000008A00000000000005000
0000009FA00354542000005000
00001BFFA00000013551005000
00009FFFA00000000000014000
0000CFFFC369A9753102670000
0000CFFFFFFFFFFFFFFF900000
0000CFFFFC3111111111430000
0000CFFFF40000000000050000
00009EBFD00000000000032000
000002CF800035555510005000
00000CFF200330000060005000
00004FFC000500000023001400
0000AFF6001400AF3005000500
0001FFE1005001FF8004200410
0006FF90005005FFD000500050
000CFF4004100AFFF200410050
003FFE0005000EFFF700050042
009FFA00050017777500050005
00EFF700230000000000050005
05FFF600320000000000050005
09FFF600365555555555580005
0DFFF600320000000000050005
0FFFF600320000000000050005
1FFFF60032007CCCCC10050005
1FFFF60032009FFFFF10050005
1FFFF60032009FFFFF10050005
1FFFF60000009FFFFF10000005
1FFFF600000056FFFF10000005
1FFFF800000046FFFF30000005
1FFFFFDCCCC806FFFFECCCCCA1
1FFFFFFFFF8006FFFFFFFFF900
0FFFFFFFF70005FFFFFFFF7000
0BFFFFFE500001DFFFFFD40000
ENDCHAR
STARTCHAR adieresis
ENCODING 228
SWIDTH 830 0
DWIDTH 27 0
BBX 26 35 0 -4
BITMAP
00000001555555305555554000
0000002C0000006A3000005000
000003ED0000008F2000005000
00005EFD0005008F2005005000
0004FFFD0002008F2002005000
0008FFFD0000008F2000005000
0009FFFF200000BF5000006000
0009FFFFFFFFFFFFFFFFFD2000
0009FFFFFE6444444444730000
0008FFFFF60000000000050000
0004EFFFE10000000000041000
000002CF900035555510005000
00000CFF300330000060005000
00004FFC000500000023002300
0000AFF7001400AF3005000500
0001FFF1005001FF8004200410
0006FFA0005005FFD000500040
000CFF5004100AFFF200410050
003FFE0005000EFFF700050041
009FFB00050017777500050004
00EFF800230000000000050005
05FFF600320000000000050005
09FFF600365555555555580005
0DFFF600320000000000050005
0FFFF600320000000000050005
1FFFF60032007CCCCC10050005
1FFFF60032009FFFFF10050005
1FFFF60032009FFFFF10050005
1FFFF60000009FFFFF10000005
1FFFF600000056FFFF10000005
1FFFF800000046FFFF30000005
1FFFFFDCCCC806FFFFECCCCCA1
1FFFFFFFFF8006FFFFFFFFFA00
0FFFFFFFF70005FFFFFFFF7000
0BFFFFFE500001DFFFFFE50000
ENDCHAR
STARTCHAR aring
ENCODING 229
SWIDTH 830 0
DWIDTH 27 0
BBX 26 36 0 -4
BITMAP
00000000000255555552000000
00000000035200000003620000
00000000540000000000060000
00000007B00035555530015000
0000009F700620000044005000
00000BFF600502AC9105005000
00008FFF602306FFF405005000
0000DFFF702306FFF405005000
0000FFFF900503DFC105005000
0000FFFFE10620000034032000
0000FFFFF30045555530050000
0000EFFFC00000000000014000
0000CFFF600035555510005000
00005FFF100330000060004100
00005FFA000500000023000500
0000BFF5001400AF3005000500
0002FFE0005001FF8004200320
0008FF80005005FFD000500050
000DFF3004100AFFF200410050
004FFD0005000EFFF700050032
00AFFA00050017777500050005
01EFF700230000000000050005
05FFF600320000000000050005
0AFFF600365555555555580005
0DFFF600320000000000050005
0FFFF600320000000000050005
1FFFF60032007CCCCC10050005
1FFFF60032009FFFFF10050005
1FFFF60032009FFFFF10050005
1FFFF60000009FFFFF10000005
1FFFF600000056FFFF10000005
1FFFF800000046FFFF30000005
1FFFFFDCCCC806FFFFECCCCC91
1FFFFFFFFF8006FFFFFFFFF900
0FFFFFFFF70005FFFFFFFF7000
0AFFFFFE500001DFFFFFD40000
ENDCHAR
STARTCHAR ae
ENCODING 230
SWIDTH 1105 0
DWIDTH 35 0
BBX 35 28 0 -4
BITMAP
000000000555555555555555555555555530
00000000A300000000000000000000000050
0000001BD000000000000000000000000050
000002DF7000000000000000000000000050
00001EFF2000555555555655555555520050
00006FFC0005000000000500000000000050
0000CFF60005000000000500000000000140
0002FFF10032008FFC0005000FFFFFFFF700
0007FFB0005000EFFC0005000FFFFFFF5000
000CFF60004004FFFC000500077777770000
003FFF10031009FFFC000500000000050000
008FFC0004000EFFFC000500000000050000
00DFF8000400299997000644444430050000
03FFF7003200000000000500000000050000
08FFF6004100000000000500000000030000
0CFFF60045555555555556000ABBBB810000
0EFFF60041000000000005000FFFFA100000
0FFFF60041000000000005000AAA95555520
1FFFF60041008CCCCA000500000000000050
1FFFF60041009FFFFC000500000000000050
1FFFF60041009FFFFC000500000000000050
1FFFF60031009FFFFC000555555555520050
1FFFF60000005AFFFC000000000000000050
1FFFF80000004AFFFD000000000000000040
1FFFFFDCCCC80AFFFFDCCCCCCCCCCCCCC700
1FFFFFFFFF800AFFFFFFFFFFFFFFFFFF7000
0FFFFFFFF6000AFFFFFFFFFFFFFFFFF50000
0AFFFFFE500005EFFFFFFFFFFFFFFD400000
ENDCHAR
STARTCHAR ccedilla
ENCODING 231
SWIDTH 728 0
DWIDTH 23 0
BBX 22 31 1 -7
BITMAP
0000000255555555555554
0000005400000000000005
0000181000000000000005
0002C40001555555552005
004ED00035000000000005
04FFA00060000000000006
1EFF800050007CCCCCCCB2
7FFF80005002FFFFFFFB10
BFFF80005003FFFFFF8000
DFFF80005003FFFFE50000
EFFF800050032000000000
EFFF800050032000000000
EFFF800050032000000000
EFFF800050032000000000
EFFF800050032000000000
EFFF800050032000000000
EFFF800050014000000000
EFFF900050004555555552
EFFFA00050000000000005
DFFFE00035000000000005
CFFFF60001555557552005
AFFFFE4000000014000005
5FFFFFF930000050000005
0DFFFFFFFEB1005004AA93
04FFFFFFFFB000200BFD20
004EFFFFFF5000002FA100
00016ADFFF100000870000
0000009FFFEDDDDC400000
000001EFFFFFFFC2000000
000005FFFFFFF900000000
000004EFFFFE6000000000
ENDCHAR
STARTCHAR egrave
ENCODING 232
SWIDTH 754 0
DWIDTH 24 0
BBX 23 36 1 -4
BITMAP
0000006A9753200000000000
000009B4679BDEDB97520000
0001BF6000000024579C1000
002DFF600355531000032000
00DFFF600000024550032000
00FFFF700000000000032000
00FFFFD75320000000031000
00FFFFFFFFFFDB9764210000
00FFF7555555555555555620
00BFE0000000000000000050
002ED0000000000000000050
03DFD0000000000000000050
3EFFD0005555555555510050
8FFFD0005000000000000050
8FFFD0005000000000000320
8FFFD0005000EFFFFFFFE400
8FFFD0005000EFFFFFFD3000
8FFFD0005000777777850000
8FFFD0005000000000050000
8FFFD0005000000000050000
8FFFD0006555555530050000
8FFFD0005000000000050000
8FFFD0005000000000040000
8FFFD0005000DDDDDD910000
8FFFD0005000EFFFF7000000
8FFFD00050009AAA85555500
8FFFD0005000000000000140
8FFFD0005000000000000050
8FFFD0005000000000000050
8FFFD0005555555555510050
8FFFD0000000000000000050
8FFFE1000000000000000130
8FFFFECCCCCCCCCCCCCCC500
8FFFFFFFFFFFFFFFFFFE4000
8FFFFFFFFFFFFFFFFFE30000
4EFFFFFFFFFFFFFFFC200000
ENDCHAR
STARTCHAR eacute
ENCODING 233
SWIDTH 754 0
DWIDTH 24 0
BBX 23 36 1 -4
BITMAP
0000000000000013579A8000
00000001579BDEDCA8649100
0000003CA864200000003200
000005E70000134554003200
00007FF60045420000003200
0009FFF60000000000002000
001FFFF60000000013542000
001FFFF923579BDEFFA10000
001FF7555555555555555620
001FE0000000000000000050
008FD0000000000000000050
0AFFD0000000000000000050
6FFFD0005555555555510050
8FFFD0005000000000000050
8FFFD0005000000000000320
8FFFD0005000EFFFFFFFE400
8FFFD0005000EFFFFFFD3000
8FFFD0005000777777850000
8FFFD0005000000000050000
8FFFD0005000000000050000
8FFFD0006555555530050000
8FFFD0005000000000050000
8FFFD0005000000000040000
8FFFD0005000DDDDDD910000
8FFFD0005000EFFFF7000000
8FFFD00050009AAA85555500
8FFFD0005000000000000140
8FFFD0005000000000000050
8FFFD0005000000000000050
8FFFD0005555555555510050
8FFFD0000000000000000050
8FFFE1000000000000000130
8FFFFECCCCCCCCCCCCCCC500
8FFFFFFFFFFFFFFFFFFE4000
8FFFFFFFFFFFFFFFFFE30000
4EFFFFFFFFFFFFFFFC200000
ENDCHAR
STARTCHAR ecircumflex
ENCODING 234
SWIDTH 754 0
DWIDTH 24 0
BBX 23 36 1 -4
BITMAP
000000000002555200000000
000000001442000355200000
000000142000000000362000
000003A00004555300005000
00005EB00251000251005000
0007FFB00000000000005000
006FFFC00159DFD940004000
00AFFFE8BFFFFFFFFEB62000
00BFF7555555555555555620
00BFE0000000000000000050
00AFD0000000000000000050
02DFD0000000000000000050
3EFFD0005555555555510050
8FFFD0005000000000000050
8FFFD0005000000000000320
8FFFD0005000EFFFFFFFE400
8FFFD0005000EFFFFFFD3000
8FFFD0005000777777850000
8FFFD0005000000000050000
8FFFD0005000000000050000
8FFFD0006555555530050000
8FFFD0005000000000050000
8FFFD0005000000000040000
8FFFD0005000DDDDDD910000
8FFFD0005000EFFFF7000000
8FFFD00050009AAA85555500
8FFFD0005000000000000140
8FFFD0005000000000000050
8FFFD0005000000000000050
8FFFD0005555555555510050
8FFFD0000000000000000050
8FFFE1000000000000000130
8FFFFECCCCCCCCCCCCCCC500
8FFFFFFFFFFFFFFFFFFE4000
8FFFFFFFFFFFFFFFFFE30000
4EFFFFFFFFFFFFFFFC200000
ENDCHAR
STARTCHAR edieresis
ENCODING 235
SWIDTH 754 0
DWIDTH 24 0
BBX 23 35 1 -4
BITMAP
000000555555503555556100
000009500000379000000500
0001AF4000002F9000000500
001CFF4005002F9005000500
00CFFF4002002F9002000500
02FFFF4000002F9000000400
02FFFF8000005FB000005000
02FFFFFFFFFFFFFFFFFFFD20
02FFF6444444444444444750
02FFE0000000000000000050
00EFD0000000000000000050
09FFD0005555555555510050
7FFFD0005000000000000050
8FFFD0005000000000000220
8FFFD0005000EFFFFFFFE400
8FFFD0005000EFFFFFFD3000
8FFFD0005000777777850000
8FFFD0005000000000050000
8FFFD0005000000000050000
8FFFD0006555555530050000
8FFFD0005000000000050000
8FFFD0005000000000040000
8FFFD0005000DDDDDD910000
8FFFD0005000EFFFF7000000
8FFFD00050009AAA85555500
8FFFD0005000000000000140
8FFFD0005000000000000050
8FFFD0005000000000000050
8FFFD0005555555555510050
8FFFD0000000000000000050
8FFFE1000000000000000130
8FFFFECCCCCCCCCCCCCCC500
8FFFFFFFFFFFFFFFFFFE4000
8FFFFFFFFFFFFFFFFFE30000
4EFFFFFFFFFFFFFFFC200000
ENDCHAR
STARTCHAR igrave
ENCODING 236
SWIDTH 705 0
DWIDTH 23 0
BBX 22 36 0 -4
BITMAP
0000004A98642000000000
000006D4579BDEDBA86300
00009F9000000013579C30
001BFF9002555420000150
00AFFF9000000135510050
00CFFFA000000000000050
00CFFFE864200000000040
00CFFFFFFFFFDBA8642100
00CFFC5555555555555554
008FF60000000000000005
000AF60000000000000005
009FF60000000000000005
0BFFF60045555655552005
1FFFF60000000500000005
1FFFFA3332000500023344
1FFFFFFFFB0005000EFF60
1FFFFFFFFB0005000EE400
1FFFFFFFFB0005000C3000
06AAAEFFFB000500050000
00000BFFFB000500050000
00000BFFFB000500050000
00000BFFFB000500050000
00000BFFFB000500050000
00000BFFFB000500050000
00000BFFFB000500050000
00000AAAA7000500065552
0000770000000500000005
0008F60000000500000005
01AFF60000000500000005
0BFFF60045555655552005
1FFFF60000000000000005
1FFFF70000000000000004
1FFFFFCCCCCCCCCCCCCC80
1FFFFFFFFFFFFFFFFFF800
1FFFFFFFFFFFFFFFFF6000
0BFFFFFFFFFFFFFFD40000
ENDCHAR
STARTCHAR iacute
ENCODING 237
SWIDTH 705 0
DWIDTH 23 0
BBX 22 36 0 -4
BITMAP
000000000000013468AA10
0000000478ACEECA865650
000001BA86431000000050
00002DA000002455510050
0004EF9002543100000050
005FFF9000000000000020
00CFFF9000000001345100
00CFFFC23578ACEFFD2000
00CFFC5555555555555554
00CFF60000000000000005
00CFF60000000000000005
009FF60000000000000005
06FFF60045555655552005
1FFFF60000000500000005
1FFFFA3332000500023344
1FFFFFFFFB0005000EFF60
1FFFFFFFFB0005000EE400
1FFFFFFFFB0005000C3000
06AAAEFFFB000500050000
00000BFFFB000500050000
00000BFFFB000500050000
00000BFFFB000500050000
00000BFFFB000500050000
00000BFFFB000500050000
00000BFFFB000500050000
00000AAAA7000500065552
0000770000000500000005
0008F60000000500000005
01AFF60000000500000005
0BFFF60045555655552005
1FFFF60000000000000005
1FFFF70000000000000004
1FFFFFCCCCCCCCCCCCCC80
1FFFFFFFFFFFFFFFFFF800
1FFFFFFFFFFFFFFFFF6000
0BFFFFFFFFFFFFFFD40000
ENDCHAR
STARTCHAR icircumflex
ENCODING 238
SWIDTH 705 0
DWIDTH 23 0
BBX 22 36 0 -4
BITMAP
0000000000034552000000
0000000013420003551000
0000001320000000004610
0000038000045553000150
00004E9002410002510050
0006FF9000000000000050
006FFFA0015AEFC8400050
00CFFFD8CFFFFFFFFEA610
00CFFC5555555555555554
00CFF60000000000000005
00CFF60000000000000005
00BFF60000000000000005
05EFF60045555655552005
0FFFF60000000500000005
1FFFFA3332000500023344
1FFFFFFFFB0005000EFF60
1FFFFFFFFB0005000EE400
1FFFFFFFFB0005000C3000
06AAAEFFFB000500050000
00000BFFFB000500050000
00000BFFFB000500050000
00000BFFFB000500050000
00000BFFFB000500050000
00000BFFFB000500050000
00000BFFFB000500050000
00000AAAA7000500065552
0000770000000500000005
0008F60000000500000005
01AFF60000000500000005
0BFFF60045555655552005
1FFFF60000000000000005
1FFFF70000000000000004
1FFFFFCCCCCCCCCCCCCC80
1FFFFFFFFFFFFFFFFFF800
1FFFFFFFFFFFFFFFFF6000
0BFFFFFFFFFFFFFFD40000
ENDCHAR
STARTCHAR idieresis
ENCODING 239
SWIDTH 705 0
DWIDTH 23 0
BBX 22 35 0 -4
BITMAP
0000015555553055555540
00002C0000006B30000050
0003ED0000009F20000050
005EFD0005009F20050050
04FFFD0002009F20020050
09FFFD0000009F20000030
09FFFE200001BF50000240
09FFFFFFFFFFFFFFFFFFE4
09FFFB4444444444444458
09FFF60000000000000005
04EFF60000000000000005
05EFF60045555655552005
0FFFF60000000500000004
1FFFFA3332000500023333
1FFFFFFFFB0005000EFF60
1FFFFFFFFB0005000EE400
1FFFFFFFFB0005000C3000
06AAAEFFFB000500050000
00000BFFFB000500050000
00000BFFFB000500050000
00000BFFFB000500050000
00000BFFFB000500050000
00000BFFFB000500050000
00000BFFFB000500050000
00000AAAA7000500065552
0000770000000500000005
0008F60000000500000005
01AFF60000000500000005
0BFFF60045555655552005
1FFFF60000000000000005
1FFFF70000000000000004
1FFFFFCCCCCCCCCCCCCC80
1FFFFFFFFFFFFFFFFFF800
1FFFFFFFFFFFFFFFFF6000
0BFFFFFFFFFFFFFFD40000
ENDCHAR
STARTCHAR eth
ENCODING 240
SWIDTH 856 0
DWIDTH 27 0
BBX 28 28 -1 -4
BITMAP
0000001655555555555555440000
000002D300000000000000015200
00003EF300000000000000000620
0005FFF300000000000000000070
002FFFF300355555555552000050
003FFFF300500000000004500023
004FFFF300500000000000320005
004FFFF30050007BBBB400050005
004FFFF30050009FFFFB00050005
004FFFF30050009FFFFC00050005
004FF800005000006FFC00050005
004FF500005000002FFC00050005
01CFF500458554002FFC00050005
0DFFF500005000002FFC00050005
2FFFF500005000003FFC00050005
2FFFFC7100500047BFFC00050005
2FFFFFF30050009EFFFB00050005
2FFFFFF30050007CFFE600050005
1FFFFFF300500000000000050014
06BFFFF300500000000000330041
004FFFF300500000000003500060
004FFFF300355555555552000240
004FFFF300000000000000002400
004FFFF500000000000000384000
004FFFFECCCCCCCCCCCDDFE40000
004FFFFFFFFFFFFFFFFFFD300000
003FFFFFFFFFFFFFFFFFB1000000
001CFFFFFFFFFFFFEC9300000000
ENDCHAR
STARTCHAR ntilde
ENCODING 241
SWIDTH 853 0
DWIDTH 27 0
BBX 25 35 1 -4
BITMAP
00000000045555541014630000
00000003610000024652050000
0000005E000000000000050000
000008FF001555420000050000
0000AFFF000000035520040000
0006FFFF000000000000010000
0007FFFF458AA8642013100000
0007F75555AFFFFFFD55555550
0007E0000009FFFFF700000050
004ED0000000BFFFF700000050
06FFD00000001CFFF700000050
5FFFD000640002FFF700230050
8FFFD0005330006FF700230050
8FFFD00050420009F700230050
8FFFD00050051000C700230050
8FFFD000500061002600230050
8FFFD000500006000000230050
8FFFD000500001600000230050
8FFFD000500000150000230050
8FFFD000500010024000230050
8FFFD0005000C0003300230050
8FFFD0005000F9000430230050
8FFFD0005000FF700042230050
8FFFD0005000FFF40005330050
8FFFD0005000FFFE2000730050
8FFFD0005000FFFFD100230050
8FFFD0005000FFFFF700230050
8FFFD0005000FFFFF700230050
8FFFD0002000FFFFF700110050
8FFFD00000008FFFF700000050
8FFFE10000024FFFF900000040
8FFFFECCCCC80FFFFFDCCCCA20
8FFFFFFFFF600FFFFFFFFFB100
8FFFFFFFE4000FFFFFFFF90000
4EFFFFFC20000AFFFFFE700000
ENDCHAR
STARTCHAR ograve
ENCODING 242
SWIDTH 837 0
DWIDTH 27 0
BBX 25 36 1 -4
BITMAP
00000001775310000000000000
0000003C5579BCCA9753100000
000004EB000000013578B30000
00007FFB002553100000060000
0007FFFB000002355510050000
000BFFFB000000000000050000
000BFFFF964200000000040000
000BFFFFFFFFFECA8642110000
000BFFFFD85210001258720000
0006FFD4000000000000046000
00001710000000000000001600
0001A300002555555510000310
002CC000064000000055000050
03EF9000510000000002400040
1DFF8000500059A94000500050
7FFF80005002FFFFF100500050
BFFF80005003FFFFF300500050
DFFF80005003FFFFF300500050
EFFF80005003CFFFF300500050
EFFF800050036FFFF300500050
EFFF800050036FFFF300500050
EFFF800050036FFFF300500050
EFFF800050036FFFF300500050
EFFF800050036FFFF300500050
EFFF800050036FFFF200500050
EFFF800050008EFE9000500050
EFFF9000500000000000500050
EFFFB000510000000002400050
DFFFF200054000000045000230
CFFFFA00001555555510000600
9FFFFFA1000000000000027100
5FFFFFFEA52000000025A90000
0CFFFFFFFFFFDCCCDFFF700000
02DFFFFFFFFFFFFFFFE4000000
0019EFFFFFFFFFFFFB20000000
000016ACEFFFECA72000000000
ENDCHAR
STARTCHAR oacute
ENCODING 243
SWIDTH 837 0
DWIDTH 27 0
BBX 25 36 1 -4
BITMAP
00000000000000002467810000
000000001468ABCCA975560000
00000008B86531000000050000
000001AC000000235510050000
00002CFB002555310000050000
0003EFFB000000000000030000
000AFFFB000000001246100000
000BFFFD23468ACEFFE5000000
000BFFFFD85210001245620000
000BFFD4000000000000046000
0009FC10000000000000001600
0003E300002555555510000420
001BC000064000000055000050
02DF9000510000000002400050
0DFF8000500059A94000500050
6FFF80005002FFFFF100500050
BFFF80005003FFFFF300500050
DFFF80005003FFFFF300500050
EFFF80005003CFFFF300500050
EFFF800050036FFFF300500050
EFFF800050036FFFF300500050
EFFF800050036FFFF300500050
EFFF800050036FFFF300500050
EFFF800050036FFFF300500050
EFFF800050036FFFF200500050
EFFF800050008EFE9000500050
EFFF9000500000000000500050
EFFFB000510000000002400050
DFFFF200054000000045000230
CFFFFA00001555555510000600
9FFFFFA1000000000000027100
5FFFFFFEA52000000025A80000
0CFFFFFFFFFFDCCCDFFF700000
02DFFFFFFFFFFFFFFFE4000000
0019FFFFFFFFFFFFFB20000000
000016ACEFFFECA72000000000
ENDCHAR
STARTCHAR ocircumflex
ENCODING 244
SWIDTH 837 0
DWIDTH 27 0
BBX 25 36 1 -4
BITMAP
00000000000025552000000000
00000000014420003541000000
00000002420000000003510000
0000003A000045553000050000
000005FB002510002510050000
00008FFB000000000000050000
0007FFFB00159DFD8400050000
000BFFFE8BFFFFFFFFEA830000
000BFFFFEA643222346A910000
000BFFE6000000000000055000
000AFD20000000000000002500
0005F400002555555510000410
001BD000064000000055000050
02DF9000510000000002400040
0DFF8000500059A94000500050
6FFF80005002FFFFF100500050
AFFF80005003FFFFF300500050
DFFF80005003FFFFF300500050
EFFF80005003CFFFF300500050
EFFF800050036FFFF300500050
EFFF800050036FFFF300500050
EFFF800050036FFFF300500050
EFFF800050036FFFF300500050
EFFF800050036FFFF300500050
EFFF800050036FFFF200500050
EFFF800050008EFE9000500050
EFFF9000500000000000500050
EFFFB000510000000002400050
DFFFF100054000000045000230
CFFFFA00001555555510000600
9FFFFFA1000000000000027100
5FFFFFFEA52000000025A90000
0CFFFFFFFFFFDCCCDFFF700000
02DFFFFFFFFFFFFFFFE5000000
0019FFFFFFFFFFFFFB20000000
000016ACEFFFECA72000000000
ENDCHAR
STARTCHAR otilde
ENCODING 245
SWIDTH 837 0
DWIDTH 27 0
BBX 25 35 1 -4
BITMAP
00000000155555420015610000
00000005500000024551050000
0000008B000000000000050000
00001AFB002555420000050000
0001CFFB000000135510050000
0009FFFB000000000000040000
000BFFFD369AA8531015700000
000BFFFFFFDB99899BDC100000
000BFFFC610000000001562000
000AFF60000000000000006300
0003E700002555555510000600
001BE000064000000055000140
02DFA000510000000002400050
0DFF9000500059A94000500050
6FFF80005002FFFFF100500050
BFFF80005003FFFFF300500050
DFFF80005003FFFFF300500050
EFFF80005003CFFFF300500050
EFFF800050036FFFF300500050
EFFF800050036FFFF300500050
EFFF800050036FFFF300500050
EFFF800050036FFFF300500050
EFFF800050036FFFF300500050
EFFF800050036FFFF200500050
EFFF800050008EFE9000500050
EFFF9000500000000000500050
EFFFB000510000000002400050
DFFFF100054000000045000240
CFFFF900001555555510000700
9FFFFFA1000000000000027100
5FFFFFFE951000000025AA1000
0CFFFFFFFFFEDCCCDEFF800000
02DFFFFFFFFFFFFFFFE5000000
0019FFFFFFFFFFFFFB20000000
000016ACEFFFEDA72000000000
ENDCHAR
STARTCHAR odieresis
ENCODING 246
SWIDTH 837 0
DWIDTH 27 0
BBX 25 35 1 -4
BITMAP
00000016555554055555550000
000002D1000006C50000041000
00004EF0002007F40020032000
0006FFF0005007F40050032000
005FFFF0000007F40000032000
007FFFF0000007F40000032000
007FFFF300000AF70000050000
007FFFFFFFFEDDCDDFFFD30000
007FFFFE952000000025750000
006FFFA1000000000000027100
0004DA00002555555510000600
001BF100064000000055000230
02DFB000510000000002400050
0DFF9000500059A94000500050
6FFF80005002FFFFF100500050
BFFF80005003FFFFF300500050
DFFF80005003FFFFF300500050
EFFF80005003CFFFF300500050
EFFF800050036FFFF300500050
EFFF800050036FFFF300500050
EFFF800050036FFFF300500050
EFFF800050036FFFF300500050
EFFF800050036FFFF300500050
EFFF800050036FFFF200500050
EFFF800050008EFE9000500050
EFFF9000500000000000500050
EFFFB000510000000002400050
DFFFE100054000000045000240
CFFFF900001555555510000700
9FFFFF91000000000000018100
5FFFFFFE951000000025AA1000
0CFFFFFFFFFEDCCCDEFF800000
02DFFFFFFFFFFFFFFFF5000000
0019FFFFFFFFFFFFFB30000000
000016ACEFFFEDA72000000000
ENDCHAR
STARTCHAR divide
ENCODING 247
SWIDTH 834 0
DWIDTH 27 0
BBX 25 25 1 -2
BITMAP
00000000002555555510000000
0000000003A000000050000000
000000005EA000100050000000
00000006FFA000500050000000
0000006FFFA000100050000000
000000BFFFA000000050000000
000000CFFFB000000050000000
000000CFFFFA99999810000000
0000169AAAAAAAAAA655555600
0003D000000000000000000230
006FE001555555555555500140
0AFFE000000000000000000140
7FFFE000000000000000000130
8FFFF311111111111111111100
8FFFFFFFFFFFFFFFFFFFFF8000
8FFFFFFFFFE4444445FFE50000
4EFFFFFFFFA0001000CC200000
0000001BFFA000500050000000
0000009FFFA000100050000000
000000BFFFA000000050000000
000000CFFFC000000030000000
000000CFFFFDCCCCC500000000
000000CFFFFFFFFF5000000000
000000BFFFFFFFE40000000000
0000006EFFFFFD300000000000
ENDCHAR
STARTCHAR oslash
ENCODING 248
SWIDTH 837 0
DWIDTH 27 0
BBX 25 32 1 -6
BITMAP
00000000000000000555555100
0000000000000001A100002300
00000000366555553000005000
00000036300000000021006000
00000640000000000050004300
00009600002555555550000510
001BE000163000000588100050
02DFA000600000000701700050
1DFF80032003CEA03300510050
6FFF8005000CFF407000230050
BFFF8005000DFC015000140050
DFFF8005000DF6060100140050
EFFF8005000DE1060700140050
EFFF8005000D80522C00140050
EFFF8005000D20708C00140050
EFFF800500080340EC00140050
EFFF800500020705FC00140050
EFFF80050000160CFC00140050
EFFF80050000613FFC00140050
EFFF80041000709FF600130050
EFFF9002400420441000410050
EFFFB000800700000000600050
DFFFE000297500000036100140
CFFFF700006555555520000500
AFFFFF60005000000000016100
6FFFFFC0011000000003880000
1EFFFF5000008AABBDFF700000
06FFFF311116FFFFFFE5000000
00AFFFFFFFFFFFFFFB20000000
00EFFFFFFFFFEDA72000000000
05FFFFFFA00000000000000000
04EFFFE9000000000000000000
ENDCHAR
STARTCHAR ugrave
ENCODING 249
SWIDTH 846 0
DWIDTH 27 0
BBX 25 36 1 -4
BITMAP
00000005A97642000000000000
0000007D4579BDEDBA86200000
000009F9000000013579C20000
0001BFF9003555320000140000
000BFFF9000000135510040000
000DFFF9000000000000040000
000DFFFE864200000000040000
000DFFFFFFFFFDBA8642100000
000CE6555557FFFFFB55555550
000AB0000000EFFFF500000050
00AFB0000000CEFFF500000050
1CFFB000300054EFF500210050
9FFFB00050005EFFF500410050
BFFFB00050006FFFF500410050
BFFFB00050006FFFF500410050
BFFFB00050006FFFF500410050
BFFFB00050006FFFF500410050
BFFFB00050006FFFF500410050
BFFFB00050006FFFF500410050
BFFFB00050006FFFF500410050
BFFFB00050006FFFF500410050
BFFFB00050006FFFF500410050
BFFFB00050006FFFF500410050
BFFFB00050006FFFF500410050
BFFFB00050006FFFF500410050
BFFFB00050007FFFE200410050
BFFFC000500002431000500050
BFFFE000230000000001500050
AFFFF400045100000046000140
9FFFFC10001455555520000600
6FFFFFC3000000000000016100
2FFFFFFFB62000000015990000
09FFFFFFFFFFDDCCDEFF700000
00BFFFFFFFFFFFFFFFE5000000
0007EFFFFFFFFFFFFB20000000
0000059CEFFFEDB72000000000
ENDCHAR
STARTCHAR uacute
ENCODING 250
SWIDTH 846 0
DWIDTH 27 0
BBX 25 36 1 -4
BITMAP
00000000000000023579A60000
000000001579BDEDB986490000
00000004D97542000000050000
0000007F400001355540050000
000009FF300454200000050000
0000BFFF300000000000020000
0003FFFF300000000235310000
0004FFFF724579BDFFF8000000
0004E6555557FFFFFB55555550
0008B0000000EFFEF500000050
00AFB0000000723DF500000050
1CFFB000300054EFF500210050
9FFFB00050005EFFF500410050
BFFFB00050006FFFF500410050
BFFFB00050006FFFF500410050
BFFFB00050006FFFF500410050
BFFFB00050006FFFF500410050
BFFFB00050006FFFF500410050
BFFFB00050006FFFF500410050
BFFFB00050006FFFF500410050
BFFFB00050006FFFF500410050
BFFFB00050006FFFF500410050
BFFFB00050006FFFF500410050
BFFFB00050006FFFF500410050
BFFFB00050006FFFF500410050
BFFFB00050007FFFE200410050
BFFFC000500002431000500050
BFFFE000230000000001500050
AFFFF400045100000046000140
9FFFFC10001455555520000600
6FFFFFC3000000000000016100
2FFFFFFFB62000000015990000
09FFFFFFFFFFDDCCDEFF700000
00BFFFFFFFFFFFFFFFE5000000
0007EFFFFFFFFFFFFB20000000
0000059CEFFFEDB72000000000
ENDCHAR
STARTCHAR ucircumflex
ENCODING 251
SWIDTH 846 0
DWIDTH 27 0
BBX 25 36 1 -4
BITMAP
00000000000025553000000000
00000000025530002553000000
00000002630000000003630000
0000004D000035554000050000
000007FD001520001520050000
0001AFFD000000000000050000
0007FFFE00048DFD9510050000
0008FFFF8AEFFFFFFFFB720000
0008E6555557FFFFFB55555550
000AB0000000EFFFF500000050
01AFB000000065CFF500000050
1CFFB000300053EFF500310050
9FFFB00050005EFFF500410050
BFFFB00050006FFFF500410050
BFFFB00050006FFFF500410050
BFFFB00050006FFFF500410050
BFFFB00050006FFFF500410050
BFFFB00050006FFFF500410050
BFFFB00050006FFFF500410050
BFFFB00050006FFFF500410050
BFFFB00050006FFFF500410050
BFFFB00050006FFFF500410050
BFFFB00050006FFFF500410050
BFFFB00050006FFFF500410050
BFFFB00050006FFFF500410050
BFFFB00050005DEEA100410050
BFFFC000500000000000500050
BFFFE000230000000001500050
AFFFF400045100000035000140
9FFFFC10001455555520000600
6FFFFFC3000000000000016100
2FFFFFFFB62000000015990000
09FFFFFFFFFFDDCCDEFF700000
00BFFFFFFFFFFFFFFFE5000000
0007EFFFFFFFFFFFFB20000000
0000059CEFFFEDB72000000000
ENDCHAR
STARTCHAR udieresis
ENCODING 252
SWIDTH 846 0
DWIDTH 27 0
BBX 25 35 1 -4
BITMAP
00000005555555055555560000
000001B3000005A70000024000
00002DF2002005F60020014000
0004EFF2005005F60050014000
002FFFF2000005F60000014000
005FFFF2000005F60000013000
005FFFF5000008F90000050000
005FFFFFFFFFFFFFFFFFFFFF70
005FE5444447FFFFFB444445A0
006FB0000000EFFFF500000050
05FFB0000000CCEFF500000050
6FFFB000400056FFF500310050
BFFFB00050006FFFF500410050
BFFFB00050006FFFF500410050
BFFFB00050006FFFF500410050
BFFFB00050006FFFF500410050
BFFFB00050006FFFF500410050
BFFFB00050006FFFF500410050
BFFFB00050006FFFF500410050
BFFFB00050006FFFF500410050
BFFFB00050006FFFF500410050
BFFFB00050006FFFF500410050
BFFFB00050006FFFF500410050
BFFFB00050006FFFF500410050
BFFFB00050007FFFF200410050
BFFFC000500014552000500050
BFFFE000330000000001500040
BFFFF300045000000036000130
9FFFFC00001455555520000500
7FFFFFB2000000000000016100
2FFFFFFFA52000000014980000
09FFFFFFFFFFDDCCDEFF700000
01BFFFFFFFFFFFFFFFE5000000
0007EFFFFFFFFFFFFB20000000
000016ACEFFFEDB72000000000
ENDCHAR
STARTCHAR yacute
ENCODING 253
SWIDTH 805 0
DWIDTH 26 0
BBX 26 36 0 -4
BITMAP
00000000000000013568A90000
000000000479ACEECA86473000
00000002CA8642100000014000
0000003D900001245550014000
000005EF800354210000014000
00006FFF800000000000001000
0000DFFF800000000135510000
0000EFFFB23579ACEFFC100000
0000E9555556EFFFFE65555560
0003F2000000AFFEFB00000032
004EF20000006319FB00000032
06FFF200300051BFFB00030032
3FFFF200500058FFFB00050032
5FFFF20050005BFFFB00050032
5FFFF20050005BFFFB00050032
5FFFF20050005BFFFA00050032
5FFFF20050003CFFF500050041
5FFFF30014000AFFC000410050
5FFFF700051002EF3001400060
5FFFFE10005000340006000240
4FFFFFA0002400000041000600
2FFFFFF6000410000230005100
0CFFFFFE200050001500033000
04FFFFFFC00005654000150000
008FFFFFF80000320000600000
000CFFFFFF4000320004200000
0002EFFFFFE100320014000000
00006FFFFFF400320041000000
00000AFFFFF400320041000000
000001DFFFF400110041000000
0000005FFFF400000041000000
0000003FFFF500000050000000
0000003FFFFFCCCCCB40000000
0000003FFFFFFFFFD200000000
0000003FFFFFFFFB1000000000
0000001CFFFFFF900000000000
ENDCHAR
STARTCHAR thorn
ENCODING 254
SWIDTH 792 0
DWIDTH 25 0
BBX 24 28 1 -4
BITMAP
000045555555200000000000
0006D0000000500000000000
008FD0000000500000000000
0AFFD0000000500000000000
6FFFD0005000455555552000
8FFFD0005000000000003600
8FFFD0005000000000000160
8FFFD0006555555555000042
8FFFD0005000000001620005
8FFFD0005000000000060005
8FFFD0005000CDDB20050005
8FFFD0005000EFFF60040005
8FFFD0005000EFFF70041005
8FFFD0005000EFFF70041005
8FFFD0005000EFFD20040005
8FFFD0005000000000050005
8FFFD0005000000000050005
8FFFD0005000000000520024
8FFFD0006555555555100060
8FFFD0005000000000000610
8FFFD0005000000001479100
8FFFD0002000DFFFFFF90000
8FFFD0000000DFFFFF700000
8FFFE1000000EFFFD4000000
8FFFFECCCCCCCB8400000000
8FFFFFFFFF80000000000000
8FFFFFFFF500000000000000
4EFFFFFD3000000000000000
ENDCHAR
STARTCHAR ydieresis
ENCODING 255
SWIDTH 805 0
DWIDTH 26 0
BBX 26 35 0 -4
BITMAP
00000004555555025555552000
000000780000018B0000005000
000009F7000000FB0000005000
0001BFF7005000FB0023005000
000CFFF7002000FB0011005000
000FFFF7000000FB0000004000
000FFFFA000003FD1000041000
000FFFFFFFFFFFFFFFFFFFFFB0
000FF9444445EFFFFE544444A2
000EF2000000AFFFFB00000032
01AFF20000008BCFFB00000032
1CFFF200400053DFFB00040032
4FFFF20050005AFFFB00050032
5FFFF20050005BFFFB00050032
5FFFF20050005BFFFB00050032
5FFFF20050005BFFF800050031
5FFFF30032001DFFE100330040
5FFFF500050004FF5000500030
5FFFFC00015000670005100020
5FFFFF70003300000032000200
3FFFFFF3000510000240002100
0EFFFFFD100060001600012000
06FFFFFFB00005655000040000
00AFFFFFF70000320000400000
001DFFFFFF3000320003200000
0003FFFFFFD100320014000000
00007FFFFFF400320041000000
00000BFFFFF400320041000000
000001EFFFF400110041000000
0000005FFFF400000041000000
0000003FFFF500000050000000
0000003FFFFFCCCCCB40000000
0000003FFFFFFFFFD200000000
0000003FFFFFFFFB1000000000
0000001CFFFFFF900000000000
ENDCHAR
STARTCHAR Amacron
ENCODING 256
SWIDTH 830 0
DWIDTH 27 0
BBX 26 34 0 -4
BITMAP
00000000355555555555550000
00000004A00000000000005000
0000006FA00000000000005000
000008FFA00255555551005000
00008FFFA00000000000005000
0000CFFFC10000000000033000
0000CFFFFFFFFFFFFFFFF60000
0000CFFFFE6444444444620000
0000CFFFF60000000000050000
00007EFFE10000000000041000
000002CF900035555510005000
00000CFF300330000060005000
00004FFC000500000023002300
0000AFF7001400AF3005000500
0001FFF1005001FF8004200410
0006FFA0005005FFD000500050
000CFF5004100AFFF200410050
003FFE0005000EFFF700050041
009FFB00050017777500050005
00EFF800230000000000050005
05FFF600320000000000050005
09FFF600365555555555580005
0DFFF600320000000000050005
0FFFF600320000000000050005
1FFFF60032007CCCCC10050005
1FFFF60032009FFFFF10050005
1FFFF60032009FFFFF10050005
1FFFF60000009FFFFF10000005
1FFFF600000056FFFF10000005
1FFFF800000046FFFF30000005
1FFFFFDCCCC806FFFFECCCCCA1
1FFFFFFFFF8006FFFFFFFFFA00
0FFFFFFFF70005FFFFFFFF7000
0BFFFFFE500001DFFFFFE50000
ENDCHAR
STARTCHAR amacron
ENCODING 257
SWIDTH 830 0
DWIDTH 27 0
BBX 26 34 0 -4
BITMAP
00000000355555555555550000
00000004A00000000000005000
0000006FA00000000000005000
000008FFA00255555551005000
00008FFFA00000000000005000
0000CFFFC10000000000033000
0000CFFFFFFFFFFFFFFFF60000
0000CFFFFE6444444444620000
0000CFFFF60000000000050000
00007EFFE10000000000041000
000002CF900035555510005000
00000CFF300330000060005000
00004FFC000500000023002300
0000AFF7001400AF3005000500
0001FFF1005001FF8004200410
0006FFA0005005FFD000500050
000CFF5004100AFFF200410050
003FFE0005000EFFF700050041
009FFB00050017777500050005
00EFF800230000000000050005
05FFF600320000000000050005
09FFF600365555555555580005
0DFFF600320000000000050005
0FFFF600320000000000050005
1FFFF60032007CCCCC10050005
1FFFF60032009FFFFF10050005
1FFFF60032009FFFFF10050005
1FFFF60000009FFFFF10000005
1FFFF600000056FFFF10000005
1FFFF800000046FFFF30000005
1FFFFFDCCCC806FFFFECCCCCA1
1FFFFFFFFF8006FFFFFFFFFA00
0FFFFFFFF70005FFFFFFFF7000
0BFFFFFE500001DFFFFFE50000
ENDCHAR
STARTCHAR Abreve
ENCODING 258
SWIDTH 830 0
DWIDTH 27 0
BBX 26 36 0 -4
BITMAP
00000000455554000555552000
0000000670000501B500005000
0000008F6000053DF301005000
00000AFF701400353005005000
0000AFFF800710000036004000
0000FFFFD00045555530001000
0000FFFFF90000000000110000
0000FFFFFFD741101243000000
0000DFFFFFFFFFFFFFFFC20000
00007FFFFC3111111111590000
00001CFFF50000000000081000
0000006FE00000000000036000
000002CF800035555510009000
00000CFF200330000060007200
00004FFC000500000023001700
0000AFF6001400AF3005000800
0001FFE1005001FF8004200440
0006FFA0005005FFD000500080
000CFF4004100AFFF200410070
003FFE0005000EFFF700050043
009FFA00050017777500050006
00EFF700230000000000050005
05FFF600320000000000050005
09FFF600365555555555580005
0DFFF600320000000000050005
0FFFF600320000000000050005
1FFFF60032007CCCCC10050005
1FFFF60032009FFFFF10050005
1FFFF60032009FFFFF10050005
1FFFF60000009FFFFF10000005
1FFFF600000056FFFF10000005
1FFFF800000046FFFF30000004
1FFFFFDCCCC806FFFFECCCCC91
1FFFFFFFFF8006FFFFFFFFF800
0FFFFFFFF70005FFFFFFFF6000
0BFFFFFE500001DFFFFFD40000
ENDCHAR
STARTCHAR abreve
ENCODING 259
SWIDTH 830 0
DWIDTH 27 0
BBX 26 36 0 -4
BITMAP
00000000455554000555552000
0000000670000501B500005000
0000008F6000053DF301005000
00000AFF701400353005005000
0000AFFF800710000036004000
0000FFFFD00045555530001000
0000FFFFF90000000000110000
0000FFFFFFD741101243000000
0000DFFFFFFFFFFFFFFFC20000
00007FFFFC3111111111590000
00001CFFF50000000000081000
0000006FE00000000000036000
000002CF800035555510009000
00000CFF200330000060007200
00004FFC000500000023001700
0000AFF6001400AF3005000800
0001FFE1005001FF8004200440
0006FFA0005005FFD000500080
000CFF4004100AFFF200410070
003FFE0005000EFFF700050043
009FFA00050017777500050006
00EFF700230000000000050005
05FFF600320000000000050005
09FFF600365555555555580005
0DFFF600320000000000050005
0FFFF600320000000000050005
1FFFF60032007CCCCC10050005
1FFFF60032009FFFFF10050005
1FFFF60032009FFFFF10050005
1FFFF60000009FFFFF10000005
1FFFF600000056FFFF10000005
1FFFF800000046FFFF30000004
1FFFFFDCCCC806FFFFECCCCC91
1FFFFFFFFF8006FFFFFFFFF800
0FFFFFFFF70005FFFFFFFF6000
0BFFFFFE500001DFFFFFD40000
ENDCHAR
STARTCHAR Aogonek
ENCODING 260
SWIDTH 830 0
DWIDTH 27 0
BBX 26 34 0 -10
BITMAP
00000000034555555555520000
00000000460000000000050000
00000003E10000000000041000
0000003EA00000000000005000
000002EF400035555510005000
00000CFE000330000060003200
00004FF8000500000023000500
0000AFF3001400AF3005000500
0001FFC0005001FF8004200240
0006FF70005005FFD000500050
000CFF2004100AFFF200410050
003FFC0005000EFFF700050023
009FF900050017777500050005
00EFF700230000000000050005
05FFF600320000000000050005
09FFF600365555555555580005
0DFFF600320000000000050005
0FFFF600320000000000050005
1FFFF60032007CCCCC10050005
1FFFF60032009FFFFF10050005
1FFFF60032009FFFFF10060005
1FFFF60000009FFFFF10330005
1FFFF600000056FFFF00500005
1FFFF800000046FFFC00500005
1FFFFFDCCCC806FFFA00500751
1FFFFFFFFF8006FFF700501652
0FFFFFFFF70007FFF600500005
0BFFFFFE50000AFFF600652005
0000000000000CFFFA00000005
0000000000000FFFFF60000005
0000000000001FFFFFFEDDDDB2
0000000000000EFFFFFFFFFB10
00000000000008FFFFFFFF9000
000000000000007DFFFFE60000
ENDCHAR
STARTCHAR aogonek
ENCODING 261
SWIDTH 830 0
DWIDTH 27 0
BBX 26 34 0 -10
BITMAP
00000000034555555555520000
00000000460000000000050000
00000003E10000000000041000
0000003EA00000000000005000
000002EF400035555510005000
00000CFE000330000060003200
00004FF8000500000023000500
0000AFF3001400AF3005000500
0001FFC0005001FF8004200240
0006FF70005005FFD000500050
000CFF2004100AFFF200410050
003FFC0005000EFFF700050023
009FF900050017777500050005
00EFF700230000000000050005
05FFF600320000000000050005
09FFF600365555555555580005
0DFFF600320000000000050005
0FFFF600320000000000050005
1FFFF60032007CCCCC10050005
1FFFF60032009FFFFF10050005
1FFFF60032009FFFFF10060005
1FFFF60000009FFFFF10330005
1FFFF600000056FFFF00500005
1FFFF800000046FFFC00500005
1FFFFFDCCCC806FFFA00500751
1FFFFFFFFF8006FFF700501652
0FFFFFFFF70007FFF600500005
0BFFFFFE50000AFFF600652005
0000000000000CFFFA00000005
0000000000000FFFFF60000005
0000000000001FFFFFFEDDDDB2
0000000000000EFFFFFFFFFB10
00000000000008FFFFFFFF9000
000000000000007DFFFFE60000
ENDCHAR
STARTCHAR Cacute
ENCODING 262
SWIDTH 728 0
DWIDTH 23 0
BBX 22 36 1 -4
BITMAP
00000000000000024689B3
00000000368ABDEDB97548
00000007C9753100000005
000000AF00000245552005
00001CFE00155310000005
0002DFFE00000000000002
0007FFFE00000000024601
0007FFFF32468ABDFFE500
0007FFFFD9755555555554
0007FFD500000000000005
0007FD2000000000000005
0004F50000000000000005
0001B00001555555552005
002DA00035000000000005
03EF900060000000000004
1DFF800050007CCCCCCC80
6FFF80005002FFFFFFF800
BFFF80005003FFFFFF6000
DFFF80005003FFFFE40000
EFFF800050032000000000
EFFF800050032000000000
EFFF800050032000000000
EFFF800050032000000000
EFFF800050032000000000
EFFF800050024000000000
EFFF800050004555555552
EFFF900050000000000005
EFFFC00050000000000005
DFFFF10035000000000005
CFFFF90001555555552005
9FFFFF7000000000000005
5FFFFFFC62000000000004
0DFFFFFFFFEDCCCCCCCC81
03FFFFFFFFFFFFFFFFF900
003DFFFFFFFFFFFFFF7000
00006ADEFFFFFFFFE50000
ENDCHAR
STARTCHAR cacute
ENCODING 263
SWIDTH 728 0
DWIDTH 23 0
BBX 22 36 1 -4
BITMAP
00000000000000024689B3
00000000368ABDEDB97548
00000007C9753100000005
000000AF00000245552005
00001CFE00155310000005
0002DFFE00000000000002
0007FFFE00000000024601
0007FFFF32468ABDFFE500
0007FFFFD9755555555554
0007FFD500000000000005
0007FD2000000000000005
0004F50000000000000005
0001B00001555555552005
002DA00035000000000005
03EF900060000000000004
1DFF800050007CCCCCCC80
6FFF80005002FFFFFFF800
BFFF80005003FFFFFF6000
DFFF80005003FFFFE40000
EFFF800050032000000000
EFFF800050032000000000
EFFF800050032000000000
EFFF800050032000000000
EFFF800050032000000000
EFFF800050024000000000
EFFF800050004555555552
EFFF900050000000000005
EFFFC00050000000000005
DFFFF10035000000000005
CFFFF90001555555552005
9FFFFF7000000000000005
5FFFFFFC62000000000004
0DFFFFFFFFEDCCCCCCCC81
03FFFFFFFFFFFFFFFFF900
003DFFFFFFFFFFFFFF7000
00006ADEFFFFFFFFE50000
ENDCHAR
STARTCHAR Ccircumflex
ENCODING 264
SWIDTH 728 0
DWIDTH 23 0
BBX 22 36 1 -4
BITMAP
0000000000014553000000
0000000003430002553000
0000000320000000002630
000000A100035554000050
00001CF001520001420050
0002DFF000000000000050
002EFFF00048CFEA510050
006FFFF9AEFFFFFFFFC730
007FFFFFD9755555555554
007FFFD500000000000005
007FFD2000000000000005
005FD50000000000000005
0003B00001555555552005
004EA00035000000000005
04FF900060000000000004
1EFF800050007CCCCCCC80
7FFF80005002FFFFFFF800
BFFF80005003FFFFFF6000
DFFF80005003FFFFE40000
EFFF800050032000000000
EFFF800050032000000000
EFFF800050032000000000
EFFF800050032000000000
EFFF800050032000000000
EFFF800050024000000000
EFFF800050004555555552
EFFF900050000000000005
EFFFC00050000000000005
DFFFF10035000000000005
CFFFF90001555555552005
9FFFFF7000000000000005
5FFFFFFC62000000000004
0DFFFFFFFFEDCCCCCCCC81
03FFFFFFFFFFFFFFFFF900
003DFFFFFFFFFFFFFF7000
00006ADEFFFFFFFFE50000
ENDCHAR
STARTCHAR ccircumflex
ENCODING 265
SWIDTH 728 0
DWIDTH 23 0
BBX 22 36 1 -4
BITMAP
0000000000014553000000
0000000003430002553000
0000000320000000002630
000000A100035554000050
00001CF001520001420050
0002DFF000000000000050
002EFFF00048CFEA510050
006FFFF9AEFFFFFFFFC730
007FFFFFD9755555555554
007FFFD500000000000005
007FFD2000000000000005
005FD50000000000000005
0003B00001555555552005
004EA00035000000000005
04FF900060000000000004
1EFF800050007CCCCCCC80
7FFF80005002FFFFFFF800
BFFF80005003FFFFFF6000
DFFF80005003FFFFE40000
EFFF800050032000000000
EFFF800050032000000000
EFFF800050032000000000
EFFF800050032000000000
EFFF800050032000000000
EFFF800050024000000000
EFFF800050004555555552
EFFF900050000000000005
EFFFC00050000000000005
DFFFF10035000000000005
CFFFF90001555555552005
9FFFFF7000000000000005
5FFFFFFC62000000000004
0DFFFFFFFFEDCCCCCCCC81
03FFFFFFFFFFFFFFFFF900
003DFFFFFFFFFFFFFF7000
00006ADEFFFFFFFFE50000
ENDCHAR
STARTCHAR Cdotaccent
ENCODING 266
SWIDTH 728 0
DWIDTH 23 0
BBX 22 35 1 -4
BITMAP
0000000000455555550000
0000000008700000051000
00000001AF600000041000
0000002CFF600140041000
000000DFFF600130041000
000001FFFF600000030000
000001FFFF900000140000
000001FFD9755555555554
000001D500000000000005
0000002000000000000005
0000110000000000000005
0002C00001555555552005
004EA00035000000000005
04FF900060000000000004
1EFF800050007CCCCCCC80
7FFF80005002FFFFFFF800
BFFF80005003FFFFFF6000
DFFF80005003FFFFE40000
EFFF800050032000000000
EFFF800050032000000000
EFFF800050032000000000
EFFF800050032000000000
EFFF800050032000000000
EFFF800050024000000000
EFFF800050004555555552
EFFF900050000000000005
EFFFC00050000000000005
DFFFF10035000000000005
CFFFF90001555555552005
9FFFFF7000000000000005
5FFFFFFC62000000000004
0DFFFFFFFFEDCCCCCCCC81
03FFFFFFFFFFFFFFFFF900
003DFFFFFFFFFFFFFF7000
00006ADEFFFFFFFFE50000
ENDCHAR
STARTCHAR cdotaccent
ENCODING 267
SWIDTH 728 0
DWIDTH 23 0
BBX 22 35 1 -4
BITMAP
0000000000455555550000
0000000008700000051000
00000001AF600000041000
0000002CFF600140041000
000000DFFF600130041000
000001FFFF600000030000
000001FFFF900000140000
000001FFD9755555555554
000001D500000000000005
0000002000000000000005
0000110000000000000005
0002C00001555555552005
004EA00035000000000005
04FF900060000000000004
1EFF800050007CCCCCCC80
7FFF80005002FFFFFFF800
BFFF80005003FFFFFF6000
DFFF80005003FFFFE40000
EFFF800050032000000000
EFFF800050032000000000
EFFF800050032000000000
EFFF800050032000000000
EFFF800050032000000000
EFFF800050024000000000
EFFF800050004555555552
EFFF900050000000000005
EFFFC00050000000000005
DFFFF10035000000000005
CFFFF90001555555552005
9FFFFF7000000000000005
5FFFFFFC62000000000004
0DFFFFFFFFEDCCCCCCCC81
03FFFFFFFFFFFFFFFFF900
003DFFFFFFFFFFFFFF7000
00006ADEFFFFFFFFE50000
ENDCHAR
STARTCHAR Ccaron
ENCODING 268
SWIDTH 728 0
DWIDTH 23 0
BBX 22 36 1 -4
BITMAP
0000001740000000000210
000002D458740001455360
00004EF000036554100050
0006FFF000000000000050
004FFFF001530002530050
007FFFF300025554000020
007FFFFE94000000025100
007FFFFFFFE94027CA1000
006FFFFFD9755555555554
001BFFD500000000000005
0000282000000000000005
0000330000000000000005
0005D00001555555552005
007FA00035000000000005
07FF900060000000000004
2FFF800050007CCCCCCC80
8FFF80005002FFFFFFF800
CFFF80005003FFFFFF6000
DFFF80005003FFFFE40000
EFFF800050032000000000
EFFF800050032000000000
EFFF800050032000000000
EFFF800050032000000000
EFFF800050032000000000
EFFF800050024000000000
EFFF800050004555555552
EFFF900050000000000005
EFFFC00050000000000005
DFFFF10035000000000005
CFFFF90001555555552005
9FFFFF7000000000000005
5FFFFFFC62000000000004
0CFFFFFFFFEDCCCCCCCC81
03EFFFFFFFFFFFFFFFF900
003DFFFFFFFFFFFFFF7000
00006ADEFFFFFFFFE50000
ENDCHAR
STARTCHAR ccaron
ENCODING 269
SWIDTH 728 0
DWIDTH 23 0
BBX 22 36 1 -4
BITMAP
0000001740000000000210
000002D458740001455360
00004EF000036554100050
0006FFF000000000000050
004FFFF001530002530050
007FFFF300025554000020
007FFFFE94000000025100
007FFFFFFFE94027CA1000
006FFFFFD9755555555554
001BFFD500000000000005
0000282000000000000005
0000330000000000000005
0005D00001555555552005
007FA00035000000000005
07FF900060000000000004
2FFF800050007CCCCCCC80
8FFF80005002FFFFFFF800
CFFF80005003FFFFFF6000
DFFF80005003FFFFE40000
EFFF800050032000000000
EFFF800050032000000000
EFFF800050032000000000
EFFF800050032000000000
EFFF800050032000000000
EFFF800050024000000000
EFFF800050004555555552
EFFF900050000000000005
EFFFC00050000000000005
DFFFF10035000000000005
CFFFF90001555555552005
9FFFFF7000000000000005
5FFFFFFC62000000000004
0CFFFFFFFFEDCCCCCCCC81
03EFFFFFFFFFFFFFFFF900
003DFFFFFFFFFFFFFF7000
00006ADEFFFFFFFFE50000
ENDCHAR
STARTCHAR Dcaron
ENCODING 270
SWIDTH 846 0
DWIDTH 27 0
BBX 25 36 1 -4
BITMAP
00000002740000000000310000
0000004D358730001555360000
000007FD000036554000050000
0000AFFD000000000000050000
0007FFFD001530002520050000
0008FFFF100025553000020000
0008FFFFE93000000025100000
0008FFFFFFFD83027C80000000
0006F533333333333345650000
0004D000000000000000017200
006FD000000000000000000700
07FFD000000000000000000150
6FFFD000555555555551000050
8FFFD000500000000015300050
8FFFD000500000000000600050
8FFFD000500089998100410040
8FFFD0005000DFFFF600230040
8FFFD0005000DFFFF700140040
8FFFD0005000DFFFF700140040
8FFFD00050008FFFF700140040
8FFFD00050005FFFF700140040
8FFFD00050005FFFF700140040
8FFFD00050005FFFF700140040
8FFFD00050005FFFF700140040
8FFFD00050005FFFF600140040
8FFFD00050006AAA8100230040
8FFFD000500000000000320040
8FFFD000500000000000600040
8FFFD000500000000005300040
8FFFD000555555555551000410
8FFFD000000000000000003200
8FFFE100000000000001582000
8FFFFECCCCCCCCCCCDEFC10000
8FFFFFFFFFFFFFFFFFFA000000
8FFFFFFFFFFFFFFFFF70000000
4EFFFFFFFFFFFEDB7200000000
ENDCHAR
STARTCHAR dcaron
ENCODING 271
SWIDTH 846 0
DWIDTH 27 0
BBX 25 36 1 -4
BITMAP
00000002740000000000310000
0000004D358730001555360000
000007FD000036554000050000
0000AFFD000000000000050000
0007FFFD001530002520050000
0008FFFF100025553000020000
0008FFFFE93000000025100000
0008FFFFFFFD83027C80000000
0006F533333333333345650000
0004D000000000000000017200
006FD000000000000000000700
07FFD000000000000000000150
6FFFD000555555555551000050
8FFFD000500000000015300050
8FFFD000500000000000600050
8FFFD000500089998100410040
8FFFD0005000DFFFF600230040
8FFFD0005000DFFFF700140040
8FFFD0005000DFFFF700140040
8FFFD00050008FFFF700140040
8FFFD00050005FFFF700140040
8FFFD00050005FFFF700140040
8FFFD00050005FFFF700140040
8FFFD00050005FFFF700140040
8FFFD00050005FFFF600140040
8FFFD00050006AAA8100230040
8FFFD000500000000000320040
8FFFD000500000000000600040
8FFFD000500000000005300040
8FFFD000555555555551000410
8FFFD000000000000000003200
8FFFE100000000000001582000
8FFFFECCCCCCCCCCCDEFC10000
8FFFFFFFFFFFFFFFFFFA000000
8FFFFFFFFFFFFFFFFF70000000
4EFFFFFFFFFFFEDB7200000000
ENDCHAR
STARTCHAR Dcroat
ENCODING 272
SWIDTH 856 0
DWIDTH 27 0
BBX 28 28 -1 -4
BITMAP
0000001655555555555555440000
000002D300000000000000015200
00003EF300000000000000000620
0005FFF300000000000000000070
002FFFF300355555555552000050
003FFFF300500000000004500023
004FFFF300500000000000320005
004FFFF30050007BBBB400050005
004FFFF30050009FFFFB00050005
004FFFF30050009FFFFC00050005
004FF800005000006FFC00050005
004FF500005000002FFC00050005
01CFF500458554002FFC00050005
0DFFF500005000002FFC00050005
2FFFF500005000003FFC00050005
2FFFFC7100500047BFFC00050005
2FFFFFF30050009EFFFB00050005
2FFFFFF30050007CFFE600050005
1FFFFFF300500000000000050014
06BFFFF300500000000000330041
004FFFF300500000000003500060
004FFFF300355555555552000240
004FFFF300000000000000002400
004FFFF500000000000000384000
004FFFFECCCCCCCCCCCDDFE40000
004FFFFFFFFFFFFFFFFFFD300000
003FFFFFFFFFFFFFFFFFB1000000
001CFFFFFFFFFFFFEC9300000000
ENDCHAR
STARTCHAR dcroat
ENCODING 273
SWIDTH 856 0
DWIDTH 27 0
BBX 28 28 -1 -4
BITMAP
0000001655555555555555440000
000002D300000000000000015200
00003EF300000000000000000620
0005FFF300000000000000000070
002FFFF300355555555552000050
003FFFF300500000000004500023
004FFFF300500000000000320005
004FFFF30050007BBBB400050005
004FFFF30050009FFFFB00050005
004FFFF30050009FFFFC00050005
004FF800005000006FFC00050005
004FF500005000002FFC00050005
01CFF500458554002FFC00050005
0DFFF500005000002FFC00050005
2FFFF500005000003FFC00050005
2FFFFC7100500047BFFC00050005
2FFFFFF30050009EFFFB00050005
2FFFFFF30050007CFFE600050005
1FFFFFF300500000000000050014
06BFFFF300500000000000330041
004FFFF300500000000003500060
004FFFF300355555555552000240
004FFFF300000000000000002400
004FFFF500000000000000384000
004FFFFECCCCCCCCCCCDDFE40000
004FFFFFFFFFFFFFFFFFFD300000
003FFFFFFFFFFFFFFFFFB1000000
001CFFFFFFFFFFFFEC9300000000
ENDCHAR
STARTCHAR Emacron
ENCODING 274
SWIDTH 754 0
DWIDTH 24 0
BBX 23 34 1 -4
BITMAP
000000255555555555561000
000004B00000000000005000
00006FB00000000000005000
0008FFB00255555551005000
007FFFB00000000000004000
00AFFFD10000000000040000
00BFF7555555555555555620
00BFE0000000000000000050
00AFD0000000000000000050
01CFD0000000000000000050
2DFFD0005555555555510050
8FFFD0005000000000000050
8FFFD0005000000000000320
8FFFD0005000EFFFFFFFE400
8FFFD0005000EFFFFFFD3000
8FFFD0005000777777850000
8FFFD0005000000000050000
8FFFD0005000000000050000
8FFFD0006555555530050000
8FFFD0005000000000050000
8FFFD0005000000000040000
8FFFD0005000DDDDDD910000
8FFFD0005000EFFFF7000000
8FFFD00050009AAA85555500
8FFFD0005000000000000140
8FFFD0005000000000000050
8FFFD0005000000000000050
8FFFD0005555555555510050
8FFFD0000000000000000050
8FFFE1000000000000000130
8FFFFECCCCCCCCCCCCCCC500
8FFFFFFFFFFFFFFFFFFE4000
8FFFFFFFFFFFFFFFFFE30000
4EFFFFFFFFFFFFFFFC200000
ENDCHAR
STARTCHAR emacron
ENCODING 275
SWIDTH 754 0
DWIDTH 24 0
BBX 23 34 1 -4
BITMAP
000000255555555555561000
000004B00000000000005000
00006FB00000000000005000
0008FFB00255555551005000
007FFFB00000000000004000
00AFFFD10000000000040000
00BFF7555555555555555620
00BFE0000000000000000050
00AFD0000000000000000050
01CFD0000000000000000050
2DFFD0005555555555510050
8FFFD0005000000000000050
8FFFD0005000000000000320
8FFFD0005000EFFFFFFFE400
8FFFD0005000EFFFFFFD3000
8FFFD0005000777777850000
8FFFD0005000000000050000
8FFFD0005000000000050000
8FFFD0006555555530050000
8FFFD0005000000000050000
8FFFD0005000000000040000
8FFFD0005000DDDDDD910000
8FFFD0005000EFFFF7000000
8FFFD00050009AAA85555500
8FFFD0005000000000000140
8FFFD0005000000000000050
8FFFD0005000000000000050
8FFFD0005555555555510050
8FFFD0000000000000000050
8FFFE1000000000000000130
8FFFFECCCCCCCCCCCCCCC500
8FFFFFFFFFFFFFFFFFFE4000
8FFFFFFFFFFFFFFFFFE30000
4EFFFFFFFFFFFFFFFC200000
ENDCHAR
STARTCHAR Ebreve
ENCODING 276
SWIDTH 754 0
DWIDTH 24 0
BBX 23 36 1 -4
BITMAP
000000155555100355554000
000003C00001406B00005000
00005ED0010068F900104100
0007FFD00500254101404000
006FFFE00440000017103000
009FFFF40025555550001000
009FFFFD3000000000020000
007FFFFFFA52100135000000
005FF7555555555555555620
000CE0000000000000000050
002DD0000000000000000050
04EFD0000000000000000050
4FFFD0005555555555510050
8FFFD0005000000000000050
8FFFD0005000000000000320
8FFFD0005000EFFFFFFFE400
8FFFD0005000EFFFFFFD3000
8FFFD0005000777777850000
8FFFD0005000000000050000
8FFFD0005000000000050000
8FFFD0006555555530050000
8FFFD0005000000000050000
8FFFD0005000000000040000
8FFFD0005000DDDDDD910000
8FFFD0005000EFFFF7000000
8FFFD00050009AAA85555500
8FFFD0005000000000000140
8FFFD0005000000000000050
8FFFD0005000000000000050
8FFFD0005555555555510050
8FFFD0000000000000000050
8FFFE1000000000000000130
8FFFFECCCCCCCCCCCCCCC500
8FFFFFFFFFFFFFFFFFFE4000
8FFFFFFFFFFFFFFFFFE30000
4EFFFFFFFFFFFFFFFC200000
ENDCHAR
STARTCHAR ebreve
ENCODING 277
SWIDTH 754 0
DWIDTH 24 0
BBX 23 36 1 -4
BITMAP
000000155555100355554000
000003C00001406B00005000
00005ED0010068F900104100
0007FFD00500254101404000
006FFFE00440000017103000
009FFFF40025555550001000
009FFFFD3000000000020000
007FFFFFFA52100135000000
005FF7555555555555555620
000CE0000000000000000050
002DD0000000000000000050
04EFD0000000000000000050
4FFFD0005555555555510050
8FFFD0005000000000000050
8FFFD0005000000000000320
8FFFD0005000EFFFFFFFE400
8FFFD0005000EFFFFFFD3000
8FFFD0005000777777850000
8FFFD0005000000000050000
8FFFD0005000000000050000
8FFFD0006555555530050000
8FFFD0005000000000050000
8FFFD0005000000000040000
8FFFD0005000DDDDDD910000
8FFFD0005000EFFFF7000000
8FFFD00050009AAA85555500
8FFFD0005000000000000140
8FFFD0005000000000000050
8FFFD0005000000000000050
8FFFD0005555555555510050
8FFFD0000000000000000050
8FFFE1000000000000000130
8FFFFECCCCCCCCCCCCCCC500
8FFFFFFFFFFFFFFFFFFE4000
8FFFFFFFFFFFFFFFFFE30000
4EFFFFFFFFFFFFFFFC200000
ENDCHAR
STARTCHAR Edotaccent
ENCODING 278
SWIDTH 754 0
DWIDTH 24 0
BBX 23 35 1 -4
BITMAP
000000000455555550000000
00000001A700000041000000
0000003DF700000032000000
000006FFF700140032000000
00000FFFF700140032000000
00000FFFF700000031000000
00000FFFFA00000140000000
000047555555555555555620
0006D0000000000000000050
008FD0000000000000000050
0AFFD0000000000000000050
7FFFD0005555555555510050
8FFFD0005000000000000050
8FFFD0005000000000000320
8FFFD0005000EFFFFFFFE400
8FFFD0005000EFFFFFFD3000
8FFFD0005000777777850000
8FFFD0005000000000050000
8FFFD0005000000000050000
8FFFD0006555555530050000
8FFFD0005000000000050000
8FFFD0005000000000040000
8FFFD0005000DDDDDD910000
8FFFD0005000EFFFF7000000
8FFFD00050009AAA85555500
8FFFD0005000000000000140
8FFFD0005000000000000050
8FFFD0005000000000000050
8FFFD0005555555555510050
8FFFD0000000000000000050
8FFFE1000000000000000130
8FFFFECCCCCCCCCCCCCCC500
8FFFFFFFFFFFFFFFFFFE4000
8FFFFFFFFFFFFFFFFFE30000
4EFFFFFFFFFFFFFFFC200000
ENDCHAR
STARTCHAR edotaccent
ENCODING 279
SWIDTH 754 0
DWIDTH 24 0
BBX 23 35 1 -4
BITMAP
000000000455555550000000
00000001A700000041000000
0000003DF700000032000000
000006FFF700140032000000
00000FFFF700140032000000
00000FFFF700000031000000
00000FFFFA00000140000000
000047555555555555555620
0006D0000000000000000050
008FD0000000000000000050
0AFFD0000000000000000050
7FFFD0005555555555510050
8FFFD0005000000000000050
8FFFD0005000000000000320
8FFFD0005000EFFFFFFFE400
8FFFD0005000EFFFFFFD3000
8FFFD0005000777777850000
8FFFD0005000000000050000
8FFFD0005000000000050000
8FFFD0006555555530050000
8FFFD0005000000000050000
8FFFD0005000000000040000
8FFFD0005000DDDDDD910000
8FFFD0005000EFFFF7000000
8FFFD00050009AAA85555500
8FFFD0005000000000000140
8FFFD0005000000000000050
8FFFD0005000000000000050
8FFFD0005555555555510050
8FFFD0000000000000000050
8FFFE1000000000000000130
8FFFFECCCCCCCCCCCCCCC500
8FFFFFFFFFFFFFFFFFFE4000
8FFFFFFFFFFFFFFFFFE30000
4EFFFFFFFFFFFFFFFC200000
ENDCHAR
STARTCHAR Eogonek
ENCODING 280
SWIDTH 754 0
DWIDTH 24 0
BBX 23 34 1 -10
BITMAP
000045555555555555555620
0006D0000000000000000050
008FD0000000000000000050
0AFFD0000000000000000050
6FFFD0005555555555510050
8FFFD0005000000000000050
8FFFD0005000000000000320
8FFFD0005000EFFFFFFFE400
8FFFD0005000EFFFFFFD3000
8FFFD0005000777777850000
8FFFD0005000000000050000
8FFFD0005000000000050000
8FFFD0006555555530050000
8FFFD0005000000000050000
8FFFD0005000000000050000
8FFFD0005000DDDDDD910000
8FFFD0005000EFFFF7000000
8FFFD00050009AAA85555500
8FFFD0005000000000000140
8FFFD0005000000000000050
8FFFD0005000000000000050
8FFFD0005555555556610050
8FFFD0000000000005000050
8FFFE1000000000005000130
8FFFFECCCCCCCC501403C700
8FFFFFFFFFFFFF4032049510
8FFFFFFFFFFFFF2041000050
4EFFFFFFFFFFFF2016510050
0000000002FFFF5000000050
0000000004FFFFD300000140
0000000005FFFFFFEDDDD800
0000000004FFFFFFFFFF7000
0000000001EFFFFFFFE50000
00000000003BEFFFFD300000
ENDCHAR
STARTCHAR eogonek
ENCODING 281
SWIDTH 754 0
DWIDTH 24 0
BBX 23 34 1 -10
BITMAP
000045555555555555555620
0006D0000000000000000050
008FD0000000000000000050
0AFFD0000000000000000050
6FFFD0005555555555510050
8FFFD0005000000000000050
8FFFD0005000000000000320
8FFFD0005000EFFFFFFFE400
8FFFD0005000EFFFFFFD3000
8FFFD0005000777777850000
8FFFD0005000000000050000
8FFFD0005000000000050000
8FFFD0006555555530050000
8FFFD0005000000000050000
8FFFD0005000000000050000
8FFFD0005000DDDDDD910000
8FFFD0005000EFFFF7000000
8FFFD00050009AAA85555500
8FFFD0005000000000000140
8FFFD0005000000000000050
8FFFD0005000000000000050
8FFFD0005555555556610050
8FFFD0000000000005000050
8FFFE1000000000005000130
8FFFFECCCCCCCC501403C700
8FFFFFFFFFFFFF4032049510
8FFFFFFFFFFFFF2041000050
4EFFFFFFFFFFFF2016510050
0000000002FFFF5000000050
0000000004FFFFD300000140
0000000005FFFFFFEDDDD800
0000000004FFFFFFFFFF7000
0000000001EFFFFFFFE50000
00000000003BEFFFFD300000
ENDCHAR
STARTCHAR Ecaron
ENCODING 282
SWIDTH 754 0
DWIDTH 24 0
BBX 23 36 1 -4
BITMAP
000000174000000000021000
000003D35874000155536000
00005EF00003655410005000
0008FFF00000000000005000
005FFFF00153000252005000
007FFFF20002555400002000
007FFFFE9400000002510000
007FFFFFFFE93027C9100000
006FF7555555555555555620
0009E0000000000000000050
003ED0000000000000000050
05EFD0000000000000000050
4FFFD0005555555555510050
8FFFD0005000000000000050
8FFFD0005000000000000320
8FFFD0005000EFFFFFFFE400
8FFFD0005000EFFFFFFD3000
8FFFD0005000777777850000
8FFFD0005000000000050000
8FFFD0005000000000050000
8FFFD0006555555530050000
8FFFD0005000000000050000
8FFFD0005000000000040000
8FFFD0005000DDDDDD910000
8FFFD0005000EFFFF7000000
8FFFD00050009AAA85555500
8FFFD0005000000000000140
8FFFD0005000000000000050
8FFFD0005000000000000050
8FFFD0005555555555510050
8FFFD0000000000000000050
8FFFE1000000000000000130
8FFFFECCCCCCCCCCCCCCC500
8FFFFFFFFFFFFFFFFFFE4000
8FFFFFFFFFFFFFFFFFE30000
4EFFFFFFFFFFFFFFFC200000
ENDCHAR
STARTCHAR ecaron
ENCODING 283
SWIDTH 754 0
DWIDTH 24 0
BBX 23 36 1 -4
BITMAP
000000174000000000021000
000003D35874000155536000
00005EF00003655410005000
0008FFF00000000000005000
005FFFF00153000252005000
007FFFF20002555400002000
007FFFFE9400000002510000
007FFFFFFFE93027C9100000
006FF7555555555555555620
0009E0000000000000000050
003ED0000000000000000050
05EFD0000000000000000050
4FFFD0005555555555510050
8FFFD0005000000000000050
8FFFD0005000000000000320
8FFFD0005000EFFFFFFFE400
8FFFD0005000EFFFFFFD3000
8FFFD0005000777777850000
8FFFD0005000000000050000
8FFFD0005000000000050000
8FFFD0006555555530050000
8FFFD0005000000000050000
8FFFD0005000000000040000
8FFFD0005000DDDDDD910000
8FFFD0005000EFFFF7000000
8FFFD00050009AAA85555500
8FFFD0005000000000000140
8FFFD0005000000000000050
8FFFD0005000000000000050
8FFFD0005555555555510050
8FFFD0000000000000000050
8FFFE1000000000000000130
8FFFFECCCCCCCCCCCCCCC500
8FFFFFFFFFFFFFFFFFFE4000
8FFFFFFFFFFFFFFFFFE30000
4EFFFFFFFFFFFFFFFC200000
ENDCHAR
STARTCHAR Gcircumflex
ENCODING 284
SWIDTH 808 0
DWIDTH 26 0
BBX 24 36 1 -4
BITMAP
000000000000045530000000
000000000035400015520000
000000003410000000035300
000000074000155540000500
0000009F2005400015300500
00001BFF2000000000000500
0000CFFF2000158840000500
0004FFFF537CFFFFFEA62500
0004FFFFFFFFFFFFFFFFF400
0004FFFE8421000000000600
0004FF910000000000000500
0003FA000000000000000500
0001D2000155555555300500
002DC0002600000000000500
03EF90005000000000000500
1DFF800050007CCCCCCCB300
6FFF80005002FFFFFFFC2000
BFFF80005003FFFFFFA10000
DFFF80005003FFFFE7000000
EFFF80005003200045555554
EFFF80005003200770000005
EFFF80005003208F60000005
EFFF8000500329FF60010005
EFFF80005003CFFF60032005
EFFF80005003FFFF60032005
EFFF80005001EFFF60032005
EFFF90005000244420032005
EFFFB0006000000000032005
DFFFF1002610000000032005
CFFFF8000055555555562005
AFFFFF700000000000000005
5FFFFFFC6200000000000005
0DFFFFFFFFEDCCCCCCCCCCB3
03FFFFFFFFFFFFFFFFFFFC20
003DFFFFFFFFFFFFFFFFA100
00006ADEFFFFFFFFFFF80000
ENDCHAR
STARTCHAR gcircumflex
ENCODING 285
SWIDTH 808 0
DWIDTH 26 0
BBX 24 36 1 -4
BITMAP
000000000000045530000000
000000000035400015520000
000000003410000000035300
000000074000155540000500
0000009F2005400015300500
00001BFF2000000000000500
0000CFFF2000158840000500
0004FFFF537CFFFFFEA62500
0004FFFFFFFFFFFFFFFFF400
0004FFFE8421000000000600
0004FF910000000000000500
0003FA000000000000000500
0001D2000155555555300500
002DC0002600000000000500
03EF90005000000000000500
1DFF800050007CCCCCCCB300
6FFF80005002FFFFFFFC2000
BFFF80005003FFFFFFA10000
DFFF80005003FFFFE7000000
EFFF80005003200045555554
EFFF80005003200770000005
EFFF80005003208F60000005
EFFF8000500329FF60010005
EFFF80005003CFFF60032005
EFFF80005003FFFF60032005
EFFF80005001EFFF60032005
EFFF90005000244420032005
EFFFB0006000000000032005
DFFFF1002610000000032005
CFFFF8000055555555562005
AFFFFF700000000000000005
5FFFFFFC6200000000000005
0DFFFFFFFFEDCCCCCCCCCCB3
03FFFFFFFFFFFFFFFFFFFC20
003DFFFFFFFFFFFFFFFFA100
00006ADEFFFFFFFFFFF80000
ENDCHAR
STARTCHAR Gbreve
ENCODING 286
SWIDTH 808 0
DWIDTH 26 0
BBX 24 36 1 -4
BITMAP
000000025555500045555400
0000004A0000320790000500
000005FB001015AF70010500
00007FFB0050025400330400
0007FFFD0053000001700300
000BFFFF2003555554000100
000BFFFFC200000000012000
000AFFFFFE94210114400000
0008FFFFD975555555555500
0002EFD50000000000000500
00004B200000000000000500
000033000000000000000500
0004D0000155555555300500
006FA0002600000000000500
06FF90005000000000000400
2FFF800050007CCCCCCC9100
8FFF80005002FFFFFFFA0000
BFFF80005003FFFFFF800000
DFFF80005003FFFFE7000000
EFFF80005003200045555554
EFFF80005003200770000005
EFFF80005003208F60000005
EFFF8000500329FF60010005
EFFF80005003CFFF60032005
EFFF80005003FFFF60032005
EFFF80005001EFFF60032005
EFFF90005000244420032005
EFFFC0006000000000032005
DFFFF1002610000000032005
CFFFF9000055555555562005
9FFFFF700000000000000005
5FFFFFFC6200000000000005
0CFFFFFFFFEDCCCCCCCCCCB3
03EFFFFFFFFFFFFFFFFFFC20
003DFFFFFFFFFFFFFFFFA100
00006ADEFFFFFFFFFFF80000
ENDCHAR
STARTCHAR gbreve
ENCODING 287
SWIDTH 808 0
DWIDTH 26 0
BBX 24 36 1 -4
BITMAP
000000025555500045555400
0000004A0000320790000500
000005FB001015AF70010500
00007FFB0050025400330400
0007FFFD0053000001700300
000BFFFF2003555554000100
000BFFFFC200000000012000
000AFFFFFE94210114400000
0008FFFFD975555555555500
0002EFD50000000000000500
00004B200000000000000500
000033000000000000000500
0004D0000155555555300500
006FA0002600000000000500
06FF90005000000000000400
2FFF800050007CCCCCCC9100
8FFF80005002FFFFFFFA0000
BFFF80005003FFFFFF800000
DFFF80005003FFFFE7000000
EFFF80005003200045555554
EFFF80005003200770000005
EFFF80005003208F60000005
EFFF8000500329FF60010005
EFFF80005003CFFF60032005
EFFF80005003FFFF60032005
EFFF80005001EFFF60032005
EFFF90005000244420032005
EFFFC0006000000000032005
DFFFF1002610000000032005
CFFFF9000055555555562005
9FFFFF700000000000000005
5FFFFFFC6200000000000005
0CFFFFFFFFEDCCCCCCCCCCB3
03EFFFFFFFFFFFFFFFFFFC20
003DFFFFFFFFFFFFFFFFA100
00006ADEFFFFFFFFFFF80000
ENDCHAR
STARTCHAR Gdotaccent
ENCODING 288
SWIDTH 808 0
DWIDTH 26 0
BBX 24 35 1 -4
BITMAP
000000000015555555300000
0000000002D1000000500000
000000005EF0000000500000
00000008FFF0005000500000
0000005FFFF0004000500000
0000007FFFF0000000400000
0000007FFFF3000003200000
0000007FD975555555555500
000000550000000000000500
000002100000000000000500
000064000000000000000500
0008E0000155555555300500
00AFA0002600000000000500
0AFF90005000000000000400
3FFF800050007CCCCCCC9100
9FFF80005002FFFFFFFA0000
CFFF80005003FFFFFF800000
DFFF80005003FFFFE7000000
EFFF80005003200045555554
EFFF80005003200770000005
EFFF80005003208F60000005
EFFF8000500329FF60010005
EFFF80005003CFFF60032005
EFFF80005003FFFF60032005
EFFF80005001EFFF60032005
EFFF90005000244420032005
EFFFC0006000000000032005
DFFFF1002610000000032005
CFFFF9000055555555562005
9FFFFF700000000000000005
4FFFFFFC6200000000000005
0CFFFFFFFFEDCCCCCCCCCCB3
02EFFFFFFFFFFFFFFFFFFC20
003DFFFFFFFFFFFFFFFFA100
00005ADEFFFFFFFFFFF80000
ENDCHAR
STARTCHAR gdotaccent
ENCODING 289
SWIDTH 808 0
DWIDTH 26 0
BBX 24 35 1 -4
BITMAP
000000000015555555300000
0000000002D1000000500000
000000005EF0000000500000
00000008FFF0005000500000
0000005FFFF0004000500000
0000007FFFF0000000400000
0000007FFFF3000003200000
0000007FD975555555555500
000000550000000000000500
000002100000000000000500
000064000000000000000500
0008E0000155555555300500
00AFA0002600000000000500
0AFF90005000000000000400
3FFF800050007CCCCCCC9100
9FFF80005002FFFFFFFA0000
CFFF80005003FFFFFF800000
DFFF80005003FFFFE7000000
EFFF80005003200045555554
EFFF80005003200770000005
EFFF80005003208F60000005
EFFF8000500329FF60010005
EFFF80005003CFFF60032005
EFFF80005003FFFF60032005
EFFF80005001EFFF60032005
EFFF90005000244420032005
EFFFC0006000000000032005
DFFFF1002610000000032005
CFFFF9000055555555562005
9FFFFF700000000000000005
4FFFFFFC6200000000000005
0CFFFFFFFFEDCCCCCCCCCCB3
02EFFFFFFFFFFFFFFFFFFC20
003DFFFFFFFFFFFFFFFFA100
00005ADEFFFFFFFFFFF80000
ENDCHAR
STARTCHAR Gcommaaccent
ENCODING 290
SWIDTH 808 0
DWIDTH 26 0
BBX 24 40 1 -16
BITMAP
000000015555555555555500
000000540000000000000500
000008100000000000000500
0001B4000000000000000500
002CD0000155555555300500
02DFA0002600000000000500
0CFF90005000000000000400
5FFF800050007CCCCCCC9100
AFFF80005002FFFFFFFA0000
CFFF80005003FFFFFF800000
DFFF80005003FFFFE7000000
EFFF80005003200045555554
EFFF80005003200770000005
EFFF80005003208F60000005
EFFF8000500329FF60010005
EFFF80005003CFFF60032005
EFFF80005003FFFF60032005
EFFF80005001EFFF60032005
EFFF90005000244420032005
EFFFD0006000000000032005
DFFFF3002610000000032005
CFFFFB000055555555562005
9FFFFFB20000000000000005
4FFFFFFFA632111111111127
0CFFFFFFFFFFFFFFFFFFFFE3
02EFFFFFFFF7444445EFFC20
002DFFFFFFE0000000AFB100
00005ADEFFE0000000990000
00000007FFE0155540500000
0000005FFFE0000050500000
0000008FFFE0000050500000
0000008FFFF3000050500000
0000008FFFFFFFC050500000
0000008FFFF8331420400000
0000007FFFF4155303000000
00000019FFF6000241000000
0000000CFFFFFFF900000000
0000002FFFFFFF7000000000
0000002FFFFFD40000000000
000000057774000000000000
ENDCHAR
STARTCHAR gcommaaccent
ENCODING 291
SWIDTH 808 0
DWIDTH 26 0
BBX 24 40 1 -16
BITMAP
000000015555555555555500
000000540000000000000500
000008100000000000000500
0001B4000000000000000500
002CD0000155555555300500
02DFA0002600000000000500
0CFF90005000000000000400
5FFF800050007CCCCCCC9100
AFFF80005002FFFFFFFA0000
CFFF80005003FFFFFF800000
DFFF80005003FFFFE7000000
EFFF80005003200045555554
EFFF80005003200770000005
EFFF80005003208F60000005
EFFF8000500329FF60010005
EFFF80005003CFFF60032005
EFFF80005003FFFF60032005
EFFF80005001EFFF60032005
EFFF90005000244420032005
EFFFD0006000000000032005
DFFFF3002610000000032005
CFFFFB000055555555562005
9FFFFFB20000000000000005
4FFFFFFFA632111111111127
0CFFFFFFFFFFFFFFFFFFFFE3
02EFFFFFFFF7444445EFFC20
002DFFFFFFE0000000AFB100
00005ADEFFE0000000990000
00000007FFE0155540500000
0000005FFFE0000050500000
0000008FFFE0000050500000
0000008FFFF3000050500000
0000008FFFFFFFC050500000
0000008FFFF8331420400000
0000007FFFF4155303000000
00000019FFF6000241000000
0000000CFFFFFFF900000000
0000002FFFFFFF7000000000
0000002FFFFFD40000000000
000000057774000000000000
ENDCHAR
STARTCHAR Hcircumflex
ENCODING 292
SWIDTH 859 0
DWIDTH 27 0
BBX 26 36 1 -4
BITMAP
00000000000014554000000000
00000000004440001554000000
00000000540000000002540000
0000001B200025554100050000
000003DF100530001430050000
00005EFF100000000000050000
0003FFFF20038CFEA610040000
0005FFFF9AEFFFFFFFFC830000
0005F7555557FFFFFD55555560
0006E0000000DFFFF800000041
004ED00000008CFFF800000041
06FFD0000000509FF800000041
5FFFD000500059FFF800140041
8FFFD00050005EFFF800140041
8FFFD00050005EFFF800140041
8FFFD00050005EFFF800140041
8FFFD00050006AAAA500140041
8FFFD000500000000000140041
8FFFD000500000000000140041
8FFFD000500000000000140041
8FFFD000655555555555540041
8FFFD000500000000000140041
8FFFD000500000000000140041
8FFFD000500000000000140041
8FFFD0005000DFFFF800140041
8FFFD0005000DFFFF800140041
8FFFD0005000DFFFF800140041
8FFFD0005000BFFFF800140041
8FFFD00050005EFFF800140041
8FFFD00020005EFFF800020041
8FFFD00000005EFFF800000041
8FFFE10000005EFFF900000040
8FFFFECCCCC90EFFFFDCCCCB30
8FFFFFFFFF800EFFFFFFFFD200
8FFFFFFFE5000EFFFFFFFB1000
4EFFFFFD300009FFFFFF900000
ENDCHAR
STARTCHAR hcircumflex
ENCODING 293
SWIDTH 859 0
DWIDTH 27 0
BBX 26 36 1 -4
BITMAP
00000000000014554000000000
00000000004440001554000000
00000000540000000002540000
0000001B200025554100050000
000003DF100530001430050000
00005EFF100000000000050000
0003FFFF20038CFEA610040000
0005FFFF9AEFFFFFFFFC830000
0005F7555557FFFFFD55555560
0006E0000000DFFFF800000041
004ED00000008CFFF800000041
06FFD0000000509FF800000041
5FFFD000500059FFF800140041
8FFFD00050005EFFF800140041
8FFFD00050005EFFF800140041
8FFFD00050005EFFF800140041
8FFFD00050006AAAA500140041
8FFFD000500000000000140041
8FFFD000500000000000140041
8FFFD000500000000000140041
8FFFD000655555555555540041
8FFFD000500000000000140041
8FFFD000500000000000140041
8FFFD000500000000000140041
8FFFD0005000DFFFF800140041
8FFFD0005000DFFFF800140041
8FFFD0005000DFFFF800140041
8FFFD0005000BFFFF800140041
8FFFD00050005EFFF800140041
8FFFD00020005EFFF800020041
8FFFD00000005EFFF800000041
8FFFE10000005EFFF900000040
8FFFFECCCCC90EFFFFDCCCCB30
8FFFFFFFFF800EFFFFFFFFD200
8FFFFFFFE5000EFFFFFFFB1000
4EFFFFFD300009FFFFFF900000
ENDCHAR
STARTCHAR Hbar
ENCODING 294
SWIDTH 879 0
DWIDTH 28 0
BBX 28 28 0 -4
BITMAP
0000016555555400003555555620
00002D300000050005D000000050
0003EF30000005006FE000000050
004EFF3000000507FFE000000050
01FFFB200500056AAA9000500064
03FFB00005000000000000500005
04FFA00005000000000000500005
08FFA00258555555555555854005
7FFFA00005000000000000500005
CFFFA00005000000000000500005
CFFFF82005000588887000500075
CFFFFF30050009FFFFE000500070
CFFFFF30050009FFFFE000500050
BFFFFF3005000000000000500050
28FFFF3005000000000000500050
04FFFF3005000000000000500050
04FFFF3005555555555555600050
04FFFF3005000000000000500050
04FFFF3005000000000000500050
04FFFF30050008CCCCB000500050
04FFFF30050009FFFFE000500050
04FFFF30020009FFFFE000200050
04FFFF30000009FFFFE000000050
04FFFF500000048FFFF100000140
04FFFFECCCCC808FFFFECCCCC800
04FFFFFFFFF8008FFFFFFFFF6000
03FFFFFFFF60008FFFFFFFE40000
01CFFFFFE500003EFFFFFC200000
ENDCHAR
STARTCHAR hbar
ENCODING 295
SWIDTH 879 0
DWIDTH 28 0
BBX 28 28 0 -4
BITMAP
0000016555555400003555555620
00002D300000050005D000000050
0003EF30000005006FE000000050
004EFF3000000507FFE000000050
01FFFB200500056AAA9000500064
03FFB00005000000000000500005
04FFA00005000000000000500005
08FFA00258555555555555854005
7FFFA00005000000000000500005
CFFFA00005000000000000500005
CFFFF82005000588887000500075
CFFFFF30050009FFFFE000500070
CFFFFF30050009FFFFE000500050
BFFFFF3005000000000000500050
28FFFF3005000000000000500050
04FFFF3005000000000000500050
04FFFF3005555555555555600050
04FFFF3005000000000000500050
04FFFF3005000000000000500050
04FFFF30050008CCCCB000500050
04FFFF30050009FFFFE000500050
04FFFF30020009FFFFE000200050
04FFFF30000009FFFFE000000050
04FFFF500000048FFFF100000140
04FFFFECCCCC808FFFFECCCCC800
04FFFFFFFFF8008FFFFFFFFF6000
03FFFFFFFF60008FFFFFFFE40000
01CFFFFFE500003EFFFFFC200000
ENDCHAR
STARTCHAR Itilde
ENCODING 296
SWIDTH 705 0
DWIDTH 23 0
BBX 22 35 0 -4
BITMAP
0000000255555531026610
0000006400000135641140
000008A000000000000050
0000AF9003555410000050
001BFF9000000135510040
00AFFF9000000000000010
00CFFFC369A97531022100
00CFFC5555555555555554
00CFF60000000000000005
00CFF60000000000000005
00AFF60000000000000005
06FFF60045555655552005
1FFFF60000000500000005
1FFFFA3332000500023344
1FFFFFFFFB0005000EFF60
1FFFFFFFFB0005000EE400
1FFFFFFFFB0005000C3000
06AAAEFFFB000500050000
00000BFFFB000500050000
00000BFFFB000500050000
00000BFFFB000500050000
00000BFFFB000500050000
00000BFFFB000500050000
00000BFFFB000500050000
00000AAAA7000500065552
0000770000000500000005
0008F60000000500000005
01AFF60000000500000005
0BFFF60045555655552005
1FFFF60000000000000005
1FFFF70000000000000004
1FFFFFCCCCCCCCCCCCCC80
1FFFFFFFFFFFFFFFFFF800
1FFFFFFFFFFFFFFFFF6000
0BFFFFFFFFFFFFFFD40000
ENDCHAR
STARTCHAR itilde
ENCODING 297
SWIDTH 705 0
DWIDTH 23 0
BBX 22 35 0 -4
BITMAP
0000000255555531026610
0000006400000135641140
000008A000000000000050
0000AF9003555410000050
001BFF9000000135510040
00AFFF9000000000000010
00CFFFC369A97531022100
00CFFC5555555555555554
00CFF60000000000000005
00CFF60000000000000005
00AFF60000000000000005
06FFF60045555655552005
1FFFF60000000500000005
1FFFFA3332000500023344
1FFFFFFFFB0005000EFF60
1FFFFFFFFB0005000EE400
1FFFFFFFFB0005000C3000
06AAAEFFFB000500050000
00000BFFFB000500050000
00000BFFFB000500050000
00000BFFFB000500050000
00000BFFFB000500050000
00000BFFFB000500050000
00000BFFFB000500050000
00000AAAA7000500065552
0000770000000500000005
0008F60000000500000005
01AFF60000000500000005
0BFFF60045555655552005
1FFFF60000000000000005
1FFFF70000000000000004
1FFFFFCCCCCCCCCCCCCC80
1FFFFFFFFFFFFFFFFFF800
1FFFFFFFFFFFFFFFFF6000
0BFFFFFFFFFFFFFFD40000
ENDCHAR
STARTCHAR Imacron
ENCODING 298
SWIDTH 705 0
DWIDTH 23 0
BBX 22 34 0 -4
BITMAP
0000003555555555555610
000005A000000000000150
00006F9000000000000050
0009FF9002555555510050
008FFF9000000000000040
00CFFFC100000000000500
00CFFFFFFFFFFFFFFFFFE4
00CFFB4444444444444458
00CFF60000000000000005
008FF60000000000000005
05EFF60045555655552005
0FFFF60000000500000004
1FFFFA3332000500023333
1FFFFFFFFB0005000EFF60
1FFFFFFFFB0005000EE400
1FFFFFFFFB0005000C3000
06AAAEFFFB000500050000
00000BFFFB000500050000
00000BFFFB000500050000
00000BFFFB000500050000
00000BFFFB000500050000
00000BFFFB000500050000
00000BFFFB000500050000
00000AAAA7000500065552
0000770000000500000005
0008F60000000500000005
01AFF60000000500000005
0BFFF60045555655552005
1FFFF60000000000000005
1FFFF70000000000000004
1FFFFFCCCCCCCCCCCCCC80
1FFFFFFFFFFFFFFFFFF800
1FFFFFFFFFFFFFFFFF6000
0BFFFFFFFFFFFFFFD40000
ENDCHAR
STARTCHAR imacron
ENCODING 299
SWIDTH 705 0
DWIDTH 23 0
BBX 22 34 0 -4
BITMAP
0000003555555555555610
000005A000000000000150
00006F9000000000000050
0009FF9002555555510050
008FFF9000000000000040
00CFFFC100000000000500
00CFFFFFFFFFFFFFFFFFE4
00CFFB4444444444444458
00CFF60000000000000005
008FF60000000000000005
05EFF60045555655552005
0FFFF60000000500000004
1FFFFA3332000500023333
1FFFFFFFFB0005000EFF60
1FFFFFFFFB0005000EE400
1FFFFFFFFB0005000C3000
06AAAEFFFB000500050000
00000BFFFB000500050000
00000BFFFB000500050000
00000BFFFB000500050000
00000BFFFB000500050000
00000BFFFB000500050000
00000BFFFB000500050000
00000AAAA7000500065552
0000770000000500000005
0008F60000000500000005
01AFF60000000500000005
0BFFF60045555655552005
1FFFF60000000000000005
1FFFF70000000000000004
1FFFFFCCCCCCCCCCCCCC80
1FFFFFFFFFFFFFFFFFF800
1FFFFFFFFFFFFFFFFF6000
0BFFFFFFFFFFFFFFD40000
ENDCHAR
STARTCHAR Ibreve
ENCODING 300
SWIDTH 705 0
DWIDTH 23 0
BBX 22 36 0 -4
BITMAP
0000004555540005555520
00000770000501B4000050
0000AF6000053DF3010050
001BFF6024004530050050
00CFFF8007100000350040
01FFFFD000455555300010
01FFFFF900000000001100
00FFFFFFD7411012530000
00CFFC5555555555555554
005FF60000000000000005
000AF60000000000000005
009FF60000000000000005
0BFFF60045555655552005
1FFFF60000000500000005
1FFFFA3332000500023344
1FFFFFFFFB0005000EFF60
1FFFFFFFFB0005000EE400
1FFFFFFFFB0005000C3000
06AAAEFFFB000500050000
00000BFFFB000500050000
00000BFFFB000500050000
00000BFFFB000500050000
00000BFFFB000500050000
00000BFFFB000500050000
00000BFFFB000500050000
00000AAAA7000500065552
0000770000000500000005
0008F60000000500000005
01AFF60000000500000005
0BFFF60045555655552005
1FFFF60000000000000005
1FFFF70000000000000004
1FFFFFCCCCCCCCCCCCCC80
1FFFFFFFFFFFFFFFFFF800
1FFFFFFFFFFFFFFFFF6000
0BFFFFFFFFFFFFFFD40000
ENDCHAR
ENDFONT
